<?xml version="1.0" encoding="utf-8"?>
<!-- Generator: Adobe Illustrator 23.0.1, SVG Export Plug-In . SVG Version: 6.00 Build 0)  -->
<svg version="1.1" id="Layer_1" xmlns="http://www.w3.org/2000/svg" xmlns:xlink="http://www.w3.org/1999/xlink" x="0px" y="0px"
	 viewBox="0 0 300 90.87" style="enable-background:new 0 0 300 90.87;" xml:space="preserve">
<style type="text/css">
	.st0{fill:#F06253;}
	.st1{fill:#202E3A;}
	.st2{fill:none;stroke:#2C3E50;stroke-width:3.6058;stroke-linejoin:round;stroke-miterlimit:10;}
</style>
<polygon class="st0" points="17.25,65.47 12.01,75.25 24.08,87.32 57.75,87.32 69.32,75.62 63,65.47 "/>
<path class="st1" d="M70.51,74.92l-5.74-11.15c0,0-0.01-0.01-0.01-0.01l0,0l-5.7-10.82c-0.31-0.59-0.93-0.96-1.59-0.96H18.1
	l4.23-7.55h29.77c0.61,0,1.18-0.31,1.51-0.82c0.33-0.51,0.38-1.16,0.13-1.72l-4.99-11.07c-0.29-0.65-0.93-1.06-1.64-1.06H32.42
	v-8.99l-1.8-2.16l-1.8,2.16v10.79c0,1,0.81,1.8,1.8,1.8h15.32l3.37,7.46H21.26c-0.65,0-1.25,0.35-1.57,0.92l-6.24,11.15
	c-0.31,0.56-0.3,1.24,0.02,1.79c0.32,0.55,0.92,0.89,1.56,0.89h41.36l3.8,7.21H9.64c-0.66,0-1.26,0.36-1.58,0.93L1.91,74.87
	c-0.39,0.7-0.27,1.57,0.3,2.14l10.82,10.9c0.34,0.34,0.8,0.53,1.28,0.53h43.53c0.47,0,0.93-0.19,1.26-0.52l11.07-10.9
	C70.73,76.48,70.87,75.62,70.51,74.92z M10.71,66.39h51.36l3.82,7.42H6.61L10.71,66.39z M57.1,84.85H15.06l-7.37-7.42h56.95
	L57.1,84.85z"/>
<path class="st2" d="M16.8,65.47"/>
<path class="st1" d="M146.96,31.49L132.2,65.16c-4.75,10.78-9.12,14.68-18.21,14.68h-4.15V69.41h3.34c4.64,0,6.04-1.21,7.69-5.59
	l-14.56-32.32h13.19l7.48,19.41l6.97-19.41H146.96z"/>
<path class="st1" d="M173.7,56.1v10.63h-8.35c-7.79,0-12.53-4.76-12.53-12.59V40.84h-6.45V38l15.79-16.81h2.49v10.3h8.85v9.35h-8.54
	v11.21c0,2.52,1.52,4.04,4.08,4.04H173.7z"/>
<path class="st1" d="M214.19,45.51v21.22h-12.14V46.92c0-4.06-1.43-6.14-4.6-6.14c-3.67,0-5.96,2.61-5.96,7.13v18.82h-12.14V18.77
	h12.14v15.04c2.59-2.09,5.89-3.36,9.41-3.36C209,30.45,214.19,36.38,214.19,45.51z"/>
<path class="st1" d="M299.36,45.24v21.48h-12.14V46.92c0-4.1-1.54-6.14-4.6-6.14c-3.78,0-5.96,2.64-5.96,7.13v18.82h-12.14V31.49
	h8.52l1.67,3.63c2.62-2.92,6.54-4.67,11.09-4.67C293.98,30.45,299.36,36.27,299.36,45.24z"/>
<g>
	<g>
		<path class="st0" d="M149.02,59.39l0.47,0.23l0.58,0.19l0.35,0.27l0.47,0.31l0.39,0.47l0.27,0.47l0.12,0.43l0.27,0.54l-0.04,0.54
			l0.08,1.05l-0.08,0.58l-0.2,0.47l-0.78,0.47l-0.47,0.08l-0.7-0.08h-0.51l-0.35-0.47l-0.04-0.54v-1.05l-0.12-0.43l-0.39-0.47
			l-0.31-0.16L147,62.27l-0.35,0.12l-0.39,0.35l-0.39,0.31l-0.19,0.39l-0.31,0.43l-0.58,0.97l-0.12,0.58l-0.23,0.47l-0.27,0.54
			L144,66.93l-0.27,0.54l-0.19,0.51l-0.16,0.54l-0.12,0.54l-0.19,0.58l-0.23,0.58l0.5,0.47l0.47,0.08h1.63l0.43-0.08l0.62,0.08
			l1.13-0.08l0.31,0.58l-0.27,0.51v0.54l-0.27,0.51l-0.7,0.54l-0.51-0.04l-0.43,0.04h-1.05l-0.58-0.04l-0.5,0.04l-0.54-0.04
			l-0.47,0.04l-0.62,0.54l-0.15,0.47l-0.2,0.51l-0.23,0.51l-0.15,0.54l-0.08,0.58l-0.15,0.47l-0.08,0.51l-0.27,0.58l-0.08,0.47
			l-0.27,1.13l-0.08,0.47l-0.16,0.51l-0.31,0.58v0.51l-0.27,0.51l-0.04,0.51l-0.23,0.54l-0.16,0.51l-0.12,0.54l-0.16,0.58
			l-0.15,0.51v0.54l-0.31,0.54l-0.08,0.43l-0.15,0.58l-0.62,0.54l-0.62-0.08l-0.39,0.12h-1.17l-0.39-0.62l0.23-0.47l0.08-0.58
			l0.12-0.54l0.27-0.43l0.08-0.58l0.12-0.47l0.19-0.54l0.19-0.51v-0.62l0.27-0.51l0.19-0.47l0.12-0.51v-0.54l0.23-0.58l0.16-0.54
			l0.19-0.51v-0.54l0.23-0.47l0.19-0.54l0.2-0.54v-0.47l0.19-0.51l0.12-0.62l0.16-0.47l0.15-0.58l0.12-0.43l-0.31-0.62l-0.39,0.04
			l-0.5,0.04l-0.66-0.08l-0.39,0.08l-0.35-0.51l0.19-0.54l0.16-0.58l0.19-0.43l0.62-0.58l0.62,0.04h0.62l0.62-0.04l0.62-0.19
			l0.19-0.62l0.16-0.47l0.12-0.58l0.04-0.51l0.27-0.54l0.04-0.43l0.31-0.54l0.12-0.47l0.15-0.51l0.23-0.58l0.2-0.43l0.12-0.54
			l0.27-0.47l0.31-0.51l0.12-0.47l0.43-0.51l0.15-0.43l0.43-0.43l0.27-0.43l0.51-0.43l0.27-0.31l0.54-0.27l0.43-0.23l0.54-0.19
			l0.43-0.19l0.47-0.04l0.62-0.08h1.01L149.02,59.39z"/>
		<path class="st0" d="M170.66,71.05l0.08,0.7l-0.19,0.51l-0.27,0.47l-0.31,0.54l-0.16,0.43l-0.43,0.51l-0.23,0.43l-0.39,0.51
			l-0.39,0.35l-0.27,0.43l-0.35,0.47l-0.54,0.27l-0.27,0.35l-0.58,0.27l-0.43,0.35l-0.47,0.16l-0.7,0.12L164.37,78l-0.97-0.04
			l-0.35,0.51l0.04,0.54l-0.16,0.62l-0.15,0.51v0.54l-0.23,0.43l-0.08,0.54l-0.31,0.54l-0.12,0.47l-0.27,0.47l-0.16,0.54l-0.43,0.43
			l-0.27,0.43L160.64,85l-0.27,0.35l-0.35,0.47l-0.5,0.39l-0.31,0.31l-0.85,0.7l-0.47,0.27l-0.58,0.31l-0.93,0.35l-0.46,0.23
			l-0.43,0.08l-0.58,0.12h-0.54h-1.01h-0.58l-0.66-0.12l-0.5-0.19l-0.47-0.16l-0.43-0.27l-0.55-0.23l-0.31-0.39l-0.54-0.31
			l-0.31-0.35l-0.39-0.43l-0.23-0.47l-0.31-0.54L148,84.69l-0.35-0.51V83.6l-0.23-0.47v-0.62l-0.08-0.51l0.04-1.13l0.08-0.58
			l-0.08-0.43l0.12-0.62l0.08-0.51l0.27-0.58l0.15-0.43l0.2-0.58l0.19-0.51l0.19-0.43l0.16-0.54l0.31-0.47l0.16-0.43l0.39-0.51
			l0.35-0.39l0.23-0.43l0.39-0.47l0.5-0.35l0.27-0.35l0.47-0.39l0.54-0.31l0.47-0.23l0.43-0.31l0.39-0.19l0.62-0.19l0.43-0.23
			l0.62-0.12l0.47-0.04l0.58-0.04h1.05l0.62,0.08l0.93,0.23l0.58,0.19l0.54,0.23l0.47,0.31l0.35,0.35l0.31,0.35l0.51,0.43l0.23,0.54
			l0.19,0.47l0.35,0.47l0.12,0.47l0.19,0.62l0.78,0.7h0.97l0.62-0.08l0.47-0.19l0.93-0.58l0.35-0.31l0.35-0.31l0.35-0.43l0.27-0.39
			l0.39-0.47l0.31-0.39l0.31-0.47l0.35-0.47l0.2-0.54l0.74-0.23L170.66,71.05z M155.19,85.35l0.54-0.16l0.5-0.31l0.35-0.23
			l0.55-0.35l0.39-0.43l0.27-0.43l0.39-0.35l0.23-0.47l0.27-0.51l0.27-0.51l0.31-0.54l0.08-0.51l0.27-0.54v-0.58l0.15-0.51
			l0.08-0.58l0.04-1.13l-0.15-0.47l-0.12-0.54l-0.04-0.51l-0.35-0.47l-0.27-0.43l-0.15-0.51l-0.35-0.35l-0.54-0.31l-0.47-0.16
			l-0.43-0.12l-1.09-0.04l-0.47,0.08l-0.66,0.23l-0.39,0.23l-0.62,0.27l-0.39,0.39l-0.47,0.31l-0.2,0.39l-0.35,0.43l-0.46,0.47
			l-0.27,0.51l-0.27,0.51l-0.15,0.58l-0.12,0.51l-0.16,0.47l-0.15,0.54v0.66l-0.16,0.51v1.13l0.08,0.54l0.16,0.51l0.04,0.47
			l0.19,0.47l0.35,0.47l0.31,0.47l0.35,0.43l0.5,0.27l0.43,0.16l0.43,0.19h1.09L155.19,85.35z"/>
		<path class="st0" d="M165.18,87.02l0.27-0.58v-0.47l0.16-0.58l0.16-0.43l0.12-0.62l0.27-0.47l0.19-0.58l0.04-0.47l0.12-0.58
			l0.23-0.47l0.19-0.51l0.12-0.51v-0.54l0.2-0.51l0.23-0.62l0.08-0.47l0.19-0.51l0.04-0.51l0.27-0.62v-0.51l0.23-0.51l0.04-0.51
			l0.19-0.58l0.23-0.51l0.04-0.54l0.23-0.51l0.15-0.54l0.08-0.43l0.12-0.62l0.19-0.43l0.78-0.54h1.01l0.58-0.08l0.47,0.62
			l-0.04,0.58l-0.15,0.58l-0.23,0.47v0.58l-0.23,0.62l-0.12,0.58l-0.04,0.54l0.27-0.47l0.31-0.47l0.23-0.47l0.31-0.51l0.39-0.39
			l0.47-0.39l0.27-0.47l0.74-0.78l0.5-0.35l0.39-0.27l0.58-0.23l1.09-0.23l0.93-0.08l0.66,0.12l0.43,0.31l0.43,0.35l0.47,0.35
			l0.31,0.47l0.16,0.51l0.19,0.62l0.08,0.54v1.13l-0.08,0.58l-0.23,0.54l-0.58,0.51l-0.7,0.08l-1.05-0.08l-0.51-0.39l0.08-0.54
			l-0.2-1.05l-0.19-0.47l-0.39-0.35l-0.97-0.04l-0.47,0.16l-0.47,0.19l-0.31,0.31l-0.43,0.27l-0.19,0.43l-0.35,0.39l-0.35,0.35
			l-0.35,0.51l-0.31,0.43l-0.23,0.54l-0.35,0.43l-0.23,0.51l-0.19,0.58l-0.35,0.43l-0.16,0.58l-0.31,0.54l-0.23,0.51l-0.19,0.51
			l-0.12,0.47l-0.31,0.58l-0.12,0.51l-0.12,0.58l-0.23,0.58l-0.27,0.51l-0.04,0.51l-0.15,0.58l-0.2,0.54l-0.19,0.54l-0.15,0.47
			l-0.16,0.62l-0.74,0.47l-0.46,0.08l-0.58-0.08h-0.51l-0.62,0.08l-0.47-0.51L165.18,87.02z"/>
		<path class="st0" d="M205.86,78.9l0.16,0.7l-0.23,0.51l-0.19,0.51L205.36,81l-0.35,0.51l-0.39,0.43l-0.23,0.47l-0.27,0.51
			l-0.31,0.35l-0.23,0.47l-0.35,0.47l-0.39,0.39l-0.31,0.47l-0.43,0.35l-0.31,0.43l-0.27,0.43l-0.43,0.35l-0.39,0.35l-0.54,0.27
			l-0.43,0.27l-0.35,0.27l-0.51,0.31l-0.58,0.23l-0.89,0.23l-0.7,0.04l-1.05,0.08l-0.54-0.16l-0.58-0.19l-0.43-0.19l-0.54-0.27
			l-0.39-0.47l-0.31-0.35l-0.27-0.54l-0.23-0.51l-0.19-0.51l-0.08-0.58l0.04-1.09v-0.47l0.04-0.54l0.15-0.54v-0.43l0.2-0.58
			l0.04-0.47l0.12-0.51l0.04-0.54l0.15-0.58l0.2-0.47l0.08-0.51l0.08-0.54l0.31-0.58l0.04-0.47l0.08-0.58l0.15-0.54l0.31-0.47
			l0.12-0.54l0.04-0.51l-0.31-0.54l-0.54-0.04l-0.7-0.04l-0.58,0.04l-0.39-0.51l0.16-0.54l0.19-0.51l0.2-0.51l0.66-0.58l0.54,0.08
			l0.7-0.04h0.54l0.74-0.54l0.12-0.51l0.12-0.51l0.12-0.58l0.23-0.47l0.12-0.58l0.39-0.97l0.12-0.54l0.15-0.62l0.08-0.43l0.31-0.58
			l0.04-0.47l0.15-0.62l0.78-0.51l0.51-0.04l1.13-0.08l0.54-0.08l0.39,0.51l-0.04,0.47l-0.27,0.47l-0.15,0.54l-0.04,0.54l-0.31,0.54
			l-0.08,0.47l-0.2,0.47l-0.08,0.51l-0.27,0.51l-0.15,0.62l-0.08,0.47l-0.23,0.51l-0.23,1.01l0.43,0.47l0.66,0.08h0.5l0.58-0.08
			l0.47,0.04l0.58,0.04h1.79l0.31,0.54l-0.12,0.51l-0.12,0.51l-0.16,0.54l-0.82,0.47l-0.5-0.04l-0.58,0.08l-0.51-0.08l-0.7,0.08
			l-0.46-0.08h-1.09l-0.5,0.08l-0.7,0.54l-0.31,0.47l-0.12,0.51l-0.2,0.54L197,75.98l-0.2,0.51l-0.15,0.62l-0.2,0.54l-0.08,0.47
			l-0.19,0.58l-0.04,0.51l-0.15,0.54l-0.04,0.58l-0.23,0.51v0.54l-0.12,0.54l-0.12,0.58l-0.04,0.54l0.16,1.05l0.23,0.62l0.31,0.43
			l0.47,0.27l1.17,0.04l0.54-0.12l0.54-0.16l0.35-0.19l0.62-0.23l0.31-0.35l0.43-0.31l0.43-0.35l0.47-0.47l0.23-0.35l0.51-0.54
			l0.23-0.39l0.31-0.51l0.31-0.47l0.43-0.47l0.2-0.39l0.27-0.54l0.43-0.47l0.31-0.51l0.74-0.12L205.86,78.9z"/>
		<path class="st0" d="M215.85,88.42l-0.62-0.19l-0.51-0.23l-0.27-0.47l-0.43-0.35l-0.23-0.62l-0.23-0.51l-0.08-0.51l0.12-1.13
			l-0.04-0.54l0.04-0.54l0.23-0.51l0.12-0.58l0.23-0.51l0.04-0.47l0.27-0.58l0.19-0.43l0.2-0.51l0.15-0.51l0.27-0.54l0.23-0.47
			l0.12-0.58l0.27-0.51l0.04-0.47l0.12-0.54l0.19-0.54l-0.04-1.01L216,74.04l-0.39-0.35l-0.5-0.35l-0.93-0.04l-0.51,0.12l-0.35,0.19
			l-0.62,0.23l-0.43,0.27l-0.23,0.31l-0.39,0.35l-0.74,0.7l-0.39,0.47l-0.31,0.35l-0.35,0.47l-0.27,0.43l-0.31,0.47l-0.19,0.51
			l-0.43,0.51l-0.08,0.51l-0.27,0.54L208,80.14l-0.2,0.51l-0.35,0.51l-0.19,0.58l-0.08,0.54l-0.35,0.43l-0.16,0.58l-0.15,0.51
			l-0.16,0.51l-0.27,0.54l-0.23,0.54l-0.15,0.51l-0.04,0.58l-0.31,0.51l-0.04,0.58l-0.78,0.51l-0.58-0.08h-0.43l-0.58,0.12h-0.5
			l-0.47-0.62l0.08-0.51l0.16-0.54l0.19-0.51l0.23-0.54l0.04-0.43l0.31-0.54v-0.51l0.27-0.54l0.12-0.51l0.23-0.51l0.12-0.58
			l0.2-0.47l0.04-0.54l0.2-0.58l0.08-0.47l0.35-0.51l0.08-0.58l0.12-0.51l0.08-0.51l0.2-0.51l0.15-0.51l0.16-0.51l0.31-0.58
			l0.04-0.47l0.15-0.51l0.12-0.58l0.12-0.54l0.16-0.51l0.31-0.54l0.12-0.43l0.08-0.58l0.12-0.47l0.31-0.58v-0.54l0.27-0.47
			l0.12-0.54l0.12-0.47l0.23-0.51l0.23-0.62l0.08-0.47l0.23-0.54l0.08-0.51l0.19-0.51l0.08-0.54l0.16-0.54l0.23-0.54l0.19-0.43
			l0.12-0.51l0.08-0.54l0.2-0.58l0.08-0.51l0.23-0.51l0.7-0.54l0.43,0.04h1.17l0.39-0.04l0.31,0.54l-0.16,0.54v0.51l-0.23,0.54
			l-0.16,0.54l-0.19,0.51l-0.12,0.47l-0.08,0.54l-0.31,0.58l-0.16,0.47l-0.04,0.51l-0.19,0.54l-0.19,0.58l-0.12,0.51l-0.12,0.58
			l-0.12,0.47l-0.31,0.54l-0.04,0.54l-0.12,0.47l-0.31,0.51l-0.16,1.13l-0.23,0.54l-0.16,0.43l-0.19,0.62l-0.15,0.51l-0.04,0.54
			l-0.23,0.47l0.35-0.43l0.35-0.43l0.35-0.43l0.31-0.39l0.54-0.51l0.27-0.35l0.43-0.27l0.5-0.43l0.51-0.31l0.35-0.19l0.5-0.23
			l0.55-0.27l0.62-0.04l0.54-0.12l1.01-0.04l0.51,0.08l0.5,0.23l0.62,0.19l0.47,0.27l0.31,0.39l0.51,0.39l0.27,0.43l0.08,0.51
			l0.31,0.51l0.04,0.58l-0.04,1.17l-0.04,0.54l-0.04,0.51l-0.19,0.54l-0.23,0.47l-0.15,0.62l-0.12,0.47l-0.08,0.54l-0.35,0.54
			l-0.12,0.51l-0.31,0.47l-0.15,0.51l-0.27,0.51l-0.19,0.47l-0.04,0.58l-0.27,0.51l-0.12,0.47l-0.08,0.62l-0.04,1.09l0.39,0.51
			l1.09,0.04l0.58-0.16l0.43-0.19l0.27-0.31l0.47-0.39l0.39-0.35l0.31-0.35l0.43-0.39l0.27-0.47l0.5-0.43l0.19-0.43l0.43-0.47
			l0.23-0.43l0.39-0.47l0.27-0.54l0.27-0.51l0.35-0.47l0.23-0.39l0.78-0.23l0.51,0.43l0.15,0.82l-0.23,0.39l-0.43,0.51l-0.15,0.43
			l-0.35,0.47l-0.23,0.54l-0.43,0.43l-0.16,0.43l-0.35,0.51l-0.31,0.39l-0.31,0.47l-0.47,0.43l-0.16,0.51l-0.5,0.43l-0.35,0.39
			l-0.35,0.39l-0.35,0.39l-0.47,0.43l-0.39,0.31l-0.54,0.35l-0.31,0.23l-0.58,0.19l-0.58,0.19l-0.54,0.16l-1.09-0.04L215.85,88.42z"
			/>
		<path class="st0" d="M239.67,84.45l-0.27,0.47l-0.39,0.39l-0.35,0.39l-0.58,0.27l-0.43,0.35l-0.39,0.39l-0.5,0.27l-0.43,0.31
			l-0.39,0.19l-0.58,0.31l-0.58,0.19l-0.39,0.19l-0.62,0.12l-0.43,0.12l-0.66,0.16l-0.54-0.04l-0.47,0.08l-1.17-0.04l-0.43-0.04
			l-0.66-0.12l-0.51-0.08l-0.47-0.16l-0.5-0.31l-0.47-0.23l-0.62-0.35l-0.31-0.31l-0.35-0.31l-0.47-0.43l-0.39-0.47l-0.27-0.43
			l-0.15-0.51l-0.2-0.54l-0.23-0.51l-0.08-0.51l-0.19-0.66l-0.04-0.47l-0.04-0.58l-0.08-1.09l0.16-0.51l-0.12-0.54l0.12-0.54
			l0.19-0.62l0.08-0.43l0.16-0.58l0.16-0.51l0.31-0.54l0.08-0.43l0.27-0.47l0.39-0.54l0.2-0.47l0.39-0.43l0.19-0.39l0.35-0.47
			l0.39-0.39l0.39-0.43l0.54-0.35l0.43-0.31l0.31-0.27l0.54-0.27l0.47-0.19l0.58-0.16l0.39-0.19l0.66-0.08l0.5-0.12l0.43-0.04
			l1.24-0.08l0.39,0.12l0.58,0.08l0.58,0.16l0.47,0.27l0.35,0.23l0.47,0.31l0.31,0.39l0.31,0.39l0.31,0.47l0.23,0.51l0.16,0.47
			l-0.04,0.58l0.08,1.01l-0.15,0.58l-0.12,0.54l-0.19,0.51l-0.2,0.43l-0.23,0.43l-0.31,0.43l-0.31,0.43l-0.39,0.35l-0.39,0.39
			l-0.51,0.23l-0.35,0.39l-0.5,0.23l-0.51,0.27l-0.58,0.19l-0.39,0.19l-0.51,0.12l-0.54,0.23l-0.5,0.12l-0.55,0.04l-1.16,0.23
			l-0.47,0.12l-0.51,0.08l-0.58-0.04l-0.46,0.58l0.12,0.54l0.19,0.51l0.15,0.43l0.27,0.51l0.39,0.35l0.35,0.39l0.62,0.19l0.35,0.27
			l0.62,0.12h0.47h1.17l0.47,0.04l0.43-0.12l0.62-0.16l0.47-0.08l0.43-0.23l0.58-0.12l0.51-0.23l0.39-0.27l0.47-0.27l0.51-0.27
			l0.31-0.35l0.43-0.35l0.39-0.39h0.93l0.39,0.27l0.43,0.31l0.12,0.78L239.67,84.45z M228.63,79.52l0.54-0.08l0.58-0.08l0.5-0.19
			l0.47-0.08l1.13-0.35l0.47-0.27l0.47-0.23l0.5-0.35l0.55-0.39l0.23-0.35l0.39-0.47l0.31-0.54v-0.47l0.08-1.09l-0.2-0.43
			l-0.31-0.43l-0.58-0.31l-0.54-0.08l-1.09-0.04l-0.47,0.12l-0.58,0.23l-0.47,0.19l-0.43,0.35l-0.35,0.39l-0.43,0.35l-0.39,0.43
			l-0.27,0.47l-0.23,0.54l-0.27,0.51l-0.35,0.47l-0.08,0.51l-0.12,0.58l-0.16,0.58l0.54,0.51H228.63z"/>
		<path class="st0" d="M253.38,88.53l-0.51-0.19l-0.39-0.23l-0.46-0.31l-0.55-0.39l-0.31-0.47l-0.15-0.47l-0.23-0.58l-0.27-0.47
			l-0.04-0.62l0.12-0.97l-0.15-0.51l0.08-0.43l0.08-0.43l0.16-0.54l0.08-0.51l0.04-0.47l0.08-0.47l0.12-0.54l0.16-0.54l0.08-0.47
			l0.08-0.62l0.27-0.43l0.12-0.58l0.19-0.51l0.12-0.54l0.08-0.58l0.12-0.51l0.12-0.51l0.27-0.62l0.19-0.51l0.12-0.54l0.16-0.54
			l0.12-0.47l0.19-0.58l0.04-0.58l0.27-0.58l0.23-0.51l0.12-0.58l0.12-0.51l0.2-0.54l0.12-0.51l0.12-0.62l0.19-0.54l0.27-0.47
			l0.12-0.54l0.16-0.62l0.19-0.54l0.08-0.54l0.31-0.51l0.12-0.51l0.19-0.58l0.12-0.58l0.16-0.54l0.19-0.51l0.66-0.58l0.54,0.04h0.58
			l0.54-0.08l0.51,0.04l0.39,0.51l-0.04,0.51l-0.27,0.54l-0.08,0.58l-0.27,0.47l-0.12,0.58l-0.04,0.43l-0.27,0.62l-0.12,0.47
			l-0.16,0.51l-0.08,0.51l-0.23,0.58l-0.23,0.54v0.43l-0.27,0.54l-0.08,0.54l-0.12,0.54l-0.19,0.51l-0.23,0.54l-0.12,0.51
			l-0.12,0.51l-0.23,0.51l-0.15,0.54l-0.12,0.54l-0.04,0.47l-0.31,0.58L255.95,74l-0.12,0.47l-0.08,0.54l-0.23,0.51l-0.08,0.51
			l-0.19,0.62l-0.16,0.51l-0.08,0.51l-0.19,0.58l-0.04,0.47l-0.23,0.58l-0.15,0.47v0.54l-0.16,0.51l-0.12,0.54l-0.16,0.62
			l-0.04,0.51l-0.08,0.47l0.12,1.17l0.16,0.51l0.27,0.54l0.5,0.23l1.01,0.04l0.47-0.12l0.58-0.08l0.5-0.31l0.35-0.23l0.43-0.39
			l0.31-0.35l0.47-0.39l0.27-0.47l0.31-0.39l0.35-0.43l0.39-0.39l0.23-0.47l0.35-0.54l0.23-0.39l0.39-0.54l0.2-0.39l0.23-0.54
			l0.31-0.47l0.7-0.04l0.5,0.31l0.23,0.86l-0.27,0.51l-0.16,0.43l-0.31,0.43l-0.31,0.54l-0.27,0.47l-0.31,0.47l-0.23,0.39
			l-0.27,0.47l-0.35,0.47l-0.31,0.39l-0.31,0.47l-0.31,0.39l-0.35,0.43l-0.35,0.51l-0.39,0.35l-0.39,0.39l-0.31,0.39l-0.47,0.31
			l-0.47,0.31l-0.46,0.23l-0.39,0.23l-0.51,0.23l-1.09,0.19l-1.05-0.04L253.38,88.53z"/>
		<path class="st0" d="M266.86,88.57l-0.54-0.19l-0.62-0.12l-0.54-0.27l-0.43-0.23l-0.39-0.31l-0.39-0.43l-0.47-0.31l-0.27-0.47
			l-0.23-0.47l-0.43-0.54l-0.08-0.54l-0.27-0.47l-0.04-0.51l-0.16-0.54l-0.08-0.62l-0.04-0.54l0.08-1.17l-0.12-0.54l0.12-0.54
			l0.04-0.47l0.16-0.54l0.16-0.62l0.04-0.54l0.16-0.47l0.19-0.54l0.35-0.47l0.16-0.58l0.31-0.51l0.23-0.47l0.19-0.39l0.43-0.51
			l0.35-0.39l0.31-0.51l0.43-0.35l0.31-0.39l0.58-0.31l0.39-0.35l0.43-0.23l0.54-0.23l0.5-0.19l0.55-0.23l0.58-0.16l0.39-0.12h0.7
			h0.97l0.54,0.08l0.51,0.12l1.05,0.47l0.39,0.35l0.27,0.31l0.35,0.35l0.35,0.43l0.27,0.54l0.27,0.43l0.27,0.51l0.08,0.51l0.12,0.51
			l0.27-0.51l0.23-0.51l0.2-0.47l0.39-0.58l0.16-0.47l0.31-0.47l0.12-0.51l0.7-0.54h0.54l0.58,0.04h0.58l0.23,0.51l-0.23,0.47
			l-0.2,0.51l-0.04,0.54l-0.23,0.58l-0.27,0.47l-0.08,0.47l-0.23,0.51l-0.12,0.62l-0.12,0.43l-0.27,0.58l-0.12,0.47l-0.27,0.54
			L277.82,78l-0.12,0.43l-0.16,0.58l-0.16,0.47l-0.12,0.54l-0.19,0.54l-0.19,0.54l-0.19,0.51l-0.16,0.54l-0.12,0.47l-0.12,0.62
			l-0.08,0.47l0.23,1.17l0.35,0.47l1.13,0.12l0.39-0.19l0.54-0.16l0.31-0.39l0.47-0.27l0.31-0.43l0.47-0.43l0.31-0.35l0.43-0.43
			l0.19-0.43l0.47-0.43l0.23-0.47l0.23-0.51l0.35-0.43l0.23-0.51l0.47-0.43l0.15-0.58l0.39-0.47l0.7-0.12l0.5,0.31l0.12,0.89
			l-0.19,0.47l-0.27,0.43l-0.31,0.47l-0.27,0.47l-0.35,0.51l-0.23,0.43l-0.31,0.54l-0.19,0.39l-0.43,0.51l-0.23,0.39l-0.27,0.47
			l-0.35,0.39l-0.39,0.51l-0.39,0.35l-0.46,0.39l-0.39,0.43l-0.74,0.74l-0.54,0.27l-0.47,0.31l-0.31,0.23l-0.62,0.19l-0.43,0.04
			L276,88.61l-0.62-0.08l-0.5-0.19l-0.51-0.31l-0.31-0.27l-0.31-0.39l-0.2-0.47l-0.19-0.51l-0.08-0.62l-0.39,0.54l-0.5,0.35
			l-0.39,0.35l-0.47,0.43l-0.39,0.23l-0.54,0.35l-0.51,0.19l-0.51,0.19l-0.54,0.16h-0.62l-0.97,0.08L266.86,88.57z M269.66,85.43
			l0.39-0.27l0.51-0.16l0.54-0.35l0.35-0.27l0.47-0.35l0.31-0.43l0.23-0.47l0.39-0.39l0.31-0.47l0.23-0.51l0.08-0.51l0.27-0.47
			l0.12-0.51l0.12-0.58l0.15-0.54l-0.08-0.47l0.04-0.58l0.08-1.13l-0.16-0.51l-0.08-0.54l-0.12-0.58l-0.19-0.43l-0.39-0.51
			L272.81,74l-0.35-0.27l-0.54-0.27l-0.58-0.08h-1.05l-0.5,0.04l-0.47,0.19l-0.58,0.31l-0.51,0.23l-0.31,0.39l-0.5,0.43l-0.31,0.31
			l-0.35,0.54l-0.23,0.39l-0.27,0.47l-0.16,0.51l-0.31,0.58l-0.12,0.58l-0.08,0.47l-0.23,0.54l-0.08,0.58l-0.04,0.51l0.08,1.13
			l0.04,0.62l0.08,0.54l0.23,0.51l0.23,0.58l0.35,0.43l0.31,0.47l0.39,0.31l0.5,0.27l0.62,0.19l1.17,0.04L269.66,85.43z"/>
		<path class="st0" d="M288.43,88.46l-0.58-0.19l-0.43-0.23l-0.66-0.23l-0.39-0.31l-0.35-0.27l-0.51-0.39l-0.31-0.47l-0.35-0.35
			l-0.27-0.51l-0.16-0.47l-0.35-0.51L284,83.99l-0.16-0.51l-0.08-0.54l-0.19-0.62l-0.04-0.51v-0.97l0.12-0.39l0.04-0.43l-0.04-0.47
			l-0.04-0.43l0.08-0.35l0.19-0.51l0.12-0.35l-0.08-0.54l0.16-0.47l0.12-0.39l0.16-0.58l0.08-0.43l0.19-0.54l0.04-0.54l0.16-0.47
			l0.12-0.62l0.19-0.47l0.15-0.58l0.23-0.54l0.04-0.54l0.23-0.54l0.16-0.62l0.12-0.54l0.15-0.54l0.23-0.54l0.16-0.54l0.23-0.62
			l0.04-0.54l0.27-0.54l0.08-0.62l0.16-0.54l0.31-0.62l0.19-0.54l0.16-0.58l0.04-0.47l0.31-0.58l0.08-0.54l0.23-0.58v-0.58
			l0.78-0.58h0.43l0.54-0.04l0.58,0.08l0.5-0.04l0.47,0.54l-0.31,0.51l-0.16,0.54v0.51l-0.23,0.54l-0.23,0.54l-0.04,0.54l-0.12,0.54
			l-0.27,0.51l-0.19,0.58l-0.16,0.54l-0.04,0.47l-0.19,0.58l-0.08,0.54l-0.19,0.43l-0.08,0.58l-0.31,1.05l-0.23,0.51l-0.19,0.58
			l-0.08,0.54l-0.23,0.47l-0.08,0.62l-0.08,0.51l0.39-0.39l0.35-0.47l0.47-0.31l0.35-0.35l0.54-0.35l0.43-0.19l0.43-0.16l0.58-0.16
			l0.58-0.08h1.01l0.58,0.04l0.47,0.16l0.66,0.19l0.43,0.19l0.54,0.27l0.39,0.39l0.47,0.31l0.35,0.39l0.31,0.51l0.2,0.47l0.43,0.47
			l0.04,0.51l0.23,0.51l0.23,0.58l0.12,0.58l-0.04,0.54l0.08,0.58L299.08,78l0.12,0.54l-0.04,0.58l-0.23,0.54v0.51l-0.12,0.51
			l-0.31,0.54l-0.08,0.54l-0.27,0.47l-0.12,0.58l-0.31,0.51l-0.31,0.51l-0.23,0.47l-0.27,0.39l-0.27,0.43l-0.39,0.51l-0.39,0.43
			l-0.35,0.35l-0.39,0.35l-0.5,0.31l-0.47,0.39l-0.97,0.47l-0.39,0.19l-0.62,0.16l-0.58,0.16l-0.47,0.12l-0.58,0.08l-1.63-0.08
			L288.43,88.46z M291.46,85.35l0.43-0.16l0.58-0.31l0.43-0.23l0.39-0.39l0.27-0.35l0.47-0.47l0.39-0.39l0.27-0.51l0.16-0.54
			l0.19-0.47l0.35-0.51l0.16-0.54l0.08-0.51l0.12-0.62l0.16-0.54l-0.04-0.54v-1.13l-0.12-0.54l-0.08-0.58l-0.12-0.54l-0.31-0.51
			l-0.27-0.43l-0.43-0.51l-0.51-0.31l-0.43-0.19l-0.54-0.19h-1.17l-0.47,0.16l-0.5,0.16l-0.39,0.31l-0.5,0.27l-0.47,0.31l-0.39,0.39
			l-0.39,0.39l-0.35,0.43l-0.16,0.47l-0.35,0.47l-0.23,0.58l-0.19,0.47l-0.19,0.47l-0.08,0.62l-0.08,0.51l-0.08,0.51l-0.04,0.58
			l-0.08,1.09l0.04,0.58l0.12,0.51l0.23,0.54l0.12,0.39l0.19,0.47l0.31,0.47l0.35,0.35l0.47,0.31l0.47,0.23l0.58,0.12l1.09,0.04
			L291.46,85.35z"/>
	</g>
</g>
<circle class="st0" cx="41.51" cy="18.47" r="2.48"/>
<circle class="st0" cx="30.79" cy="7.24" r="5.51"/>
<path class="st1" d="M88.08,21.05H68.63v37.15l4.48,8.52h8.13V54.11h6.83c9.71,0,16.92-6.98,16.92-16.56
	C105,27.98,97.78,21.05,88.08,21.05z M86.57,43.13h-5.33V32.04h5.33c3.31,0,5.5,2.3,5.5,5.54S89.88,43.13,86.57,43.13z"/>
<g>
	<path class="st1" d="M238.67,27.65c-10.89,0-10.21,4.72-10.21,4.72l0.01,4.89h10.39v1.47h-14.51c0,0-6.97-0.79-6.97,10.19
		c0,10.98,6.08,10.59,6.08,10.59h3.63v-5.1c0,0-0.2-6.08,5.98-6.08h10.3c0,0,5.79,0.09,5.79-5.59v-9.41
		C249.17,33.34,250.05,27.65,238.67,27.65z M232.94,30.94c1.03,0,1.87,0.83,1.87,1.87c0,0,0,0,0,0c0,1.03-0.83,1.87-1.87,1.87
		c0,0,0,0,0,0c-1.03,0-1.87-0.83-1.87-1.87c0,0,0,0,0,0C231.07,31.77,231.91,30.94,232.94,30.94
		C232.94,30.94,232.94,30.94,232.94,30.94z"/>
	<path class="st1" d="M238.98,70.31c10.89,0,10.21-4.72,10.21-4.72l-0.01-4.89h-10.39v-1.47h14.51c0,0,6.97,0.79,6.97-10.19
		c0-10.98-6.08-10.59-6.08-10.59h-3.63v5.1c0,0,0.2,6.08-5.98,6.08h-10.3c0,0-5.79-0.09-5.79,5.59v9.41
		C228.48,64.61,227.6,70.31,238.98,70.31L238.98,70.31z M244.71,67.02c-1.03,0-1.87-0.83-1.87-1.87c0,0,0,0,0,0
		c0-1.03,0.83-1.87,1.87-1.87c0,0,0,0,0,0c1.03,0,1.87,0.83,1.87,1.87c0,0,0,0,0,0C246.58,66.18,245.74,67.02,244.71,67.02
		C244.71,67.02,244.71,67.02,244.71,67.02L244.71,67.02z"/>
</g>
</svg>
