<?xml version="1.0" encoding="UTF-8" standalone="no"?>
<svg
   xmlns:dc="http://purl.org/dc/elements/1.1/"
   xmlns:cc="http://creativecommons.org/ns#"
   xmlns:rdf="http://www.w3.org/1999/02/22-rdf-syntax-ns#"
   xmlns:svg="http://www.w3.org/2000/svg"
   xmlns="http://www.w3.org/2000/svg"
   xmlns:xlink="http://www.w3.org/1999/xlink"
   xmlns:sodipodi="http://sodipodi.sourceforge.net/DTD/sodipodi-0.dtd"
   xmlns:inkscape="http://www.inkscape.org/namespaces/inkscape"
   inkscape:export-ydpi="200"
   inkscape:export-xdpi="200"
   inkscape:export-filename="/home/aquiles/Documents/Web/pftl/pftl/static/img/newsletter_banner.png"
   sodipodi:docname="newsletter_banner.svg"
   inkscape:version="1.0 (6e3e5246a0, 2020-05-07)"
   id="svg1430"
   version="1.1"
   viewBox="0 0 227.54166 31.75"
   height="120"
   width="860">
  <defs
     id="defs1424">
    <linearGradient
       id="47567f34-21cc-4103-b039-7b07a02a692b"
       x1="224.88"
       y1="440.26001"
       x2="438.89999"
       y2="440.26001"
       gradientUnits="userSpaceOnUse">
      <stop
         offset="0"
         stop-color="gray"
         stop-opacity="0.25"
         id="stop2426" />
      <stop
         offset="0.54"
         stop-color="gray"
         stop-opacity="0.12"
         id="stop2428" />
      <stop
         offset="1"
         stop-color="gray"
         stop-opacity="0.1"
         id="stop2430" />
    </linearGradient>
    <linearGradient
       id="9327c94c-6e79-4ecb-b0e2-b824d910a5fb"
       x1="636.83002"
       y1="740.54999"
       x2="636.83002"
       y2="204.8"
       xlink:href="#47567f34-21cc-4103-b039-7b07a02a692b" />
    <linearGradient
       y2="440.26001"
       x2="438.89999"
       y1="440.26001"
       x1="224.88"
       gradientUnits="userSpaceOnUse"
       id="linearGradient2654"
       xlink:href="#47567f34-21cc-4103-b039-7b07a02a692b"
       inkscape:collect="always" />
  </defs>
  <sodipodi:namedview
     inkscape:window-maximized="1"
     inkscape:window-y="27"
     inkscape:window-x="59"
     inkscape:window-height="845"
     inkscape:window-width="1541"
     units="px"
     showgrid="false"
     inkscape:document-rotation="0"
     inkscape:current-layer="layer1"
     inkscape:document-units="mm"
     inkscape:cy="95.896677"
     inkscape:cx="395.00212"
     inkscape:zoom="1.0423828"
     inkscape:pageshadow="2"
     inkscape:pageopacity="0.0"
     borderopacity="1.0"
     bordercolor="#666666"
     pagecolor="#ffffff"
     id="base" />
  <metadata
     id="metadata1427">
    <rdf:RDF>
      <cc:Work
         rdf:about="">
        <dc:format>image/svg+xml</dc:format>
        <dc:type
           rdf:resource="http://purl.org/dc/dcmitype/StillImage" />
        <dc:title></dc:title>
      </cc:Work>
    </rdf:RDF>
  </metadata>
  <g
     id="layer1"
     inkscape:groupmode="layer"
     inkscape:label="Layer 1">
    <g
       transform="matrix(0.0407174,0,0,0.0407174,1.2631647,1.3325578)"
       id="g2652">
      <ellipse
         cx="516.58002"
         cy="627.84998"
         rx="350"
         ry="100"
         fill="#f5f5f5"
         id="ellipse2438" />
      <path
         d="m 969.58,324.92 c 0,0 -62,62 -27,154 35,92 -60,245 -60,245 0,0 1,-0.15 2.91,-0.48 127.34,-22.48 190.61,-168.12 119.8,-276.31 C 979,406.91 957.35,359.72 969.58,324.92 Z"
         transform="translate(-120,-86.08)"
         fill="#6c63ff"
         id="path2440" />
      <path
         d="m 969.58,324.92 c 0,0 -35,76 0,138 35,62 6,236 -87,261"
         transform="translate(-120,-86.08)"
         fill="none"
         stroke="#535461"
         stroke-miterlimit="10"
         stroke-width="2"
         id="path2442" />
      <path
         d="m 1080,575.69 c 0,0 -70.75,-11.27 -77.2,52.14 -6.45,63.41 -136,72.19 -136,72.19 0,0 0.84,0.58 2.43,1.62 107,70.24 209.29,44.74 193.88,-48.53 -5.77,-34.67 -5.31,-69.5 16.89,-77.42 z"
         transform="translate(-120,-86.08)"
         fill="#6c63ff"
         id="path2444" />
      <path
         d="m 1080,575.69 c 0,0 -70.75,-11.27 -77.2,52.14 -6.45,63.41 -136,72.19 -136,72.19 0,0 0.84,0.58 2.43,1.62 107,70.24 209.29,44.74 193.88,-48.53 -5.77,-34.67 -5.31,-69.5 16.89,-77.42 z"
         transform="translate(-120,-86.08)"
         fill="#f5f5f5"
         opacity="0.2"
         id="path2446" />
      <path
         d="m 1080,575.69 c 0,0 -54.92,12.06 -50.41,62 C 1034.1,687.63 948,747.47 866.76,700"
         transform="translate(-120,-86.08)"
         fill="none"
         stroke="#535461"
         stroke-miterlimit="10"
         stroke-width="2"
         id="path2448" />
      <path
         d="m 271.4,86.16 c -8.06,-0.28 -16.32,0 -23.88,2.82 -20.57,7.67 -30.32,32.76 -27.15,54.49 3.17,21.73 16.21,40.6 29.74,57.89 13.53,17.29 28.19,34.36 35.61,55 3.7,10.31 5.43,21.86 1.67,32.15 -5.8,15.87 -23.29,24.74 -40.08,26.58 -16.79,1.84 -33.65,-1.75 -50.5,-3 -7.07,-0.5 -14.34,-0.56 -21,1.76 -7.31,2.53 -13.4,7.69 -19,13.07 -21.85,21.1 -39.34,49.9 -36.51,80.14 3.2,34.28 31.74,61.38 63,75.91 10.35,4.82 21.3,8.72 30.41,15.6 24,18.14 29.39,52.13 27,82.14 -2.39,30.01 -10.53,60.05 -6,89.8 5.33,34.6 28.92,65.85 60.74,80.45 28.35,13 63.83,12.19 89,-6.2 12.27,-9 21.55,-21.41 29.62,-34.28 a 295.87,295.87 0 0 0 29.45,-61.88 c 3.51,-10.31 6.81,-21.4 15,-28.57 5,-4.41 11.48,-6.88 17.89,-8.8 19.32,-5.78 39.67,-7.37 59.17,-12.51 19.5,-5.14 39.12,-14.72 49.72,-31.85 15,-24.31 8,-55.4 8.07,-84 0.12,-65.16 39.11,-123.5 53.5,-187 4.7,-20.76 6.45,-43.73 -4.05,-62.24 C 635.68,221 623.65,212 611,205 583.2,189.56 551.6,182.69 520.51,176 477.3,166.72 424.83,165.52 391.34,135.5 359.2,106.7 315.23,86.16 271.4,86.16 Z"
         transform="translate(-120,-86.08)"
         fill="#6c63ff"
         opacity="0.2"
         id="path2450" />
      <g
         opacity="0.5"
         id="g2454">
        <path
           style="fill:url(#linearGradient2654)"
           d="m 428.14,338.37 a 150.56,150.56 0 0 0 -7.29,-46.26 l -12,-37.21 c 0,-0.62 0,-1.23 0,-1.84 0.37,-23.85 -18.22,-35.75 -25.38,-34.46 -7.33,1.32 -27.67,-8.88 -27.67,-8.88 V 210 a 38.1,38.1 0 0 1 -3.76,-5.14 32.62,32.62 0 0 0 6.71,-46.18 14.33,14.33 0 0 0 4.83,-6.48 c 1.66,-4.67 0.39,-10 -2.31,-14.16 a 27.44,27.44 0 0 0 -4,-4.77 50.64,50.64 0 0 0 -7.46,-6.1 c -6.67,-4.62 -14,-8.59 -22,-10 a 9.16,9.16 0 0 0 -4.21,0 17.45,17.45 0 0 0 -3.41,1.84 c -5.48,3.12 -12.3,1.77 -18.62,1.44 -6.32,-0.33 -14,1.44 -16,7.37 -0.62,1.83 -0.58,3.81 -1,5.69 -1,4.6 -4.55,8.17 -7.29,12 -2.74,3.83 -4.79,9 -2.51,13.16 0.78,1.4 2,2.69 2,4.29 0,1.15 -0.68,2.18 -1,3.28 -0.69,2.5 0.61,5 2.61,6.81 a 11.09,11.09 0 0 0 3,2.29 c 3.17,1.62 6.82,2.12 10.05,3.62 a 16.51,16.51 0 0 1 4.38,3 17.22,17.22 0 0 1 4.76,12.43 l 0.67,0.07 c 0,0.2 0,0.39 0,0.59 0.7,0.08 1.44,0.15 2.17,0.18 A 33,33 0 0 0 307,200 q -0.34,1.28 -0.77,2.6 c -2.35,1.63 -21.57,14.43 -43.43,11.35 -23.33,-3.29 -36.67,98.71 -36.67,98.71 a 116.66,116.66 0 0 0 -1.26,17.62 c -0.1,15 3.05,34.63 20.6,31.74 l 9.33,-3.07 v 50.45 c 0,0 1.33,13.82 -3.33,23 -4.66,9.18 14.67,5.92 14.67,5.92 0,0 0.74,0.77 2.1,2.08 l -0.43,1.21 0.57,0.58 a 132.29,132.29 0 0 1 -10.23,25.09 l 0.55,0.28 c -0.35,0.67 -0.55,1 -0.55,1 0,0 7.18,3.67 17.06,8.4 7.94,26.84 25.32,89 19.6,100.84 l 0.16,0.34 v 0 c 1.07,2.22 7.05,15.31 5.84,27.3 -1.09,10.72 13.75,59.43 19.29,77.12 l -2.62,0.53 9.33,33.56 -2,21.72 c 0,0 -11.33,30.27 15.33,24.35 26.66,-5.92 19.33,-30.27 19.33,-30.27 l 0.67,-49.36 c 0,0 -2.57,-1.43 -5.74,-2.8 -2.18,-5.89 -6.93,-19.81 -6.93,-29.44 0,-12.5 -8.67,-66.47 -8.67,-66.47 v -0.11 -0.21 -0.06 l -0.05,-0.72 v -0.12 c 0,-0.67 -0.11,-1.59 -0.19,-2.71 v -0.06 c -1,-14.59 -4,-64.16 -1.81,-90 a 57.75,57.75 0 0 1 6,-3.58 c 6.49,16.4 23.22,60.71 22.15,79.3 -1.33,23 -0.33,4.94 0,2 0.1,-0.91 0.17,0.19 0.2,2.66 0,0.45 0,0.95 0,1.48 0,0.53 0,1.12 0,1.73 0,0.61 0,1.27 0,2 q 0,0.52 0,1.06 0,1.08 0,2.26 0,0.59 0,1.2 c 0,2 0,4.22 -0.07,6.53 q 0,0.69 0,1.4 c 0,1.41 0,2.85 -0.07,4.31 0,2 -0.08,3.94 -0.12,5.95 -0.1,4.5 -0.23,9.05 -0.39,13.31 q 0,0.71 -0.05,1.41 -0.05,1.4 -0.11,2.74 -0.06,1.34 -0.12,2.62 -0.06,1.27 -0.13,2.47 c -0.05,0.94 -0.11,1.84 -0.16,2.7 l -3.62,-0.52 -0.77,8.32 a 90.46,90.46 0 0 0 5,39 c 1.24,3.42 2.2,6.25 2.41,7.26 0.67,3.29 0,27 0,27 0,0 4,30.93 22.67,25 8.4,-2.67 12.48,-10.79 14.43,-18.93 a 46.94,46.94 0 0 0 -2.31,-28.27 c -2.65,-6.66 -5.36,-16 -3.45,-23.22 3.33,-12.5 3.33,-30.27 3.33,-30.27 l -2.06,-0.29 a 32.84,32.84 0 0 0 1.39,-3 c 0,0 -0.67,-45.41 5.33,-51.33 3.3,-3.26 3,-11.09 2,-17.49 a 119.67,119.67 0 0 1 -1,-28 c 0.41,-4.81 1,-9 1.69,-10.49 1.76,-3.48 3.52,-38.56 -4.27,-55.44 l 1.6,-0.5 -0.25,-1.24 0.25,-0.08 a 98,98 0 0 0 4,9.21 3.66,3.66 0 0 0 1.33,0.66 c 21.59,-3.79 22.46,-23.94 21.26,-34.94 0.91,0.44 1.41,0.72 1.41,0.72 l 2,-29 c 2.05,-4.63 2.81,-10.54 2.76,-16.93 0.09,-22.84 -10.87,-52.8 -10.87,-52.8 z m -23.8,82.43 c -1.48,-12.63 -3.53,-24.52 -3.53,-24.52 l -10,-35.54 V 347.8 l 15.86,59.2 z"
           transform="translate(-120,-86.08)"
           fill="url(#47567f34-21cc-4103-b039-7b07a02a692b)"
           id="path2452" />
      </g>
      <path
         d="m 359.38,614.93 -0.74,8.13 a 89.47,89.47 0 0 0 4.85,38.15 c 1.19,3.35 2.12,6.11 2.32,7.1 0.64,3.22 0,26.37 0,26.37 0,0 3.86,30.23 21.87,24.44 8.1,-2.6 12,-10.55 13.92,-18.5 A 46.44,46.44 0 0 0 399.36,673 c -2.56,-6.51 -5.18,-15.66 -3.33,-22.69 3.22,-12.22 3.22,-29.58 3.22,-29.58 z"
         transform="translate(-120,-86.08)"
         fill="#5a5773"
         id="path2456" />
      <path
         d="m 340.09,475.37 c 0,0 25.08,61.1 23.79,83.6 -1.29,22.5 -0.32,4.82 0,1.93 0.57,-5.15 0,56 -1.93,63 0,0 26.37,19.29 36.66,-6.43 0,0 -0.64,-44.37 5.14,-50.16 3.18,-3.18 2.87,-10.84 1.93,-17.09 a 118.45,118.45 0 0 1 -1,-27.33 c 0.39,-4.7 0.93,-8.84 1.63,-10.25 1.93,-3.86 3.86,-47.59 -7.72,-59.81 z"
         transform="translate(-120,-86.08)"
         fill="#605d82"
         id="path2458" />
      <path
         d="m 365.17,623.93 c 1.93,-7.07 2.5,-68.18 1.93,-63 -0.32,2.89 -1.29,20.58 0,-1.93 1.29,-22.51 -23.79,-83.6 -23.79,-83.6 l 56.11,-21.58 c -0.26,-0.33 -0.53,-0.64 -0.8,-0.93 L 340.1,475.4 c 0,0 25.08,61.1 23.79,83.6 -1.29,22.5 -0.32,4.82 0,1.93 0.57,-5.15 0,56 -1.93,63 0,0 10.53,7.7 20.88,6.88 -9.21,-0.69 -17.67,-6.88 -17.67,-6.88 z"
         transform="translate(-120,-86.08)"
         opacity="0.1"
         id="path2460" />
      <path
         d="m 318.22,673.45 9,32.8 -1.93,21.22 c 0,0 -10.93,29.58 14.79,23.79 25.72,-5.79 18.65,-29.58 18.65,-29.58 l 0.64,-48.23 c 0,0 -10.29,-5.79 -14.79,-5.14 -4.5,0.65 -26.36,5.14 -26.36,5.14 z"
         transform="translate(-120,-86.08)"
         fill="#5a5773"
         id="path2462" />
      <path
         d="m 273.85,459.94 c 0,0 29.58,95.82 22.51,110.61 0,0 7.07,14.15 5.79,27 -1.28,12.85 20.58,81.67 20.58,81.67 l 32.16,-5.79 c 0,0 -7.72,-19.29 -7.72,-31.51 0,-12.22 -8.36,-65 -8.36,-65 0,0 -7.07,-96.47 1.29,-106.76 z"
         transform="translate(-120,-86.08)"
         fill="#605d82"
         id="path2464" />
      <g
         opacity="0.1"
         id="g2472">
        <path
           d="m 337.6,478 c -5.33,21.84 0.56,102.21 0.56,102.21 0,0 8.36,52.73 8.36,65 0,9.33 4.49,22.77 6.62,28.61 l 1.74,-0.31 c 0,0 -7.72,-19.29 -7.72,-31.51 0,-12.22 -8.36,-65 -8.36,-65 0,0 -5.38,-73.45 -1.2,-99 z"
           transform="translate(-120,-86.08)"
           id="path2466" />
        <path
           d="m 296.36,570.55 0.16,0.33 c 0.05,-0.33 0.1,-0.68 0.13,-1 a 7.11,7.11 0 0 1 -0.29,0.67 z"
           transform="translate(-120,-86.08)"
           id="path2468" />
        <path
           d="m 338.64,473.32 a 9.47,9.47 0 0 1 1.45,-3.09 l -66.24,-10.29 c 0,0 0.39,1.25 1.06,3.48 z"
           transform="translate(-120,-86.08)"
           id="path2470" />
      </g>
      <path
         d="m 428.19,425.21 c 0,0 9.65,36 -19.29,41.16 a 3.52,3.52 0 0 1 -1.29,-0.64 c 0,0 -16.72,-32.8 -3.86,-45.66 z"
         transform="translate(-120,-86.08)"
         fill="#a1616a"
         id="path2474" />
      <path
         d="m 309.86,186 c 0,0 1.93,27 -19.29,39.87 -21.22,12.87 45,48.23 45,48.23 l 34.73,-55.31 c 0,0 -14.78,1.91 -23.78,-23.79 z"
         transform="translate(-120,-86.08)"
         fill="#a1616a"
         id="path2476" />
      <path
         d="m 295.71,227.78 c 0,0 32.8,68.17 62.38,3.86 L 403.75,458 c 0,0 -70.75,21.87 -71.38,32.16 C 331.74,500.45 261,463.8 261,463.8 c 0,0 15.43,-28.3 11.58,-45.66 -3.85,-17.36 23.13,-190.36 23.13,-190.36 z"
         transform="translate(-120,-86.08)"
         opacity="0.1"
         id="path2478" />
      <path
         d="m 295.71,226.49 c 0,0 32.8,68.17 62.38,3.86 l 45.66,226.37 c 0,0 -70.75,21.87 -71.38,32.16 -0.63,10.29 -71.37,-26.37 -71.37,-26.37 0,0 15.43,-28.3 11.58,-45.66 -3.85,-17.36 23.13,-190.36 23.13,-190.36 z"
         transform="translate(-120,-86.08)"
         fill="#e1e7ef"
         id="path2480" />
      <path
         d="m 327.87,691.46 c 0,0 -8.36,-18.65 10.93,-18.65 19.29,0 16.08,16.72 16.08,16.72 z"
         transform="translate(-120,-86.08)"
         fill="#5a5773"
         id="path2482" />
      <path
         d="m 371.6,643.22 c 0,0 -7.72,-19.94 11.58,-20.58 19.3,-0.64 9.65,18 9.65,18 z"
         transform="translate(-120,-86.08)"
         fill="#5a5773"
         id="path2484" />
      <path
         d="m 355.2,212 c 0,0 19.61,10 26.69,8.68 7.08,-1.32 25.72,10.93 24.44,35.37 l 11.62,36.46 a 148.9,148.9 0 0 1 7,45.21 v 0 c 0,0 16.72,46.3 7.72,66.88 l -1.93,28.3 c 0,0 -14.79,-8.36 -30.23,-5.79 L 404.4,404 387,338.39 358.06,268.29 Z"
         transform="translate(-120,-86.08)"
         opacity="0.1"
         id="path2486" />
      <path
         d="m 355.2,210.73 c 0,0 19.61,10 26.69,8.68 7.08,-1.32 25.72,10.93 24.44,35.37 l 11.62,36.46 a 148.9,148.9 0 0 1 7,45.21 v 0 c 0,0 16.72,46.3 7.72,66.88 l -1.93,28.3 c 0,0 -14.79,-8.36 -30.23,-5.79 L 404.37,402.69 387,337.1 358.09,267 Z"
         transform="translate(-120,-86.08)"
         fill="#67647e"
         id="path2488" />
      <path
         d="m 387.68,288.87 v 72.67 l 9.65,34.73 c 0,0 6.43,37.94 4.5,49.52 -1.93,11.58 -32.8,14.15 -41.16,4.5 -8.36,-9.65 -3.86,-92 -3.86,-92 l -1.61,-120.55 1.29,-3.86 z"
         transform="translate(-120,-86.08)"
         opacity="0.1"
         id="path2490" />
      <path
         d="m 389,285.66 v 72.67 l 9.65,34.73 c 0,0 6.43,37.94 4.5,49.52 -1.93,11.58 -32.8,14.15 -41.16,4.5 -8.36,-9.65 -3.86,-92 -3.86,-92 L 356.52,234.5 Z"
         transform="translate(-120,-86.08)"
         fill="#67647e"
         id="path2492" />
      <path
         d="m 259.38,346.11 20.58,64 -9.65,27.33 c 0,0 45.66,48.23 74.6,25.08 0,0 3.22,-98.4 -3.22,-121.55 -6.44,-23.15 -37.3,-101 -37.3,-101 L 298,219.42 263.92,238.71 Z"
         transform="translate(-120,-86.08)"
         opacity="0.1"
         id="path2494" />
      <path
         d="m 257.77,342.89 v 63 c 0,0 1.29,13.51 -3.22,22.51 -4.51,9 14.15,5.79 14.15,5.79 0,0 45.66,48.23 74.6,25.08 0,0 3.22,-98.4 -3.22,-121.55 -6.44,-23.15 -37.3,-101 -37.3,-101 l -6.43,-20.58 -34.08,19.29 z"
         transform="translate(-120,-86.08)"
         fill="#67647e"
         id="path2496" />
      <path
         d="m 307.61,204.95 c 0,0 -19.61,14.47 -42.12,11.25 -22.51,-3.22 -35.37,96.47 -35.37,96.47 0,0 -8.36,51.45 18.65,46.95 l 59.81,-19.94 c 0,0 -12.86,-13.51 -10.93,-30.87 l -28.95,11.57 1.3,-55.3 z"
         transform="translate(-120,-86.08)"
         opacity="0.1"
         id="path2498" />
      <path
         d="m 231.4,311.38 c 0,0 -8.36,51.45 18.65,46.95 l 59.81,-19.94 c 0,0 -12.86,-13.5 -10.93,-30.87 L 270,319.1 Z"
         transform="translate(-120,-86.08)"
         opacity="0.1"
         id="path2500" />
      <path
         d="m 297.51,314.3 c 0,0 20.07,-26.39 34.85,-13.72 14.78,12.67 -29.55,35.89 -29.55,35.89 z"
         transform="translate(-120,-86.08)"
         fill="#a1616a"
         id="path2502" />
      <path
         d="m 307.61,203.66 c 0,0 -19.61,14.47 -42.12,11.25 -22.51,-3.22 -35.37,96.47 -35.37,96.47 0,0 -8.36,51.45 18.65,46.95 l 59.81,-19.94 c 0,0 -12.86,-13.51 -10.93,-30.87 l -28.95,11.58 1.3,-55.31 32.8,-27 z"
         transform="translate(-120,-86.08)"
         fill="#67647e"
         id="path2504" />
      <path
         d="m 347.16,196.26 -36.66,-9 c 0,0 1.91,2.16 -0.32,10.61 5.9,6.77 13.15,15.76 22.83,15.76 a 32,32 0 0 0 19.22,-6.37 57.82,57.82 0 0 1 -5.07,-11 z"
         transform="translate(-120,-86.08)"
         opacity="0.1"
         id="path2506" />
      <circle
         cx="212.37"
         cy="94.110001"
         r="32.16"
         fill="#a1616a"
         id="circle2508" />
      <path
         d="m 344.56,166.23 c 7.46,-1.27 15.66,-4.58 18.16,-11.72 1.6,-4.57 0.38,-9.77 -2.23,-13.84 -2.61,-4.07 -6.45,-7.2 -10.41,-10 -6.43,-4.52 -13.52,-8.4 -21.26,-9.76 a 8.73,8.73 0 0 0 -4.06,0 16.76,16.76 0 0 0 -3.29,1.8 c -5.29,3.05 -11.87,1.73 -18,1.41 -6.13,-0.32 -13.48,1.41 -15.41,7.2 -0.6,1.79 -0.56,3.72 -1,5.56 -1,4.5 -4.39,8 -7,11.75 -2.61,3.75 -4.62,8.82 -2.42,12.86 0.75,1.37 2,2.63 2,4.19 a 13,13 0 0 1 -1,3.21 c -0.91,3.32 1.74,6.67 4.8,8.25 3.06,1.58 6.58,2.07 9.7,3.54 a 17,17 0 0 1 9.47,15.74 c 2.84,0.33 6.15,0.5 8.07,-1.62 0.86,-0.95 1.28,-2.22 2.06,-3.23 1,-1.32 2.56,-2.1 3.84,-3.16 6.73,-5.53 1.95,-13.17 5.76,-19.13 2,-3.07 5.18,-2.13 8.4,-2.08 a 74.22,74.22 0 0 0 13.82,-0.97 z"
         transform="translate(-120,-86.08)"
         opacity="0.1"
         id="path2510" />
      <path
         d="m 343.92,165.59 c 7.46,-1.27 15.66,-4.58 18.16,-11.72 1.6,-4.57 0.38,-9.77 -2.23,-13.84 -2.61,-4.07 -6.45,-7.2 -10.41,-10 -6.43,-4.52 -13.52,-8.4 -21.26,-9.76 a 8.73,8.73 0 0 0 -4.06,0 16.76,16.76 0 0 0 -3.29,1.8 c -5.29,3.05 -11.87,1.73 -18,1.41 -6.13,-0.32 -13.48,1.41 -15.41,7.2 -0.6,1.79 -0.56,3.72 -1,5.56 -1,4.5 -4.39,8 -7,11.75 -2.61,3.75 -4.62,8.82 -2.42,12.86 0.75,1.37 2,2.63 2,4.19 a 13,13 0 0 1 -1,3.21 c -0.91,3.32 1.74,6.67 4.8,8.25 3.06,1.58 6.58,2.07 9.7,3.54 a 17,17 0 0 1 9.5,15.78 c 2.84,0.33 6.15,0.5 8.07,-1.62 0.86,-0.95 1.28,-2.22 2.06,-3.23 1,-1.32 2.56,-2.1 3.84,-3.16 6.73,-5.53 1.95,-13.17 5.76,-19.13 2,-3.07 5.18,-2.13 8.4,-2.08 a 74.22,74.22 0 0 0 13.79,-1.01 z"
         transform="translate(-120,-86.08)"
         fill="#4a4347"
         id="path2512" />
      <path
         d="m 382.85,273.76 c 0,0 7.07,36.66 3.86,50.81 a 47.15,47.15 0 0 0 0.84,24.92"
         transform="translate(-120,-86.08)"
         opacity="0.1"
         id="path2514" />
      <path
         d="m 268.56,289.19 c 0,0 -3.08,24.44 2.05,29.58"
         transform="translate(-120,-86.08)"
         opacity="0.1"
         id="path2516" />
      <path
         d="m 448.13,590.38 a 1.5,1.5 0 0 0 0,-3 1.5,1.5 0 0 0 0,3 z"
         transform="translate(-120,-86.08)"
         id="path2518" />
      <g
         opacity="0.5"
         id="g2522">
        <path
           style="fill:url(#9327c94c-6e79-4ecb-b0e2-b824d910a5fb)"
           d="M 910,415.63 V 414.8 L 637.16,205 a 1,1 0 0 0 -1.19,0 L 363.12,414.8 V 740 h 0.52 v 0.52 h 546.89 v -325.2 z"
           transform="translate(-120,-86.08)"
           fill="url(#9327c94c-6e79-4ecb-b0e2-b824d910a5fb)"
           id="path2520" />
      </g>
      <polygon
         points="516.58,127.85 780.58,330.85 780.58,644.85 252.58,644.85 252.58,330.85 "
         fill="#ffffff"
         id="polygon2524" />
      <polygon
         points="516.58,146.45 761.58,334.84 761.58,626.24 271.58,626.24 271.58,334.84 "
         fill="#e0e0e0"
         id="polygon2526" />
      <rect
         x="465.57999"
         y="260.92001"
         width="309"
         height="393"
         transform="rotate(-14.69,226.22777,879.8679)"
         fill="#6c63ff"
         id="rect2528" />
      <rect
         x="363.57999"
         y="199.85001"
         width="309"
         height="393"
         fill="#f5f5f5"
         id="rect2530" />
      <polygon
         points="519.08,488.35 255.08,645.35 255.08,331.35 "
         opacity="0.05"
         id="polygon2532" />
      <polygon
         points="517.08,488.35 253.08,645.35 253.08,331.35 "
         fill="#ffffff"
         id="polygon2534" />
      <polygon
         points="515.08,488.35 779.08,645.35 779.08,331.35 "
         opacity="0.05"
         id="polygon2536" />
      <polygon
         points="517.08,488.35 781.08,645.35 781.08,331.35 "
         fill="#ffffff"
         id="polygon2538" />
      <polygon
         points="517.08,434.35 781.08,640.35 253.08,640.35 "
         opacity="0.05"
         id="polygon2540" />
      <polygon
         points="517.08,439.35 781.08,645.35 253.08,645.35 "
         fill="#ffffff"
         id="polygon2542" />
      <path
         d="m 426.73,755.28 c 0,0 -13.26,-45 2.49,-78.14 a 71.09,71.09 0 0 0 5.75,-44.6 119.57,119.57 0 0 0 -6.31,-20.93"
         transform="translate(-120,-86.08)"
         fill="none"
         stroke="#535461"
         stroke-miterlimit="10"
         stroke-width="2"
         id="path2544" />
      <path
         d="m 438.45,590.67 c 0,5.52 -10,21.51 -10,21.51 0,0 -10,-16 -10,-21.51 a 10,10 0 1 1 20,0 z"
         transform="translate(-120,-86.08)"
         fill="#6c63ff"
         id="path2546" />
      <path
         d="m 455,621.23 c -3,4.63 -20.08,12.63 -20.08,12.63 0,0 0.31,-18.86 3.31,-23.49 A 10,10 0 0 1 455,621.23 Z"
         transform="translate(-120,-86.08)"
         fill="#6c63ff"
         id="path2548" />
      <path
         d="m 454.24,673.44 c -4.93,2.48 -23.71,0.77 -23.71,0.77 0,0 9.79,-16.12 14.71,-18.6 a 10,10 0 1 1 9,17.84 z"
         transform="translate(-120,-86.08)"
         fill="#6c63ff"
         id="path2550" />
      <path
         d="m 444.8,712.83 c -4.44,3.28 -23.24,4.76 -23.24,4.76 0,0 6.92,-17.54 11.36,-20.82 a 10,10 0 0 1 11.88,16.06 z"
         transform="translate(-120,-86.08)"
         fill="#6c63ff"
         id="path2552" />
      <path
         d="m 413.91,634.92 c 4,3.84 22.39,7.83 22.39,7.83 0,0 -4.51,-18.31 -8.47,-22.15 a 10,10 0 0 0 -13.92,14.33 z"
         transform="translate(-120,-86.08)"
         fill="#6c63ff"
         id="path2554" />
      <path
         d="m 403.45,681.13 c 4.93,2.48 23.71,0.77 23.71,0.77 0,0 -9.79,-16.12 -14.71,-18.6 a 10,10 0 0 0 -9,17.84 z"
         transform="translate(-120,-86.08)"
         fill="#6c63ff"
         id="path2556" />
      <path
         d="m 399.45,727.43 c 4.44,3.28 23.24,4.76 23.24,4.76 0,0 -6.92,-17.54 -11.36,-20.82 a 10,10 0 1 0 -11.88,16.06 z"
         transform="translate(-120,-86.08)"
         fill="#6c63ff"
         id="path2558" />
      <rect
         x="381.57999"
         y="217.85001"
         width="124"
         height="10"
         fill="#6c63ff"
         opacity="0.5"
         id="rect2560" />
      <rect
         x="381.57999"
         y="257.85001"
         width="268"
         height="10"
         fill="#6c63ff"
         opacity="0.5"
         id="rect2562" />
      <rect
         x="381.57999"
         y="283.85001"
         width="268"
         height="10"
         fill="#6c63ff"
         opacity="0.5"
         id="rect2564" />
      <rect
         x="381.57999"
         y="309.85001"
         width="268"
         height="10"
         fill="#6c63ff"
         opacity="0.4"
         id="rect2566" />
      <rect
         x="381.57999"
         y="335.85001"
         width="268"
         height="10"
         fill="#6c63ff"
         opacity="0.4"
         id="rect2568" />
      <rect
         x="381.57999"
         y="361.85001"
         width="153"
         height="10"
         fill="#6c63ff"
         opacity="0.3"
         id="rect2570" />
      <rect
         x="381.57999"
         y="387.85001"
         width="209"
         height="10"
         fill="#6c63ff"
         opacity="0.3"
         id="rect2572" />
    </g>
    <text
       id="text2658"
       y="12.400702"
       x="93.337807"
       style="font-style:normal;font-weight:normal;font-size:10.5833px;line-height:1.25;font-family:sans-serif;letter-spacing:0px;word-spacing:0px;fill:#000000;fill-opacity:1;stroke:none;stroke-width:0.264583"
       xml:space="preserve"><tspan
         style="font-style:normal;font-variant:normal;font-weight:normal;font-stretch:normal;font-family:'Playfair Display';-inkscape-font-specification:'Playfair Display';stroke-width:0.264583"
         y="12.400702"
         x="93.337807"
         id="tspan2656"
         sodipodi:role="line">Join our Newsletter</tspan></text>
    <text
       transform="translate(-10.368114,2.4648989)"
       id="text2662"
       y="24.588507"
       x="66.02227"
       style="font-style:normal;font-weight:normal;font-size:10.5833px;line-height:1.25;font-family:sans-serif;letter-spacing:0px;word-spacing:0px;white-space:pre;inline-size:166.041;fill:#000000;fill-opacity:1;stroke:none;stroke-width:0.264583"
       xml:space="preserve" />
    <text
       transform="translate(-0.49178643,0.52916667)"
       id="text2666"
       y="23.887768"
       x="61.25338"
       style="font-style:normal;font-weight:normal;font-size:5.64444px;line-height:1.25;font-family:sans-serif;letter-spacing:0px;word-spacing:0px;white-space:pre;inline-size:164.162;fill:#000000;fill-opacity:1;stroke:none;stroke-width:0.264583"
       xml:space="preserve"><tspan
         x="61.25338"
         y="23.887768"><tspan
           style="font-style:normal;font-variant:normal;font-weight:normal;font-stretch:normal;font-size:5.64444px;font-family:Poppins;-inkscape-font-specification:Poppins;stroke-width:0.264583">Join over 1500 Python developers, never miss an update</tspan></tspan></text>
  </g>
</svg>
