<?xml version="1.0" encoding="utf-8"?>
<!-- Generator: Adobe Illustrator 23.0.1, SVG Export Plug-In . SVG Version: 6.00 Build 0)  -->
<svg version="1.1" id="Layer_1" xmlns="http://www.w3.org/2000/svg" xmlns:xlink="http://www.w3.org/1999/xlink" x="0px" y="0px"
	 viewBox="0 0 524.31 520.47" style="enable-background:new 0 0 524.31 520.47;" xml:space="preserve">
<style type="text/css">
	.st0{fill:#2C3E50;stroke:#2C3E50;stroke-width:4.0658;stroke-miterlimit:10;}
</style>
<path class="st0" d="M477.36,434.2c21.33,0,38.68-17.35,38.68-38.67V124.28c0-21.32-17.35-38.67-38.68-38.67h-36.51V36.62
	c0-16.39-13.33-29.73-29.73-29.73H112.73c-16.39,0-29.73,13.33-29.73,29.73v48.99H46.5c-21.33,0-38.68,17.35-38.68,38.67v271.25
	c0,21.32,17.35,38.67,38.68,38.67h170.53l-23.6,62.62h-24.17c-5.04,0-9.15,4.1-9.15,9.15s4.1,9.15,9.15,9.15h185.33
	c5.04,0,9.15-4.1,9.15-9.15s-4.1-9.15-9.15-9.15h-24.16l-23.6-62.62H477.36z M440.85,103.9h36.51c11.24,0,20.38,9.14,20.38,20.38
	v201.17h-56.89V103.9z M101.3,36.62c0-6.3,5.13-11.43,11.44-11.43h298.38c6.3,0,11.43,5.13,11.43,11.43v288.83H101.3V36.62z
	 M26.11,124.28c0-11.24,9.14-20.38,20.38-20.38h36.51v221.55H26.11V124.28z M46.5,415.9c-11.24,0-20.38-9.14-20.38-20.38v-51.78
	h471.63v51.78c0,11.24-9.14,20.38-20.38,20.38H46.5z M310.88,496.81h-97.9l23.6-62.62h50.71L310.88,496.81z"/>
<path class="st0" d="M274.93,369.82h-26c-5.04,0-9.15,4.1-9.15,9.15s4.1,9.15,9.15,9.15h26c5.04,0,9.15-4.1,9.15-9.15
	S279.97,369.82,274.93,369.82z"/>
<path class="st0" d="M381.78,63.39H143.09c-5.04,0-9.15,4.1-9.15,9.15v88.37c0,5.04,4.1,9.15,9.15,9.15h238.68
	c5.04,0,9.15-4.1,9.15-9.15V72.54c0-2.45-0.95-4.74-2.68-6.47C386.52,64.35,384.22,63.39,381.78,63.39z M372.63,151.77H152.24V81.69
	h220.38V151.77z"/>
<path class="st0" d="M231.44,202.58h-88.34c-5.04,0-9.15,4.1-9.15,9.15c0,5.04,4.1,9.15,9.15,9.15h88.34c5.04,0,9.15-4.1,9.15-9.15
	C240.58,206.68,236.48,202.58,231.44,202.58z"/>
<path class="st0" d="M381.78,202.58h-89.36c-5.04,0-9.15,4.1-9.15,9.15c0,5.04,4.1,9.15,9.15,9.15h89.36c5.04,0,9.15-4.1,9.15-9.15
	C390.93,206.68,386.82,202.58,381.78,202.58z"/>
<path class="st0" d="M381.78,253.39H143.09c-5.04,0-9.15,4.1-9.15,9.15c0,5.04,4.1,9.15,9.15,9.15h238.68c5.04,0,9.15-4.1,9.15-9.15
	C390.92,257.49,386.82,253.39,381.78,253.39z"/>
</svg>
