<?xml version="1.0" encoding="utf-8"?>
<!-- Generator: Adobe Illustrator 23.0.1, SVG Export Plug-In . SVG Version: 6.00 Build 0)  -->
<svg version="1.1" id="Capa_1" xmlns="http://www.w3.org/2000/svg" xmlns:xlink="http://www.w3.org/1999/xlink" x="0px" y="0px"
	 viewBox="-49 141 512 512" style="enable-background:new -49 141 512 512;" xml:space="preserve">
<style type="text/css">
	.st0{fill:#6C8DAF;}
</style>
<path class="st0" d="M403,181h-24v-20c0-11.05-8.95-20-20-20h0c-11.05,0-20,8.95-20,20v20H75v-20c0-11.05-8.95-20-20-20h0
	c-11.05,0-20,8.95-20,20v20H11c-33.14,0-60,26.86-60,60v352c0,33.14,26.86,60,60,60h392c33.14,0,60-26.86,60-60V241
	C463,207.86,436.14,181,403,181z M11,221h24v20c0,11.05,8.95,20,20,20h0c11.05,0,20-8.95,20-20v-20h264v20c0,11.05,8.95,20,20,20h0
	c11.05,0,20-8.95,20-20v-20h24c11.05,0,20,8.95,20,20v48H-9v-48C-9,229.95-0.05,221,11,221z M403,613H11c-11.05,0-20-8.95-20-20V329
	h432v264C423,604.05,414.05,613,403,613z"/>
<path class="st0" d="M47,371L47,371c11.05,0,20,8.95,20,20v0c0,11.05-8.95,20-20,20h0c-11.05,0-20-8.95-20-20v0
	C27,379.95,35.95,371,47,371z"/>
<path class="st0" d="M127,371L127,371c11.05,0,20,8.95,20,20v0c0,11.05-8.95,20-20,20h0c-11.05,0-20-8.95-20-20v0
	C107,379.95,115.95,371,127,371z"/>
<path class="st0" d="M207,371L207,371c11.05,0,20,8.95,20,20v0c0,11.05-8.95,20-20,20h0c-11.05,0-20-8.95-20-20v0
	C187,379.95,195.95,371,207,371z"/>
<path class="st0" d="M287,371L287,371c11.05,0,20,8.95,20,20v0c0,11.05-8.95,20-20,20h0c-11.05,0-20-8.95-20-20v0
	C267,379.95,275.95,371,287,371z"/>
<path class="st0" d="M367,371L367,371c11.05,0,20,8.95,20,20v0c0,11.05-8.95,20-20,20h0c-11.05,0-20-8.95-20-20v0
	C347,379.95,355.95,371,367,371z"/>
<path class="st0" d="M47,451L47,451c11.05,0,20,8.95,20,20v0c0,11.05-8.95,20-20,20h0c-11.05,0-20-8.95-20-20v0
	C27,459.95,35.95,451,47,451z"/>
<path class="st0" d="M127,451L127,451c11.05,0,20,8.95,20,20v0c0,11.05-8.95,20-20,20h0c-11.05,0-20-8.95-20-20v0
	C107,459.95,115.95,451,127,451z"/>
<path class="st0" d="M207,451L207,451c11.05,0,20,8.95,20,20v0c0,11.05-8.95,20-20,20h0c-11.05,0-20-8.95-20-20v0
	C187,459.95,195.95,451,207,451z"/>
<path class="st0" d="M287,451L287,451c11.05,0,20,8.95,20,20v0c0,11.05-8.95,20-20,20h0c-11.05,0-20-8.95-20-20v0
	C267,459.95,275.95,451,287,451z"/>
<path class="st0" d="M47,531L47,531c11.05,0,20,8.95,20,20l0,0c0,11.05-8.95,20-20,20h0c-11.05,0-20-8.95-20-20l0,0
	C27,539.95,35.95,531,47,531z"/>
<path class="st0" d="M127,531L127,531c11.05,0,20,8.95,20,20l0,0c0,11.05-8.95,20-20,20h0c-11.05,0-20-8.95-20-20l0,0
	C107,539.95,115.95,531,127,531z"/>
<path class="st0" d="M207,531L207,531c11.05,0,20,8.95,20,20l0,0c0,11.05-8.95,20-20,20h0c-11.05,0-20-8.95-20-20l0,0
	C187,539.95,195.95,531,207,531z"/>
<path class="st0" d="M287,531L287,531c11.05,0,20,8.95,20,20l0,0c0,11.05-8.95,20-20,20h0c-11.05,0-20-8.95-20-20l0,0
	C267,539.95,275.95,531,287,531z"/>
<path class="st0" d="M367,451L367,451c11.05,0,20,8.95,20,20v0c0,11.05-8.95,20-20,20h0c-11.05,0-20-8.95-20-20v0
	C347,459.95,355.95,451,367,451z"/>
</svg>
