<?xml version="1.0" encoding="utf-8"?>
<!-- Generator: Adobe Illustrator 23.0.1, SVG Export Plug-In . SVG Version: 6.00 Build 0)  -->
<svg version="1.1" id="Layer_1" xmlns="http://www.w3.org/2000/svg" xmlns:xlink="http://www.w3.org/1999/xlink" x="0px" y="0px"
	 viewBox="0 0 554.46 520.47" style="enable-background:new 0 0 554.46 520.47;" xml:space="preserve">
<style type="text/css">
	.st0{fill:#FFFFFF;stroke:#FFFFFF;stroke-width:3.9729;stroke-miterlimit:10;}
</style>
<g>
	<path class="st0" d="M387.9,458.29c-4.85-1.23-9.75,1.74-10.96,6.57l-9.04,36.16c-1.22,4.86,1.73,9.76,6.58,10.97
		c0.73,0.19,1.47,0.27,2.2,0.27c4.05,0,7.73-2.74,8.76-6.84l9.04-36.16C395.7,464.41,392.75,459.51,387.9,458.29L387.9,458.29z
		 M387.9,458.29"/>
	<path class="st0" d="M277.23,277.21c1.17,0,2.35-0.22,3.45-0.68l99.45-41.15c4.61-1.91,6.8-7.2,4.89-11.81
		c-1.91-4.62-7.22-6.79-11.82-4.9l-95.97,39.72L24.09,153.65v-3c0-4.99-4.05-9.04-9.04-9.04c-4.99,0-9.04,4.05-9.04,9.04v9.04
		c0,3.66,2.2,6.96,5.59,8.35l262.17,108.49C274.87,276.99,276.05,277.21,277.23,277.21L277.23,277.21z M277.23,277.21"/>
	<path class="st0" d="M384.78,369.83c-2.21-4.47-7.61-6.32-12.11-4.1c-17.17,8.49-45.85,18.36-86.4,19.7v-81.1
		c0-4.99-4.05-9.04-9.04-9.04c-4.99,0-9.04,4.05-9.04,9.04v81.02c-112.26-3.58-148.48-71.58-153.69-82.9v-61.4
		c0-4.99-4.05-9.04-9.04-9.04c-4.99,0-9.04,4.05-9.04,9.04v63.28c0,1.15,0.22,2.29,0.64,3.36c1.57,3.92,40.05,96.08,180.17,96.08
		c48.97,0,83.29-11.88,103.45-21.84C385.16,379.72,387,374.31,384.78,369.83L384.78,369.83z M384.78,369.83"/>
	<path class="st0" d="M412.83,467.07c-5,0-9.04,4.05-9.04,9.04v27.12c0,4.99,4.04,9.04,9.04,9.04c5,0,9.04-4.05,9.04-9.04V476.1
		C421.88,471.12,417.84,467.07,412.83,467.07L412.83,467.07z M412.83,467.07"/>
	<path class="st0" d="M539.4,141.61c-5,0-9.04,4.05-9.04,9.04v2.98l-108.48,44.65v-16.34l120.98-50.07
		c3.38-1.39,5.59-4.69,5.59-8.35c0-3.66-2.21-6.95-5.58-8.35L280.68,6.68c-2.21-0.91-4.69-0.91-6.91,0L11.6,115.17
		c-3.38,1.4-5.59,4.69-5.59,8.35c0,3.66,2.2,6.96,5.59,8.36l262.17,108.48c1.11,0.46,2.28,0.69,3.46,0.69
		c1.17,0,2.35-0.23,3.46-0.69l94.8-39.23c4.62-1.9,6.81-7.19,4.9-11.8c-1.91-4.61-7.2-6.79-11.81-4.89l-91.34,37.79l-238.53-98.7
		l238.53-98.71l238.53,98.71l-103.8,42.95l-99.41-37.12c0.52-1.88,0.84-3.81,0.84-5.83c0-15.21-15.88-27.12-36.16-27.12
		c-20.28,0-36.16,11.91-36.16,27.12c0,15.2,15.88,27.12,36.16,27.12c9.05,0,17.12-2.47,23.4-6.45l103.17,38.52v222.72
		c-10.5,3.75-18.08,13.69-18.08,25.46c0,14.96,12.17,27.12,27.12,27.12c14.96,0,27.12-12.17,27.12-27.12
		c0-11.77-7.58-21.71-18.08-25.46v-51.31c25.95-19.6,35.26-45.68,35.66-46.84c0.33-0.95,0.5-1.95,0.5-2.95v-63.29
		c0-4.99-4.04-9.04-9.04-9.04c-5,0-9.04,4.05-9.04,9.04v61.62c-1.56,3.83-7,15.65-18.08,27.31V217.83l120.97-49.78
		c3.39-1.39,5.6-4.7,5.6-8.37v-9.04C548.45,145.66,544.4,141.61,539.4,141.61L539.4,141.61z M277.23,132.56
		c-11.04,0-18.08-5.35-18.08-9.04c0-3.69,7.05-9.04,18.08-9.04c11.04,0,18.08,5.35,18.08,9.04
		C295.31,127.21,288.27,132.56,277.23,132.56L277.23,132.56z M412.83,439.94c-4.99,0-9.04-4.06-9.04-9.04
		c0-4.98,4.05-9.04,9.04-9.04c4.99,0,9.04,4.05,9.04,9.04C421.88,435.88,417.83,439.94,412.83,439.94L412.83,439.94z M412.83,439.94
		"/>
	<path class="st0" d="M448.72,464.87c-1.21-4.84-6.13-7.79-10.96-6.57c-4.85,1.21-7.79,6.12-6.58,10.97l9.04,36.16
		c1.03,4.1,4.71,6.84,8.76,6.84c0.72,0,1.46-0.08,2.2-0.27c4.85-1.21,7.79-6.11,6.58-10.97L448.72,464.87z M448.72,464.87"/>
</g>
</svg>
