<?xml version="1.0" encoding="utf-8"?>
<!-- Generator: Adobe Illustrator 23.0.1, SVG Export Plug-In . SVG Version: 6.00 Build 0)  -->
<svg version="1.1" id="Layer_1" xmlns="http://www.w3.org/2000/svg" xmlns:xlink="http://www.w3.org/1999/xlink" x="0px" y="0px"
	 viewBox="0 0 593.54 481" style="enable-background:new 0 0 593.54 481;" xml:space="preserve">
<style type="text/css">
	.st0{fill:#2C3E50;}
</style>
<path class="st0" d="M201.8,277.71c0,0-26.3,0.02-26.58,0.05c-3.26,0.22-6.46,1.56-8.95,4.05l-79.03,79.03
	c0,0-0.02-70.01-0.07-70.37c-0.63-7.15-6.63-12.75-13.94-12.75H33.42c-2.99,0-5.42-2.43-5.42-5.42V33.42c0-2.99,2.43-5.42,5.42-5.42
	h398.16c2.99,0,5.42,2.43,5.42,5.42v91.65c0,7.73,6.27,14,14,14c7.73,0,14-6.27,14-14V33.42C465.01,14.99,450.01,0,431.58,0H33.42
	C14.99,0,0,14.99,0,33.42V272.3c0,18.43,14.99,33.42,33.42,33.42h25.82v88.93c0,5.66,3.41,10.77,8.64,12.94
	c1.73,0.72,3.55,1.07,5.36,1.07c3.64,0,7.22-1.42,9.9-4.1l98.83-98.83h19.83c7.73,0,14-6.27,14-14
	C215.8,283.98,209.53,277.71,201.8,277.71z"/>
<path class="st0" d="M560.12,171.26H281.42c-18.43,0-33.42,14.99-33.42,33.42v162.96c0,18.43,14.99,33.42,33.42,33.42H455.9
	l70.69,70.69c2.68,2.68,6.26,4.1,9.9,4.1c1.8,0,3.62-0.35,5.36-1.07c5.23-2.17,8.64-7.27,8.64-12.94v-60.79h9.62
	c18.43,0,33.42-14.99,33.42-33.42V204.69C593.54,186.26,578.55,171.26,560.12,171.26z M565.54,367.64c0,2.99-2.43,5.42-5.42,5.42
	H536.5c-7.37,0-13.39,5.69-13.95,12.92c-0.04,0.31-0.06,42.07-0.06,42.07l-50.84-50.84c-0.05-0.05-0.11-0.1-0.16-0.16
	c-0.2-0.19-0.39-0.36-0.57-0.52c-2.46-2.16-5.68-3.48-9.22-3.48H281.42c-2.99,0-5.42-2.43-5.42-5.42V204.69
	c0-2.99,2.43-5.42,5.42-5.42h278.71c2.99,0,5.42,2.43,5.42,5.42V367.64z"/>
<path class="st0" d="M420.77,272.16c-7.73,0-14,6.27-14,14c0,7.73,6.27,14,14,14c7.73,0,14-6.27,14-14S428.5,272.16,420.77,272.16z"
	/>
<path class="st0" d="M105.09,92.57c-7.73,0-14,6.27-14,14s6.27,14,14,14h254.83c7.73,0,14-6.27,14-14s-6.27-14-14-14L105.09,92.57z"
	/>
<path class="st0" d="M201.8,185.14h-96.71c-7.73,0-14,6.27-14,14s6.27,14,14,14h96.71c7.73,0,14-6.27,14-14
	C215.8,191.41,209.53,185.14,201.8,185.14z"/>
<path class="st0" d="M355.71,272.16c-7.73,0-14,6.27-14,14c0,7.73,6.27,14,14,14c7.73,0,14-6.27,14-14S363.44,272.16,355.71,272.16z
	"/>
<path class="st0" d="M485.82,272.16c-7.73,0-14,6.27-14,14c0,7.73,6.27,14,14,14c7.73,0,14-6.27,14-14S493.55,272.16,485.82,272.16z
	"/>
</svg>
