<?xml version="1.0" encoding="utf-8"?>
<!-- Generator: Adobe Illustrator 23.0.1, SVG Export Plug-In . SVG Version: 6.00 Build 0)  -->
<svg version="1.1" id="Ñëîé_1" xmlns="http://www.w3.org/2000/svg" xmlns:xlink="http://www.w3.org/1999/xlink" x="0px" y="0px"
	 viewBox="0 0 737.01 553.32" style="enable-background:new 0 0 737.01 553.32;" xml:space="preserve">
<style type="text/css">
	.st0{fill:#D4554E;}
	.st1{fill:url(#SVGID_1_);}
	.st2{fill:#2B343F;}
	.st3{fill:#6CBB9C;}
	.st4{fill:#93C9B2;}
	.st5{fill:#FFFFFF;}
	.st6{fill:#5F9B81;}
	.st7{fill:#354050;}
	.st8{fill:#B2BDD8;}
	.st9{fill:#F4F4F4;}
	.st10{opacity:0.8;fill:#FF5757;}
	.st11{fill:url(#SVGID_2_);}
	.st12{fill:#919DB5;}
	.st13{opacity:0.5;}
	.st14{clip-path:url(#SVGID_4_);fill:#FFFFFF;}
	.st15{fill:#FF5757;}
	.st16{fill:#FF7676;}
	.st17{fill:#E38481;}
	.st18{opacity:0.5;fill:#919DB5;}
	.st19{fill:url(#SVGID_5_);}
	.st20{fill:#D7D7E2;}
	.st21{fill:url(#SVGID_6_);}
	.st22{fill:#D7DBE2;}
	.st23{fill:#F4AE92;}
	.st24{fill:#E2B698;}
	.st25{fill:#EABD9B;}
	.st26{fill:#061230;}
	.st27{fill:#CE3E3E;}
</style>
<g>
	<path class="st0" d="M678.11,311.7c0.05-0.08,0.1-0.16,0.15-0.24C678.21,311.54,678.15,311.62,678.11,311.7z"/>
	<linearGradient id="SVGID_1_" gradientUnits="userSpaceOnUse" x1="691.3286" y1="413.1535" x2="691.3286" y2="385.1407">
		<stop  offset="0.1682" style="stop-color:#E3E5EB"/>
		<stop  offset="1" style="stop-color:#D7DBE2"/>
	</linearGradient>
	<ellipse class="st1" cx="691.33" cy="399.15" rx="32.9" ry="14.01"/>
	<path class="st2" d="M721.04,338.67c0,4.99-13.63,9.04-30.44,9.04c-16.81,0-31.39-3.57-31.39-8.56c0-4.99,14.58-9.51,31.39-9.51
		C707.41,329.63,721.04,333.67,721.04,338.67z"/>
	<path class="st3" d="M685.84,356.27c5.71-19.03-2.28-46.75-5.2-55.57c-3.8-11.46-3.22-23.87-5.21-35.78
		c-2.32-13.89-8.08-26.93-13.8-39.8c-4.08,21.41,0.99,43.36,5.63,64.66c4.63,21.29,3.36,41.75,10.02,64.59"/>
	<path class="st3" d="M699,350.85c7.18-7.42,8.69-18.64,8.25-28.95c-0.44-10.31-2.43-20.69-0.77-30.88
		c1.25-7.64,4.5-14.8,6.51-22.28c3.17-11.76,3.23-24.11,3.27-36.29c-4.88,8.08-9.07,16.58-12.49,25.37
		c-3.48,8.95-6.17,18.18-8.85,27.39c-1.78,6.12-3.57,12.3-4.03,18.65c-0.62,8.64,1.25,17.24,1.89,25.88s-0.16,17.92-5.36,24.85"/>
	<g>
		<g>
			<path class="st4" d="M691.55,281.11c0-29.49-9.51-63.74-19.17-80.07c-2.42,15.03,7.75,42.97,7.41,77.44
				c-0.29,28.56,8.79,58.11,8.56,81C697.36,334.38,691.55,307.81,691.55,281.11z"/>
		</g>
	</g>
	<path class="st5" d="M716.29,233.54c-2.84,9.09-5.4,18.27-7.82,27.48l-7.19,27.66c-0.64,2.31-1.28,4.57-1.74,6.9
		c-0.47,2.32-0.82,4.66-1.06,7.02c-0.5,4.72-0.56,9.47-0.57,14.23c-0.01,4.76,0.11,9.53-0.09,14.3c-0.24,4.75-0.78,9.57-2.45,14.05
		c1.46-4.55,1.9-9.32,1.98-14.07c0.11-4.75-0.09-9.51-0.17-14.28c-0.1-4.77-0.02-9.55,0.44-14.32c0.23-2.38,0.57-4.76,1.03-7.11
		c0.45-2.36,1.1-4.68,1.71-6.97c2.52-9.18,4.83-18.42,7.41-27.6C710.33,251.65,713.07,242.51,716.29,233.54z"/>
	<path class="st5" d="M661.58,226.41c0.59,4.97,1.4,9.91,2.33,14.83c0.91,4.92,1.9,9.82,2.92,14.72c2.04,9.8,4.11,19.6,5.86,29.47
		c0.87,4.94,1.53,9.92,2.24,14.86c0.71,4.95,1.53,9.89,2.3,14.83c1.52,9.89,3.38,19.75,4.32,29.73c-0.63-4.97-1.52-9.89-2.41-14.82
		l-2.64-14.79c-0.88-4.93-1.67-9.88-2.43-14.83c-0.74-4.96-1.44-9.9-2.31-14.83c-1.67-9.86-3.76-19.65-5.64-29.49
		C664.27,246.26,662.4,236.39,661.58,226.41z"/>
	<path class="st6" d="M672.76,201.91c2.82,11.8,5.68,23.57,8.31,35.43c1.22,5.95,2.08,11.97,2.84,17.99
		c0.74,6.03,1.33,12.07,1.73,18.13c0.35,6.06,0.5,12.17,0.12,18.23c-0.13,3-0.02,6.03,0.16,9.05c0.17,3.02,0.44,6.04,0.71,9.05
		c0.56,6.03,1.26,12.06,1.87,18.09c0.58,6.04,1.16,12.09,1.15,18.16c-0.15-6.07-0.88-12.09-1.61-18.11
		c-0.71-6.02-1.49-12.03-2.14-18.07c-0.32-3.02-0.63-6.04-0.8-9.07c-0.2-3.03-0.33-6.08-0.21-9.13c0.36-6.05,0.17-12.09-0.2-18.13
		c-0.36-6.04-0.93-12.07-1.64-18.09c-0.71-6.01-1.59-12.01-2.7-17.96L672.76,201.91z"/>
	<g>
		<path class="st6" d="M717.58,275.59c-3.44,17.3-9.93,29.22-14.17,44.06c-2.27,7.96-4.31,18.09-2,26.04l4.73-1.29
			c0.57-9.21,6.02-17.27,9.53-25.8C721.26,305.05,721.94,289.56,717.58,275.59z"/>
	</g>
	<g>
		<path class="st6" d="M671.14,317.64c-4.54-9.47-9.12-19.82-7.06-30.13c-3.71,5.13-4.82,11.79-4.21,18.09
			c0.61,6.3,2.8,12.33,5.2,18.19c3.24,7.91,6.96,16.49,4.57,24.7l9.06-0.79C680.42,337.34,675.68,327.12,671.14,317.64z"/>
	</g>
	<path class="st5" d="M717.39,276.11c0.8,3.1,1.02,6.35,0.86,9.56c-0.21,3.21-0.81,6.39-1.62,9.5c-1.66,6.22-4.25,12.13-6.81,17.98
		c-1.3,2.92-2.56,5.85-3.64,8.84c-1.08,2.99-1.91,6.06-2.45,9.19c-0.54,3.13-0.76,6.31-0.67,9.5c0.05,3.19,0.48,6.36,1.13,9.49
		c-1.73-6.16-2.12-12.72-1.19-19.1c0.9-6.41,3.4-12.44,5.94-18.29c2.64-5.83,5.18-11.69,6.98-17.8
		C717.7,288.89,718.62,282.43,717.39,276.11z"/>
	<path class="st5" d="M663.72,287.77c-2,5.02-1.98,10.53-1.01,15.73c0.51,2.61,1.12,5.21,1.97,7.73c0.84,2.53,1.86,5,2.9,7.46
		c2.02,4.94,4.29,9.89,5.39,15.2c0.56,2.64,0.88,5.33,1.04,8.01c0.11,2.69,0.1,5.38-0.06,8.06c-0.08-5.36-0.42-10.73-1.69-15.91
		c-1.22-5.18-3.45-10.06-5.55-15c-1.02-2.48-2.02-4.98-2.85-7.56c-0.82-2.57-1.47-5.2-1.87-7.88c-0.41-2.67-0.57-5.39-0.35-8.09
		c0.14-1.35,0.37-2.68,0.7-3.99C662.68,290.25,663.15,288.98,663.72,287.77z"/>
	<path class="st7" d="M713.43,399.08c0,0-7.14,7.14-23.31,7.14c-16.17,0-21.41-7.14-21.41-7.14l-9.51-60.89
		c0,0,9.51,7.61,32.35,7.61c18.08,0,29.49-7.61,29.49-7.61L713.43,399.08z"/>
</g>
<circle class="st8" cx="161.57" cy="194.59" r="13.97"/>
<circle class="st9" cx="307.54" cy="15.99" r="8.73"/>
<circle class="st10" cx="40.8" cy="165.49" r="9.67"/>
<linearGradient id="SVGID_2_" gradientUnits="userSpaceOnUse" x1="95.3277" y1="433.215" x2="95.3277" y2="402.1369">
	<stop  offset="0.1682" style="stop-color:#E3E5EB"/>
	<stop  offset="1" style="stop-color:#D7DBE2"/>
</linearGradient>
<ellipse class="st11" cx="95.33" cy="417.68" rx="65.51" ry="15.54"/>
<path class="st8" d="M152.32,400.64c0,15.04-26.23,27.21-58.61,27.21c-31.75,0-57.6-11.72-58.56-26.36
	c-0.05-0.28-0.05-0.58-0.05-0.86v-0.02c-0.13-2.85,0.81-5.75,2.75-8.42c14.24-19.73,27.29-40.62,39.74-61.48v-49.64
	c-3.05-1.46-5.14-4.69-5.14-8.57c0-3.23,1.44-6.22,3.68-8.16c3-3.1,9.73-5.27,17.51-5.27c7.53,0,14.04,2.02,17.21,4.96
	c0.03,0,0.08,0.03,0.1,0.1c2.37,1.92,3.91,5.01,3.91,8.37c0,3.88-2.09,7.11-5.14,8.57v49.64c12.45,20.86,25.53,41.75,39.74,61.48
	c0.1,0.18,0.23,0.33,0.33,0.5c0.25,0.38,0.48,0.76,0.71,1.13c0.23,0.43,0.45,0.86,0.66,1.29c0.28,0.68,0.53,1.36,0.68,2.04
	C152.17,398.3,152.32,399.46,152.32,400.64z"/>
<ellipse class="st12" cx="93.04" cy="267.67" rx="14.11" ry="6.55"/>
<g class="st13">
	<defs>
		<ellipse id="SVGID_3_" class="st13" cx="93.04" cy="267.67" rx="14.11" ry="6.55"/>
	</defs>
	<clipPath id="SVGID_4_">
		<use xlink:href="#SVGID_3_"  style="overflow:visible;"/>
	</clipPath>
	<path class="st14" d="M95.09,273.89c0,0.77-0.62,1.39-1.39,1.39c-0.77,0-1.39-0.62-1.39-1.39c0-0.77,0.62-1.39,1.39-1.39
		C94.47,272.5,95.09,273.12,95.09,273.89z"/>
</g>
<path class="st15" d="M146.36,398.86l-0.07-0.22l-0.05-0.23c-0.06-0.29-0.23-0.72-0.34-0.99c-0.14-0.3-0.29-0.57-0.36-0.7
	c-0.17-0.28-0.33-0.56-0.52-0.84c0,0-0.27-0.41-0.33-0.5c-7.33-10.19-14.66-21.05-22.58-33.53c0.29,0.58,0.47,1.17,0.47,1.77
	c0,5.61-12.95,10.16-28.92,10.16c-15.97,0-28.92-4.55-28.92-10.16c0-0.68,0.2-1.34,0.56-1.98c-6.96,10.96-14.64,22.55-22.84,33.92
	c-1.16,1.59-1.73,3.25-1.66,4.81l0.01,0.33l0.04,0.43c0.65,9.94,22.52,21.01,52.86,21.01c30.28,0,52.9-11.35,52.9-21.5
	C146.6,399.98,146.52,399.4,146.36,398.86z"/>
<path class="st0" d="M123.84,361.27c0.25,0.39,0.5,0.78,0.74,1.17C124.38,362.04,124.13,361.65,123.84,361.27z"/>
<path class="st16" d="M93.67,373.79c15.97,0,28.92-4.55,28.92-10.16c0-0.61-0.18-1.2-0.47-1.77c-0.18-0.28-0.36-0.56-0.54-0.85
	c-3.29-4.34-14.52-7.54-27.91-7.54c-13.84,0-25.4,3.42-28.24,7.98c-0.04,0.07-0.08,0.13-0.12,0.2c-0.36,0.64-0.56,1.3-0.56,1.98
	C64.75,369.24,77.7,373.79,93.67,373.79z"/>
<circle class="st10" cx="89.32" cy="259.54" r="3.23"/>
<path class="st17" d="M95.48,366.46c0,0.92-0.75,1.67-1.67,1.67c-0.92,0-1.67-0.75-1.67-1.67s0.75-1.67,1.67-1.67
	C94.73,364.79,95.48,365.54,95.48,366.46z"/>
<path class="st17" d="M105.33,366.76c0,1.12-0.9,2.02-2.02,2.02c-1.12,0-2.02-0.9-2.02-2.02c0-1.12,0.9-2.02,2.02-2.02
	C104.43,364.74,105.33,365.64,105.33,366.76z"/>
<path class="st18" d="M94.02,349.22c0,2.59-2.1,4.69-4.69,4.69s-4.69-2.1-4.69-4.69c0-2.59,2.1-4.69,4.69-4.69
	S94.02,346.63,94.02,349.22z"/>
<circle class="st16" cx="88.04" cy="333.63" r="2.97"/>
<path class="st16" d="M95.01,299.68c0,1.28-1.04,2.32-2.32,2.32s-2.32-1.04-2.32-2.32s1.04-2.32,2.32-2.32S95.01,298.4,95.01,299.68
	z"/>
<path class="st5" d="M101.02,327.93c0,1.09-0.89,1.98-1.98,1.98c-1.09,0-1.98-0.89-1.98-1.98c0-1.09,0.89-1.98,1.98-1.98
	C100.14,325.96,101.02,326.84,101.02,327.93z"/>
<path class="st5" d="M97.98,186.97c0,2.83-2.3,5.13-5.13,5.13c-2.83,0-5.13-2.3-5.13-5.13c0-2.83,2.3-5.13,5.13-5.13
	C95.68,181.84,97.98,184.14,97.98,186.97z"/>
<path class="st5" d="M99.15,267.54c0,0.53-0.43,0.96-0.96,0.96c-0.53,0-0.96-0.43-0.96-0.96c0-0.53,0.43-0.96,0.96-0.96
	C98.72,266.57,99.15,267.01,99.15,267.54z"/>
<path class="st5" d="M92.76,317.05c0,0.75-0.61,1.36-1.36,1.36s-1.36-0.61-1.36-1.36c0-0.75,0.61-1.36,1.36-1.36
	S92.76,316.3,92.76,317.05z"/>
<path class="st5" d="M55.68,314.17c0,0.62-0.5,1.11-1.11,1.11c-0.61,0-1.11-0.5-1.11-1.11c0-0.61,0.5-1.11,1.11-1.11
	C55.18,313.05,55.68,313.55,55.68,314.17z"/>
<path class="st18" d="M109.06,280.7c-4.11,1.94-9.83,3.15-16.16,3.15c-5.9,0-11.25-1.06-15.29-2.77v3.09
	c-0.01,0-0.02-0.01-0.04-0.01v46.55c-12.45,20.86-25.5,41.75-39.74,61.48c-1.94,2.67-2.87,5.57-2.75,8.42v0.02
	c0,0.28,0,0.58,0.05,0.86c0.29,4.46,2.91,8.65,7.28,12.32c-1.32-2.13-2.1-4.37-2.25-6.68c-0.05-0.28-0.05-0.58-0.05-0.86v-0.03
	c-0.13-2.85,0.81-5.75,2.75-8.42c14.24-19.73,27.29-40.62,39.74-61.48v-51.02c2.2,0.33,4.53,0.53,6.98,0.53
	C97.88,285.86,105.11,283.79,109.06,280.7z"/>
<linearGradient id="SVGID_5_" gradientUnits="userSpaceOnUse" x1="406.5796" y1="477.3223" x2="406.5796" y2="405.3925">
	<stop  offset="0.1682" style="stop-color:#E9EBF1"/>
	<stop  offset="1" style="stop-color:#D7DBE2"/>
</linearGradient>
<ellipse class="st19" cx="406.58" cy="441.36" rx="179.2" ry="35.96"/>
<g>
	<path class="st9" d="M370.48,363.39c0,0,1.43,22.35-3.38,37.76c-7.9,25.33-30.03,27.99-30.03,41.45c0,0.25,139.02,0.31,139.02,0
		c0-12.84-20.96-16.92-28.24-40.52c-5.46-17.68-2.3-38.68-2.3-38.68H370.48z"/>
	<rect x="337.09" y="442.37" class="st20" width="139" height="6.14"/>
</g>
<linearGradient id="SVGID_6_" gradientUnits="userSpaceOnUse" x1="406.5795" y1="429.4863" x2="406.5795" y2="350.0692">
	<stop  offset="0.1682" style="stop-color:#FFFFFF"/>
	<stop  offset="1" style="stop-color:#D7DBE2"/>
</linearGradient>
<path class="st21" d="M370.48,363.39c0,0,1.43,22.35-3.38,37.76c-7.9,25.33-30.03,27.99-30.03,41.45c0,0.25,139.02,0.31,139.02,0
	c0-12.84-20.96-16.92-28.24-40.52c-5.46-17.68-2.3-38.68-2.3-38.68H370.48z"/>
<rect x="337.09" y="442.37" class="st20" width="139" height="6.14"/>
<g>
	<path class="st9" d="M651.9,361.12c0,8.25-6.75,15-15,15H176.92c-8.25,0-15-6.75-15-15V55.87c0-8.25,6.75-15,15-15H636.9
		c8.25,0,15,6.75,15,15V361.12z"/>
</g>
<path class="st22" d="M626.05,324.71H187.77c-2.58,0-4.67-2.09-4.67-4.67V67.81c0-2.58,2.09-4.67,4.67-4.67h438.28
	c2.58,0,4.67,2.09,4.67,4.67v252.23C630.72,322.62,628.63,324.71,626.05,324.71z"/>
<circle class="st22" cx="406.58" cy="350.5" r="11.05"/>
<path class="st5" d="M265.3,104.44h-27.32c-0.98,0-1.78-0.88-1.78-1.96c0-1.08,0.8-1.96,1.78-1.96h27.32c0.98,0,1.78,0.88,1.78,1.96
	C267.08,103.56,266.28,104.44,265.3,104.44z"/>
<path class="st15" d="M280.04,147.55h31.64c1.05,0,1.91-0.86,1.91-1.91l0,0c0-1.05-0.86-1.91-1.91-1.91h-31.64
	c-1.05,0-1.91,0.86-1.91,1.91l0,0C278.13,146.7,278.99,147.55,280.04,147.55z"/>
<path class="st15" d="M382.72,133.78h25.73c1.05,0,1.91-0.86,1.91-1.91l0,0c0-1.05-0.86-1.91-1.91-1.91h-25.73
	c-1.05,0-1.91,0.86-1.91,1.91l0,0C380.82,132.92,381.68,133.78,382.72,133.78z"/>
<path class="st3" d="M472.27,241.58h46.71c1.05,0,1.91-0.86,1.91-1.91l0,0c0-1.05-0.86-1.91-1.91-1.91h-46.71
	c-1.05,0-1.91,0.86-1.91,1.91l0,0C470.36,240.72,471.22,241.58,472.27,241.58z"/>
<path class="st7" d="M335.97,104.44H275.4c-0.98,0-1.78-0.88-1.78-1.96c0-1.08,0.8-1.96,1.78-1.96h60.58c0.98,0,1.78,0.88,1.78,1.96
	C337.75,103.56,336.96,104.44,335.97,104.44z"/>
<path class="st3" d="M444.06,104.44h-94.43c-0.98,0-1.78-0.88-1.78-1.96c0-1.08,0.8-1.96,1.78-1.96h94.43
	c0.98,0,1.78,0.88,1.78,1.96C445.84,103.56,445.04,104.44,444.06,104.44z"/>
<path class="st5" d="M281.33,118.16h-43.35c-0.98,0-1.78-0.88-1.78-1.96s0.8-1.96,1.78-1.96h43.35c0.98,0,1.78,0.88,1.78,1.96
	S282.32,118.16,281.33,118.16z"/>
<path class="st5" d="M357.35,118.16h-65.92c-0.98,0-1.78-0.88-1.78-1.96s0.8-1.96,1.78-1.96h65.92c0.98,0,1.78,0.88,1.78,1.96
	S358.34,118.16,357.35,118.16z"/>
<path class="st7" d="M447.62,118.16h-77.21c-0.98,0-1.78-0.88-1.78-1.96s0.8-1.96,1.78-1.96h77.21c0.98,0,1.78,0.88,1.78,1.96
	S448.61,118.16,447.62,118.16z"/>
<path class="st5" d="M284.6,133.83h-32.37c-0.98,0-1.78-0.88-1.78-1.96c0-1.08,0.8-1.96,1.78-1.96h32.37c0.98,0,1.78,0.88,1.78,1.96
	C286.38,132.96,285.58,133.83,284.6,133.83z"/>
<path class="st7" d="M370.42,133.83H294.4c-0.98,0-1.78-0.88-1.78-1.96c0-1.08,0.8-1.96,1.78-1.96h76.02c0.98,0,1.78,0.88,1.78,1.96
	C372.2,132.96,371.4,133.83,370.42,133.83z"/>
<path class="st5" d="M262.33,147.55h-10.09c-0.98,0-1.78-0.88-1.78-1.96c0-1.08,0.8-1.96,1.78-1.96h10.09
	c0.98,0,1.78,0.88,1.78,1.96C264.11,146.68,263.31,147.55,262.33,147.55z"/>
<path class="st5" d="M419.43,147.55h-88.44c-0.98,0-1.78-0.88-1.78-1.96c0-1.08,0.8-1.96,1.78-1.96h88.44
	c0.98,0,1.78,0.88,1.78,1.96C421.21,146.68,420.41,147.55,419.43,147.55z"/>
<path class="st7" d="M474.31,147.55h-41.42c-0.98,0-1.78-0.88-1.78-1.96c0-1.08,0.8-1.96,1.78-1.96h41.42
	c0.98,0,1.78,0.88,1.78,1.96C476.09,146.68,475.29,147.55,474.31,147.55z"/>
<path class="st5" d="M272.77,163.23h-20.53c-0.98,0-1.78-0.88-1.78-1.96c0-1.08,0.8-1.96,1.78-1.96h20.53
	c0.98,0,1.78,0.88,1.78,1.96C274.55,162.36,273.75,163.23,272.77,163.23z"/>
<path class="st7" d="M331.37,163.23h-47.66c-0.98,0-1.78-0.88-1.78-1.96c0-1.08,0.8-1.96,1.78-1.96h47.66
	c0.98,0,1.78,0.88,1.78,1.96C333.15,162.36,332.35,163.23,331.37,163.23z"/>
<path class="st7" d="M426.69,163.23h-84.63c-0.98,0-1.78-0.88-1.78-1.96c0-1.08,0.8-1.96,1.78-1.96h84.63
	c0.98,0,1.78,0.88,1.78,1.96C428.47,162.36,427.67,163.23,426.69,163.23z"/>
<path class="st5" d="M283.18,178.91h-20.41c-0.98,0-1.78-0.88-1.78-1.96c0-1.08,0.8-1.96,1.78-1.96h20.41
	c0.98,0,1.78,0.88,1.78,1.96C284.96,178.04,284.17,178.91,283.18,178.91z"/>
<path class="st7" d="M352.3,178.91h-61.58c-0.98,0-1.78-0.88-1.78-1.96c0-1.08,0.8-1.96,1.78-1.96h61.58c0.98,0,1.78,0.88,1.78,1.96
	C354.09,178.04,353.29,178.91,352.3,178.91z"/>
<path class="st15" d="M387.05,178.91h-21.38c-0.98,0-1.78-0.88-1.78-1.96c0-1.08,0.8-1.96,1.78-1.96h21.38
	c0.98,0,1.78,0.88,1.78,1.96C388.83,178.04,388.03,178.91,387.05,178.91z"/>
<path class="st5" d="M283.18,194.59h-20.41c-0.98,0-1.78-0.88-1.78-1.96c0-1.08,0.8-1.96,1.78-1.96h20.41
	c0.98,0,1.78,0.88,1.78,1.96C284.96,193.71,284.17,194.59,283.18,194.59z"/>
<path class="st5" d="M342.06,194.59h-51.34c-0.98,0-1.78-0.88-1.78-1.96c0-1.08,0.8-1.96,1.78-1.96h51.34
	c0.98,0,1.78,0.88,1.78,1.96C343.84,193.71,343.04,194.59,342.06,194.59z"/>
<path class="st7" d="M391.5,194.59h-38.31c-0.98,0-1.78-0.88-1.78-1.96c0-1.08,0.8-1.96,1.78-1.96h38.31c0.98,0,1.78,0.88,1.78,1.96
	C393.28,193.71,392.48,194.59,391.5,194.59z"/>
<path class="st5" d="M283.18,210.27h-20.41c-0.98,0-1.78-0.88-1.78-1.96c0-1.08,0.8-1.96,1.78-1.96h20.41
	c0.98,0,1.78,0.88,1.78,1.96C284.96,209.39,284.17,210.27,283.18,210.27z"/>
<path class="st5" d="M314.89,210.27h-24.17c-0.98,0-1.78-0.88-1.78-1.96c0-1.08,0.8-1.96,1.78-1.96h24.17
	c0.98,0,1.78,0.88,1.78,1.96C316.67,209.39,315.87,210.27,314.89,210.27z"/>
<path class="st7" d="M483.85,210.27h-99.03c-0.98,0-1.78-0.88-1.78-1.96c0-1.08,0.8-1.96,1.78-1.96h99.03
	c0.98,0,1.78,0.88,1.78,1.96C485.63,209.39,484.84,210.27,483.85,210.27z"/>
<path class="st3" d="M370.57,210.27h-44.99c-0.98,0-1.78-0.88-1.78-1.96c0-1.08,0.8-1.96,1.78-1.96h44.99
	c0.98,0,1.78,0.88,1.78,1.96C372.35,209.39,371.55,210.27,370.57,210.27z"/>
<path class="st5" d="M308.65,225.95h-17.82c-0.98,0-1.78-0.88-1.78-1.96c0-1.08,0.8-1.96,1.78-1.96h17.82
	c0.98,0,1.78,0.88,1.78,1.96C310.43,225.07,309.64,225.95,308.65,225.95z"/>
<path class="st5" d="M362.1,225.95h-44.06c-0.98,0-1.78-0.88-1.78-1.96c0-1.08,0.8-1.96,1.78-1.96h44.06c0.98,0,1.78,0.88,1.78,1.96
	C363.88,225.07,363.09,225.95,362.1,225.95z"/>
<path class="st7" d="M417.34,225.95h-44.99c-0.98,0-1.78-0.88-1.78-1.96c0-1.08,0.8-1.96,1.78-1.96h44.99
	c0.98,0,1.78,0.88,1.78,1.96C419.12,225.07,418.32,225.95,417.34,225.95z"/>
<path class="st7" d="M462.55,241.63h-74.99c-0.98,0-1.78-0.88-1.78-1.96c0-1.08,0.8-1.96,1.78-1.96h74.99
	c0.98,0,1.78,0.88,1.78,1.96C464.34,240.75,463.54,241.63,462.55,241.63z"/>
<path class="st5" d="M303.75,241.63h-12.92c-0.98,0-1.78-0.88-1.78-1.96c0-1.08,0.8-1.96,1.78-1.96h12.92
	c0.98,0,1.78,0.88,1.78,1.96C305.54,240.75,304.74,241.63,303.75,241.63z"/>
<path class="st5" d="M339.05,241.63h-28.11c-0.93,0-1.68-0.88-1.68-1.96c0-1.08,0.75-1.96,1.68-1.96h28.11
	c0.93,0,1.68,0.88,1.68,1.96C340.72,240.75,339.97,241.63,339.05,241.63z"/>
<path class="st5" d="M379.7,241.63h-31.18c-0.98,0-1.78-0.88-1.78-1.96c0-1.08,0.8-1.96,1.78-1.96h31.18c0.98,0,1.78,0.88,1.78,1.96
	C381.48,240.75,380.68,241.63,379.7,241.63z"/>
<path class="st5" d="M310.7,257.31h-19.87c-0.98,0-1.78-0.88-1.78-1.96c0-1.08,0.8-1.96,1.78-1.96h19.87c0.98,0,1.78,0.88,1.78,1.96
	C312.49,256.43,311.69,257.31,310.7,257.31z"/>
<path class="st5" d="M372.55,257.31h-53.56c-0.98,0-1.78-0.88-1.78-1.96c0-1.08,0.8-1.96,1.78-1.96h53.56
	c0.98,0,1.78,0.88,1.78,1.96C374.33,256.43,373.53,257.31,372.55,257.31z"/>
<path class="st15" d="M461.32,257.31h-16.81c-0.98,0-1.78-0.88-1.78-1.96c0-1.08,0.8-1.96,1.78-1.96h16.81
	c0.98,0,1.78,0.88,1.78,1.96C463.1,256.43,462.3,257.31,461.32,257.31z"/>
<path class="st5" d="M433.82,257.31h-50.33c-0.98,0-1.78-0.88-1.78-1.96c0-1.08,0.8-1.96,1.78-1.96h50.33
	c0.98,0,1.78,0.88,1.78,1.96C435.6,256.43,434.8,257.31,433.82,257.31z"/>
<path class="st5" d="M310.7,272.99h-19.87c-0.98,0-1.78-0.88-1.78-1.96s0.8-1.96,1.78-1.96h19.87c0.98,0,1.78,0.88,1.78,1.96
	S311.69,272.99,310.7,272.99z"/>
<path class="st7" d="M362.1,272.99h-44.06c-0.98,0-1.78-0.88-1.78-1.96s0.8-1.96,1.78-1.96h44.06c0.98,0,1.78,0.88,1.78,1.96
	S363.09,272.99,362.1,272.99z"/>
<path class="st7" d="M493.5,272.99h-68.59c-0.98,0-1.78-0.88-1.78-1.96s0.8-1.96,1.78-1.96h68.59c0.98,0,1.78,0.88,1.78,1.96
	S494.49,272.99,493.5,272.99z"/>
<path class="st7" d="M413.77,272.99h-44.1c-0.98,0-1.78-0.88-1.78-1.96s0.8-1.96,1.78-1.96h44.1c0.98,0,1.78,0.88,1.78,1.96
	S414.76,272.99,413.77,272.99z"/>
<path class="st5" d="M310.7,288.67h-19.87c-0.98,0-1.78-0.88-1.78-1.96c0-1.08,0.8-1.96,1.78-1.96h19.87c0.98,0,1.78,0.88,1.78,1.96
	C312.49,287.79,311.69,288.67,310.7,288.67z"/>
<path class="st5" d="M220.29,104.44h-7.13c-0.98,0-1.78-0.88-1.78-1.96c0-1.08,0.8-1.96,1.78-1.96h7.13c0.98,0,1.78,0.88,1.78,1.96
	C222.07,103.56,221.27,104.44,220.29,104.44z"/>
<path class="st5" d="M220.29,118.16h-7.13c-0.98,0-1.78-0.88-1.78-1.96s0.8-1.96,1.78-1.96h7.13c0.98,0,1.78,0.88,1.78,1.96
	S221.27,118.16,220.29,118.16z"/>
<path class="st5" d="M220.29,133.83h-7.13c-0.98,0-1.78-0.88-1.78-1.96c0-1.08,0.8-1.96,1.78-1.96h7.13c0.98,0,1.78,0.88,1.78,1.96
	C222.07,132.96,221.27,133.83,220.29,133.83z"/>
<path class="st5" d="M220.29,147.55h-7.13c-0.98,0-1.78-0.88-1.78-1.96c0-1.08,0.8-1.96,1.78-1.96h7.13c0.98,0,1.78,0.88,1.78,1.96
	C222.07,146.68,221.27,147.55,220.29,147.55z"/>
<path class="st5" d="M220.29,163.23h-7.13c-0.98,0-1.78-0.88-1.78-1.96c0-1.08,0.8-1.96,1.78-1.96h7.13c0.98,0,1.78,0.88,1.78,1.96
	C222.07,162.36,221.27,163.23,220.29,163.23z"/>
<path class="st5" d="M220.29,178.91h-7.13c-0.98,0-1.78-0.88-1.78-1.96c0-1.08,0.8-1.96,1.78-1.96h7.13c0.98,0,1.78,0.88,1.78,1.96
	C222.07,178.04,221.27,178.91,220.29,178.91z"/>
<path class="st5" d="M220.29,194.59h-7.13c-0.98,0-1.78-0.88-1.78-1.96c0-1.08,0.8-1.96,1.78-1.96h7.13c0.98,0,1.78,0.88,1.78,1.96
	C222.07,193.71,221.27,194.59,220.29,194.59z"/>
<path class="st5" d="M220.29,210.27h-7.13c-0.98,0-1.78-0.88-1.78-1.96c0-1.08,0.8-1.96,1.78-1.96h7.13c0.98,0,1.78,0.88,1.78,1.96
	C222.07,209.39,221.27,210.27,220.29,210.27z"/>
<path class="st5" d="M220.29,225.95h-7.13c-0.98,0-1.78-0.88-1.78-1.96c0-1.08,0.8-1.96,1.78-1.96h7.13c0.98,0,1.78,0.88,1.78,1.96
	C222.07,225.07,221.27,225.95,220.29,225.95z"/>
<path class="st5" d="M220.29,241.63h-7.13c-0.98,0-1.78-0.88-1.78-1.96c0-1.08,0.8-1.96,1.78-1.96h7.13c0.98,0,1.78,0.88,1.78,1.96
	C222.07,240.75,221.27,241.63,220.29,241.63z"/>
<path class="st5" d="M220.29,257.31h-7.13c-0.98,0-1.78-0.88-1.78-1.96c0-1.08,0.8-1.96,1.78-1.96h7.13c0.98,0,1.78,0.88,1.78,1.96
	C222.07,256.43,221.27,257.31,220.29,257.31z"/>
<path class="st5" d="M220.29,272.99h-7.13c-0.98,0-1.78-0.88-1.78-1.96s0.8-1.96,1.78-1.96h7.13c0.98,0,1.78,0.88,1.78,1.96
	S221.27,272.99,220.29,272.99z"/>
<path class="st5" d="M220.29,288.67h-7.13c-0.98,0-1.78-0.88-1.78-1.96c0-1.08,0.8-1.96,1.78-1.96h7.13c0.98,0,1.78,0.88,1.78,1.96
	C222.07,287.79,221.27,288.67,220.29,288.67z"/>
<path class="st15" d="M346.17,288.67h-26.43c-0.98,0-1.78-0.88-1.78-1.96c0-1.08,0.8-1.96,1.78-1.96h26.43
	c0.98,0,1.78,0.88,1.78,1.96C347.95,287.79,347.15,288.67,346.17,288.67z"/>
<path class="st3" d="M419.78,288.67H355.2c-0.98,0-1.78-0.88-1.78-1.96c0-1.08,0.8-1.96,1.78-1.96h64.59c0.98,0,1.78,0.88,1.78,1.96
	C421.57,287.79,420.77,288.67,419.78,288.67z"/>
<path class="st7" d="M570.93,497.29c4.6,10,3.41,14.67,3.41,14.67s-4.89,3.5-13.79,4.09c-10.17,0.67-13.03-1.53-13.03-1.53
	s-0.92-3.61,2.64-4.6c5.19-1.45,11.86-2.49,12.91-3.23c1.41-0.98,0.31-3.48-1.94-9.58C564.4,497.17,567.66,497.23,570.93,497.29z"/>
<path class="st23" d="M570.93,497.29c1.63,3.53,2.52,6.39,3.01,8.62c-1.82,1.02-4.03,1.62-6.41,1.62c-2.01,0-2.73-0.13-4.36-0.87
	c0.81-1.47-0.15-4.44-2.04-9.55C564.4,497.17,567.66,497.23,570.93,497.29z"/>
<path class="st2" d="M574.43,513.24c0.38-0.21-0.04-2.51-0.04-2.51s-4.39,3.07-15.24,4.04c-3.25,0.29-11.62-0.43-11.62-0.43
	s-0.21,1.4,0.43,1.7c0.83,0.39,4.17,1.08,11.58,0.85C567.7,516.65,572.79,514.15,574.43,513.24z"/>
<path class="st2" d="M553.68,405.39c0.3,0.42,0.61,0.85,0.91,1.27c-2.79,10.54-5.59,25.85-4.72,44.31
	c0.99,21.02,7.7,41.67,12.09,52.43c3.07,1.79,9.84,0.77,12.65-0.64c0-8.72-6.44-35.76-7.48-43.8c-0.99-7.6,1.97-18.97,3.09-23.25
	C564.7,425.61,559.19,415.5,553.68,405.39z"/>
<path class="st24" d="M559.49,305.23c-1.91-5.21-4.4-9.76-6.74-15.26c-1.49-3.53-3.58-8.05-5.11-11.37c0.56-1.97,1.6-5.61,1.15-9.45
	c-0.67-5.74-2.51-8.3-4.3-9.24c-0.78,2.86,2.3,10.35-1.26,10.72c-0.93,0.1-2.02-5.2-2.63-5.09c-0.39,0.08-0.43,2.35,0,5.99
	c0.97,8.32,3.01,13.12,4.81,19.25c3.72,12.64,2.63,17.78,5.81,18.8C552.55,310.01,555.02,309.85,559.49,305.23z"/>
<path class="st7" d="M605.93,510.39c1.53,2,3.07,5.71,1.49,8.79c-2.49,4.85-14.77,4-9.9,12.45c0.05,0.08,6.91,0.22,11.82-4.34
	c4.81-4.48,12.49-1.83,12.35-7.59c-0.08-3.13-5.61-10.31-6.18-14.04C613.57,506.41,607.88,509.64,605.93,510.39z"/>
<path class="st25" d="M557.29,313.7c-0.51-1.58-1.98-6.12,0.54-10.35c2.63-4.42,7.64-5.2,9.26-5.45c0.9-0.14,8.1-1.26,10.9,2.72
	c3.15,4.47-1.59,12.04-4.9,15.53c-1.57,1.66-5.79,6.1-10.08,4.9C559.33,320.02,557.86,315.48,557.29,313.7z"/>
<path class="st2" d="M569.84,299.33c-2.78-4,2.71-8.47,2.71-8.47s2.49,2.6,5.9,3.94c4.52,1.77,8.38,7.27,8.73,12.1
	c0.42,5.85-2.29,11.83-7.23,14.47c-3.74,2-9.19,1.4-10.71,1.3c-1.01-0.95-1.48-2.68-1.57-4.81c-0.16-3.76,4.03-5.41,4.9-9.63
	C572.95,306.41,572.84,303.51,569.84,299.33z"/>
<path class="st25" d="M546.78,316.58c-8.56-10.85-11.55-20.3-12.71-26.88c-1.96-11.09-2.51-19.96-7.92-34.22
	c-0.94-2.47-0.6-3.28-1.43-4.34c-0.91-0.77-4.73-5.62-3.64-6.77c0.16-0.17,1.5,2.58,2.85,2.3c1.62-0.34,2.29-3.47,1.75-6.13
	c-0.77-3.77-0.63-5.96,0.13-6.19c0.87-0.27,2.18,0.94,3.38,4.6c1.66,5.05-0.09,9.93,0.13,10.79c1.66,6.71,5.98,16.21,14.74,35.61
	c2.51,5.56,6.06,13.05,10.72,21.79C552.11,310.28,549.44,313.43,546.78,316.58z"/>
<path class="st23" d="M615.51,505.66c0.34,2.23,2.44,5.68,4.1,8.77c-2.36,2.35-5.9,3.85-9.86,3.85c-0.66,0-1.3-0.05-1.93-0.13
	c0.84-2.84-0.53-5.98-1.89-7.76C607.88,509.64,613.57,506.41,615.51,505.66z"/>
<path class="st7" d="M578.2,390.86c1.3,3.85,4,5.63,6.17,13.26c4.36,15.26,3.39,31.09,8.17,43.77c4.52,11.96,6.82,11.73,14.17,27.24
	c6.42,13.56,11.46,28.07,13.53,35.55c-4.01,2.86-9.53,5.08-14.82,5.11c-10.39-22.17-22.01-41.8-29.22-53.56
	c-7.7-12.54-14.35-22.12-19.8-37.59c-4.75-13.5-6.42-25.36-7.08-33.42C558.52,391.04,569,391.04,578.2,390.86z"/>
<path class="st3" d="M554.95,303.87c-5.94,2.61-9.49,9.51-10.72,12.71c1.5,2.85,3.88,4.89,6.54,7.08
	c-4.53,6.67-6.66,11.39-8.62,20.21c-4.69,21.05,2.95,45.61,5.96,54.92c7.92,0.91,14.53,0.36,20.18-0.51
	c4.72-0.72,11.92-2.04,13.71-3.83c-3.91-14.79-3.72-27.68-3.63-35.37c0.14-10.61,0.56-19.47,0.73-25.79
	c0.07-2.64-1.59-7.09-4.42-10.37c-2.85-3.29-5.04-2.99-8.47-4.71C562.4,316.32,555.69,308.96,554.95,303.87z"/>
<g>
	<path class="st25" d="M569.92,312.09c0.44-0.68,1.51-0.76,2.13-0.25c0.63,0.51,0.81,1.45,0.54,2.21c-0.26,0.76-0.9,1.36-1.61,1.73
		c-0.77,0.4-1.67,0.56-2.51,0.36c-0.84-0.2-1.6-0.8-1.9-1.61"/>
</g>
<path class="st2" d="M621.67,518.99c0,0,1.13,3.17,0.51,4.15c-0.45,0.7-6.26,4.09-11.3,6.2c-3,1.25-11.56,3.83-12.52,3.51
	c-0.58-0.19-1.34-2.04-1.34-2.04s9.96-3.07,13.09-4.47C618.09,522.76,621.67,518.99,621.67,518.99z"/>
<path class="st6" d="M546.76,350.97c0.2-8.87,2.49-20.37,4.12-27.19c-0.1,0.06-0.2,0.13-0.3,0.19c-4.39,6.5-6.48,11.22-8.41,19.9
	c-4.69,21.05,2.95,45.61,5.96,54.92c3.7,0.43,7.1,0.52,10.27,0.43C553.22,387.22,546.3,371.51,546.76,350.97z"/>
<path class="st7" d="M330.23,297.83l-25.68,50.89h-74.44l24.31-48.19c0.75-1.48,0.15-3.28-1.33-4.03h0
	c-1.48-0.75-3.28-0.15-4.03,1.33l-106.4,210.84c-0.75,1.48-0.15,3.28,1.33,4.03l0,0c1.48,0.75,3.28,0.15,4.03-1.33l17.79-35.26
	h74.44l-16.43,32.55c-0.75,1.48-0.15,3.28,1.33,4.03v0c1.48,0.75,3.28,0.15,4.03-1.33l106.4-210.84c0.75-1.48,0.15-3.28-1.33-4.03h0
	C332.78,295.76,330.98,296.35,330.23,297.83z M301.52,354.72l-15.94,31.58h-74.44l15.94-31.58H301.52z M282.56,392.3l-16.78,33.25
	h-74.44l16.78-33.25H282.56z M168.85,470.12l19.46-38.57h74.44l-19.46,38.57H168.85z"/>
<path class="st24" d="M260.35,172.5c0.45-2.13-1.33-4.93,2.48-6.39c-0.72-1.14-0.57-3.93-5.55-5.69c-5.36-1.9-9.94-0.31-11.14,0.15
	c0.36,0.86,0.95,2.59,0.75,4.79c-0.27,2.94-2.87,5.65-3.48,6.36C248.72,171.79,255.04,172.43,260.35,172.5z"/>
<path class="st25" d="M268.31,143.79c2.21,0.37,2.07,6.75,2,10.98c-0.08,4.87-1.71,10.75-5.24,12.6c-1.89,0.99-3.72,0.55-5.54-1.09
	c-8.6-7.74-3.29-15.42,0.03-18.71C261.01,146.12,265.86,143.37,268.31,143.79z"/>
<path class="st15" d="M236.84,340.54c-0.21,1.45,1.05,3.42,0.22,5.61c-1.57,4.15-0.64,5.66-0.22,5.95
	c3.59,2.47,9.01-0.13,13.49-1.63c5.41-1.8,14.25-4.49,14.25-4.49s0.45-1.17-0.34-2.86c-0.67-1.46-5.92-0.64-9.46-0.67
	c-2.16-0.02-3.96-0.07-5.72-1.23c-1.27-0.83-1.02-2.26-1.46-3.03C244.69,338.82,239.76,339.91,236.84,340.54z"/>
<path class="st15" d="M277.06,342.11c0.79,2.8-2.38,8.07,0.56,10.88c2.58,2.47,7.29,0.11,12.79-0.9c7.2-1.32,9.45-1.13,11.33-3.25
	c1.68-1.89,3.07-3.91,2-5.27c-0.69-0.88-3.1-1.8-7.04-1.57c-4.17,0.24-5.5,1.4-7.17,0.74c-1.85-0.72-2.46-2.73-3.15-3.88
	C283.38,340.01,280.05,340.95,277.06,342.11z"/>
<path class="st25" d="M226.4,203.35c-0.37,3.81,0.45,8.75-0.07,13.76c-0.45,4.33,1.27,8.34,2.32,11.37
	c3.25,9.35,3.96,10.84,6.43,15.55c1.85,3.52-0.07,5.46,1.2,9.57c1,3.25,2.77,6.18,5.16,6.26c3.07-2.02,1.05-5.22,1.07-12.83
	c0.01-3.37-0.74-5.51-1.9-8.08c-0.8-1.78-3.38-12.25-4.03-18.86c-0.6-6.06,1.55-10.86,2.47-12.64
	C234.95,206.22,230.49,204.6,226.4,203.35z"/>
<path class="st7" d="M270.44,133.37c-3.81-5.16-11.48-5.26-15.4-3.99c-7.55,2.43-9.92,9.79-9.92,9.79s-3.78,1.36-4.74,4.49
	c-1.37,4.48,0.09,8.02,3.26,12.01c1.69,2.13,1.39,8.16,3.48,9.44c1.62,1,5.63-0.19,8.36-1.25c0.14-1.54,0.17-5.17-0.06-6.44
	c-0.27-1.52,2.61-5.25,3.25-5.98c1.5-1.72,3.77-2.25,5.38-2.73c3.37-1.01,6.45-3.43,7.89-6.3
	C272.43,141.42,273.67,137.74,270.44,133.37z"/>
<path class="st25" d="M258.64,151.52c-0.11-0.85-0.96-1.49-1.82-1.51s-1.67,0.5-2.17,1.19c-0.5,0.7-0.72,1.56-0.81,2.41
	c-0.09,0.83-0.05,1.68,0.26,2.45c0.31,0.77,0.92,1.45,1.71,1.7c0.79,0.25,1.75-0.01,2.22-0.7"/>
<path class="st25" d="M288.84,171.38c3.59-0.11,7.44,0.13,10.99-1.79c2.96-1.61,3.26-3.08,6.17-6.95c1.9-2.53,4.89-6.11,9.31-9.98
	c-0.33-1-0.87-3.13-0.34-5.72c0.4-1.93,0.92-3.7,1.79-4.15c1.37-0.71,5.25,0.24,6.84,2.69c1.7,2.61,0.11,6.34-1.57,9.76
	c-2.64,5.36-7.18,13.37-15.03,23.11c-2.92,1.57-7.32,3.67-11.22,5.72c-2.44,1.29-4.37,2.36-6.28,2.92
	C289.29,181.78,289.07,176.58,288.84,171.38z"/>
<path class="st26" d="M236.14,350.97c0,0,0.5,2.62,1.23,2.92c1.12,0.45,9.42-0.79,15.14-2.47c3.04-0.89,10.21-3.14,11.67-4.15
	c0.49-0.34,0.5-2.3,0.5-2.3s-6.28,2.58-12.84,4.32C242.93,351.66,236.14,350.97,236.14,350.97z"/>
<path class="st26" d="M276.59,351.49c0,0-0.15,2.75,0.52,3.22c2.17,1.5,11.19-0.06,14.58-1.12c3.18-1,10.84-3.14,11.82-4.79
	c0.52-0.88,0.52-4.04,0.52-4.04s-1.18,3.88-13.46,6.51C280.78,353.36,276.59,351.49,276.59,351.49z"/>
<path class="st2" d="M258.76,266.82c-1.89-1.37-2.79-3.07-4.16-4.99c-1.61-2.16-2.98-4.08-3.99-6.57c-0.94-2.51-1.6-4.28-2.08-6.9
	c-0.27-1.52-0.36-3.02-0.5-4.55c-2.48,0.05-5.76,0.07-8.02,0.07c-3.45,8.73-3.47,16.11-3.74,21.54c-0.49,9.84,2.15,25.57-1.13,39.07
	c-2.99,12.31,1.83,40.75,2.16,41.08c1.5,0.73,7.72,0.5,12.81-3.99c0,0-2-24.78,1.33-36.09
	C255.32,292.28,258.23,270.79,258.76,266.82z"/>
<path class="st7" d="M287.27,300.27c0.34-13.3,0.87-20.26-1.91-31.52c-2.92-13.01-5.31-18.85-7.85-25.58
	c-9.04,0-20.24,0.45-30.16,0.63c0.21,1.51,0.47,3.01,0.79,4.5c0.55,2.58,1.26,5.14,2.24,7.58c0.99,2.42,2.34,4.71,3.8,6.88
	c0.76,1.07,1.57,2.1,2.44,3.08c0.64,0.71,2.08,1.53,2.08,1.53s9.05,11.23,11.67,28.72c1.48,9.88,0.47,13.56,2.39,27.97
	c0.96,7.19,2.48,16.15,3.79,22.51c3.22,1.08,11.16-1.86,12.81-4.32C287.93,324.88,287.03,309.78,287.27,300.27z"/>
<g>
	<path class="st27" d="M235.14,204.12c-0.82-3.36-1.27-6.53-1.5-9.98c-0.16-3.46-0.51-6.65,0.08-10.06
		c0.37-2.23,0.98-5.49,1.58-7.65c-0.64,0.41-2.23,1.4-2.93,1.94c-2.65,2.09-4.56,5.8-6.13,12.11c-0.86,3.44-1.27,8.83-1.01,15.33
		c2.58,1.88,7.66,2.62,11.32,3.21C236.07,207.58,235.5,205.61,235.14,204.12z"/>
	<path class="st15" d="M291.01,170.74c-7.93,0.97-13.09,0.6-17.2,0.75c-2.06,0.08-4.79,0.37-9.27,0.45
		c-1.59,0.03-3.04-0.64-3.74-1.23c-1.58,0.7-5.12,1.26-9.12,1.08c-3.65-0.16-5.75-0.77-7.25-1.53c-1.68,1.01-3.44,2.15-5.83,3.93
		c-1.69,1.25-2.86,1.95-3.94,2.62c-0.48,2.28-0.95,4.55-1.25,6.85c-0.45,3.39-0.64,6.82-0.42,10.23c0.18,3.42,0.63,6.82,1.34,10.17
		c0.32,1.57,0.72,3.12,1.16,4.66c0.02,0,0.03,0.01,0.05,0.01c1.44,3.52,2.84,7.84,3.74,12.86c1.84,10.28-0.89,20.88-2.12,26.68
		c1.91,1.61,11.59,3.22,20.46,2.66c7.93-0.5,18.96-2.99,21.95-5.49c-1.25-5.49-3.24-16.71-3.99-26.94
		c-0.82-11.26-0.61-19.79,0.57-27.34c4.94,0.52,9.8-0.3,14.13-1.42c0.98-1.6,2.45-5.37,2.54-10.32
		C292.88,175.46,291.76,172.4,291.01,170.74z"/>
</g>
<circle class="st8" cx="631.91" cy="252.98" r="31"/>
<circle class="st8" cx="556.39" cy="39.93" r="8.48"/>
<path class="st8" d="M605.19,266.81l-0.8,15.49c-0.07,1.38,1.14,2.48,2.51,2.28l17.71-2.67"/>
<circle class="st8" cx="179.23" cy="93.92" r="37.95"/>
<path class="st8" d="M212.08,100.04l7.63,26.27c0.75,2.38-1.29,4.71-3.75,4.27l-28.85-3.53"/>
<path class="st5" d="M179.08,73.46c-10.44,0-9.79,4.53-9.79,4.53l0.01,4.69h9.97v1.41h-13.92c0,0-6.68-0.76-6.68,9.78
	c0,10.54,5.83,10.16,5.83,10.16h3.48v-4.89c0,0-0.19-5.83,5.74-5.83h9.88c0,0,5.55,0.09,5.55-5.37v-9.02
	C189.15,78.92,189.99,73.46,179.08,73.46z M173.58,76.62c0.99,0,1.79,0.8,1.79,1.79c0,0,0,0,0,0c0,0.99-0.8,1.79-1.79,1.79
	c0,0,0,0,0,0c-0.99,0-1.79-0.8-1.79-1.79c0,0,0,0,0,0C171.79,77.42,172.59,76.62,173.58,76.62
	C173.58,76.62,173.58,76.62,173.58,76.62z"/>
<path class="st5" d="M179.37,114.39c10.44,0,9.79-4.53,9.79-4.53l-0.01-4.69h-9.97v-1.41h13.92c0,0,6.68,0.76,6.68-9.78
	c0-10.54-5.83-10.16-5.83-10.16h-3.48v4.89c0,0,0.19,5.83-5.74,5.83h-9.88c0,0-5.55-0.09-5.55,5.37v9.02
	C169.3,108.92,168.46,114.39,179.37,114.39L179.37,114.39z M184.87,111.23c-0.99,0-1.79-0.8-1.79-1.79c0,0,0,0,0,0
	c0-0.99,0.8-1.79,1.79-1.79c0,0,0,0,0,0c0.99,0,1.79,0.8,1.79,1.79c0,0,0,0,0,0C186.66,110.43,185.86,111.23,184.87,111.23
	C184.87,111.23,184.87,111.23,184.87,111.23L184.87,111.23z"/>
<g>
	<path class="st5" d="M625.24,257.08c0.04,0.13,0.07,0.27,0.08,0.44c0.01,0.17,0.02,0.32,0.02,0.47c0,0.38-0.04,0.73-0.13,1.06
		c-0.08,0.33-0.22,0.63-0.41,0.88c-0.19,0.25-0.43,0.45-0.74,0.61c-0.3,0.16-0.68,0.23-1.14,0.23c-0.44,0-0.87-0.09-1.3-0.28
		c-0.43-0.19-0.96-0.46-1.58-0.81l-6.74-3.89c-0.54-0.71-0.82-1.65-0.82-2.82c0-0.88,0.13-1.56,0.38-2.04
		c0.25-0.48,0.62-0.86,1.1-1.13l8.62-5.01c1.02,0.27,1.72,0.64,2.08,1.11c0.36,0.47,0.55,0.98,0.55,1.52c0,0.73-0.18,1.3-0.55,1.71
		c-0.37,0.41-0.9,0.79-1.61,1.14l-5.52,2.79L625.24,257.08z"/>
	<path class="st5" d="M630.73,264.23c-0.29,0.04-0.57,0.07-0.85,0.08c-0.27,0.01-0.52,0.02-0.75,0.02c-0.88,0-1.55-0.19-2.02-0.56
		c-0.47-0.38-0.7-0.98-0.7-1.82c0-0.56,0.08-1.13,0.25-1.71c0.17-0.57,0.31-1.08,0.44-1.52l5.51-19.9c0.31-0.04,0.61-0.07,0.88-0.08
		c0.27-0.01,0.52-0.02,0.75-0.02c0.83,0,1.5,0.18,1.99,0.53c0.49,0.36,0.74,0.93,0.74,1.72c0,0.61-0.08,1.18-0.25,1.72
		c-0.17,0.54-0.32,1.09-0.47,1.63L630.73,264.23z"/>
	<path class="st5" d="M638.12,248.5c-0.04-0.13-0.07-0.27-0.08-0.44c-0.01-0.17-0.02-0.32-0.02-0.47c0-0.38,0.04-0.73,0.13-1.06
		c0.08-0.33,0.22-0.63,0.41-0.88c0.19-0.25,0.43-0.45,0.74-0.61c0.3-0.16,0.68-0.23,1.14-0.23c0.44,0,0.87,0.09,1.3,0.28
		s0.96,0.46,1.58,0.81l6.74,3.89c0.54,0.71,0.81,1.65,0.81,2.82c0,0.88-0.12,1.56-0.38,2.04c-0.25,0.48-0.62,0.86-1.1,1.13
		l-8.62,5.01c-1.02-0.27-1.72-0.64-2.08-1.11c-0.36-0.47-0.55-0.98-0.55-1.52c0-0.73,0.18-1.3,0.55-1.71
		c0.37-0.41,0.9-0.79,1.61-1.14l5.51-2.79L638.12,248.5z"/>
</g>
</svg>
