<?xml version="1.0" encoding="utf-8"?>
<!-- Generator: Adobe Illustrator 23.0.1, SVG Export Plug-In . SVG Version: 6.00 Build 0)  -->
<svg version="1.1" id="Layer_1" xmlns="http://www.w3.org/2000/svg" xmlns:xlink="http://www.w3.org/1999/xlink" x="0px" y="0px"
	 viewBox="0 0 638.92 638.79" style="enable-background:new 0 0 638.92 638.79;" xml:space="preserve">
<style type="text/css">
	.st0{fill:#2C3E50;}
</style>
<path class="st0" d="M468.13,427.33l-137.16-279.8c-2.1-4.28-6.43-6.98-11.2-6.98c-4.76,0-9.1,2.71-11.19,6.98L171.4,427.33
	c-2.11,4.29-1.57,9.39,1.39,13.16l77.41,98.68h-22.71c-17.88,0-32.42,14.53-32.42,32.38v49.83c0,9.63,7.83,17.44,17.46,17.44H427
	c9.62,0,17.46-7.82,17.46-17.44v-49.83c0-17.85-14.54-32.38-32.42-32.38h-22.97l77.66-98.68
	C469.7,436.73,470.23,431.63,468.13,427.33L468.13,427.33z M412.04,564.08c4.13,0,7.48,3.36,7.48,7.47v42.36H220v-42.36
	c0-4.11,3.36-7.47,7.49-7.47H412.04z M357.35,539.18h-75.48l-84.63-107.92l122.52-249.95l122.53,249.94L357.35,539.18z
	 M357.35,539.18"/>
<path class="st0" d="M370.04,436.66c-0.84-13.32-6.8-25.47-16.76-34.25c-5.91-5.19-12.92-8.89-20.5-10.82v-88.8
	c0-6.87-5.59-12.45-12.47-12.45c-6.88,0-12.46,5.58-12.46,12.45v88.79c-9.53,2.43-18.23,7.68-24.96,15.3
	c-8.33,9.46-12.42,21.2-12.42,32.89c0,13.83,5.71,27.6,16.88,37.43c9.15,8.06,20.72,12.4,32.87,12.4c1.08,0,2.17-0.04,3.26-0.09
	c13.32-0.85,25.5-6.8,34.28-16.76C366.53,462.79,370.89,449.97,370.04,436.66L370.04,436.66z M339.04,456.28
	c-6.78,7.69-17.98,10.41-27.57,6.81c-9.65-3.63-16.06-13.1-16.04-23.38c0.02-10.51,6.84-20.08,16.8-23.46
	c10-3.4,21.41-0.02,27.86,8.36C347.22,433.91,346.79,447.48,339.04,456.28L339.04,456.28z M339.04,456.28"/>
<path class="st0" d="M621.47,267.61h-19.39c-1.76-20.64-8.09-64.1-30.52-107.98C554.1,125.49,524.6,87.31,475.27,63h65.91
	c3.24,12.27,10.87,22.68,21.65,29.41c8.01,5.03,17.08,7.62,26.35,7.62c3.75,0,7.53-0.42,11.27-1.28
	c13.02-2.97,24.08-10.8,31.14-22.03c7.07-11.24,9.31-24.59,6.35-37.6c-2.98-12.99-10.81-24.04-22.06-31.1
	c-11.25-7.06-24.61-9.32-37.63-6.34c-13.01,2.97-24.07,10.8-31.13,22.04c-2.82,4.5-4.88,9.33-6.14,14.34H370.19V18.15
	c0-9.63-7.83-17.44-17.46-17.44H287.9c-9.63,0-17.46,7.82-17.46,17.44V38.7H99.49c-5.21-21.93-24.98-38.3-48.52-38.3
	c-27.5,0-49.88,22.36-49.88,49.83c0,27.48,22.38,49.82,49.88,49.82c22.87,0,42.18-15.43,48.05-36.43h66.11
	c-49.5,24.3-79.07,62.48-96.57,96.63c-22.49,43.88-28.83,87.34-30.61,107.99H18.23c-9.62,0-17.46,7.82-17.46,17.44v64.78
	c0,9.62,7.83,17.43,17.46,17.43h64.84c9.62,0,17.46-7.82,17.46-17.43v-64.78c0-9.63-7.83-17.44-17.46-17.44H63.02
	c1.87-19.29,7.97-58.06,27.73-96.63c16.09-31.39,37.98-56.34,65.09-74.18c31.22-20.55,69.73-31.82,114.59-33.56v19.07
	c0,9.61,7.83,17.43,17.46,17.43h64.84c9.63,0,17.46-7.82,17.46-17.43V63.25c44.52,1.73,82.75,12.9,113.8,33.27
	c27.01,17.72,48.86,42.51,64.95,73.69c19.93,38.66,26.12,77.91,28.03,97.39h-20.34c-9.63,0-17.46,7.82-17.46,17.44v64.78
	c0,9.61,7.83,17.43,17.46,17.43h64.84c9.62,0,17.45-7.82,17.45-17.43v-64.78C638.92,275.42,631.09,267.61,621.47,267.61
	L621.47,267.61z M568.24,36.98c5.49-8.76,16.26-13.26,26.38-11.1c9.94,2.12,17.63,10.3,19.31,20.3c1.7,10.21-3.26,20.69-12.32,25.73
	c-9.43,5.26-21.52,3.86-29.39-3.58C563.72,60.3,562,46.87,568.24,36.98C571.75,31.37,564.7,42.58,568.24,36.98L568.24,36.98z
	 M50.97,75.14c-13.74,0-24.94-11.17-24.94-24.91c0-13.74,11.2-24.91,24.94-24.91c13.75,0,24.94,11.17,24.94,24.91
	C75.9,63.97,64.72,75.14,50.97,75.14L50.97,75.14z M75.6,293.14v49.82H25.72v-49.82H75.6z M345.26,75.45h-49.88V25.62h49.88V75.45z
	 M613.99,342.34h-49.88v-49.83h49.88V342.34z M613.99,342.34"/>
<path class="st0" d="M319.79,265.42c-6.89,0-12.47-5.58-12.47-12.46c0-6.88,5.57-12.46,12.46-12.46h0.01
	c6.89,0,12.47,5.58,12.47,12.46C332.25,259.84,326.68,265.42,319.79,265.42L319.79,265.42z M319.79,265.42"/>
</svg>
