<?xml version="1.0" encoding="utf-8"?>
<!-- Generator: Adobe Illustrator 23.0.1, SVG Export Plug-In . SVG Version: 6.00 Build 0)  -->
<svg version="1.1" id="Layer_1" xmlns="http://www.w3.org/2000/svg" xmlns:xlink="http://www.w3.org/1999/xlink" x="0px" y="0px"
	 viewBox="0 0 1800 1800" style="enable-background:new 0 0 1800 1800;" xml:space="preserve">
<style type="text/css">
	.st0{clip-path:url(#SVGID_2_);fill:#4A86C5;}
	.st1{clip-path:url(#SVGID_2_);fill:#3D80B2;}
	.st2{fill:#4A86C5;}
	.st3{fill:#377CA5;}
	.st4{fill:#FFFFFF;}
</style>
<g>
	<g>
		<defs>
			<rect id="SVGID_1_" x="2.67" y="0.88" width="1794.59" height="1799.12"/>
		</defs>
		<clipPath id="SVGID_2_">
			<use xlink:href="#SVGID_1_"  style="overflow:visible;"/>
		</clipPath>
		<path class="st0" d="M1793.59,900.01c0,494.54-400.91,895.45-895.45,895.45c-494.55,0-895.47-400.91-895.47-895.45
			C2.67,405.45,403.58,4.54,898.14,4.54C1392.68,4.54,1793.59,405.45,1793.59,900.01L1793.59,900.01z M1793.59,900.01"/>
		<path class="st1" d="M1531.28,266.73c349.71,349.73,349.73,916.71,0,1266.44c-349.69,349.69-916.73,349.69-1266.42,0
			L1531.28,266.73z M1531.28,266.73"/>
	</g>
	<path class="st2" d="M1750.95,1173.26c3.28-10.26,6.25-20.63,9.19-31.02C1757.22,1152.65,1754.16,1163,1750.95,1173.26
		L1750.95,1173.26z M1750.95,1173.26"/>
	<path class="st3" d="M1760.21,1142.04l-0.06,0.2L1760.21,1142.04z M1760.21,1142.04"/>
	<path class="st3" d="M1760.21,1142.04l-485.13-485.11l-110.36,110.36l-76.72-76.72l-64.03,64.02L648.97,379.58l-23.25-8.86
		l-143.9,143.9l173.7,173.68L485.49,858.34l166.04,166.07l-181.56,181.58l577.46,576.85c332.47-55.85,602.73-294.72,703.54-609.58
		c3.21-10.26,6.25-20.59,9.19-31C1760.15,1142.18,1760.17,1142.09,1760.21,1142.04L1760.21,1142.04z M1760.21,1142.04"/>
	<path class="st4" d="M1357.64,875.41v332.09h-192.5V897.65c0-77.81-27.88-130.95-97.54-130.95c-53.23,0-84.88,35.8-98.81,70.41
		c-5.07,12.38-6.38,29.62-6.38,46.94v323.45H769.84c0,0,2.58-524.8,0-579.15h192.54v82.09c-0.35,0.61-0.89,1.27-1.24,1.88h1.24
		v-1.88c25.59-39.39,71.28-95.71,173.54-95.71C1262.67,614.75,1357.64,697.52,1357.64,875.41L1357.64,875.41z M568.37,349.15
		c-65.88,0-108.98,43.23-108.98,100.05c0,55.62,41.83,100.12,106.43,100.12h1.29c67.13,0,108.92-44.5,108.92-100.12
		C674.76,392.39,634.26,349.15,568.37,349.15L568.37,349.15z M470.82,1207.5h192.51V628.37H470.82V1207.5z M470.82,1207.5"/>
</g>
</svg>
