<?xml version="1.0" encoding="UTF-8" standalone="no"?>
<!-- Created with Inkscape (http://www.inkscape.org/) -->

<svg
   xmlns:dc="http://purl.org/dc/elements/1.1/"
   xmlns:cc="http://creativecommons.org/ns#"
   xmlns:rdf="http://www.w3.org/1999/02/22-rdf-syntax-ns#"
   xmlns:svg="http://www.w3.org/2000/svg"
   xmlns="http://www.w3.org/2000/svg"
   xmlns:sodipodi="http://sodipodi.sourceforge.net/DTD/sodipodi-0.dtd"
   xmlns:inkscape="http://www.inkscape.org/namespaces/inkscape"
   width="23mm"
   height="23mm"
   viewBox="0 0 22.999999 23"
   version="1.1"
   id="svg3753"
   inkscape:version="0.92.3 (2405546, 2018-03-11)"
   sodipodi:docname="logo.svg"
   inkscape:export-filename="/home/aquiles/Documents/Web/pftl/static/css/images/logo.png"
   inkscape:export-xdpi="441.73914"
   inkscape:export-ydpi="441.73914">
  <defs
     id="defs3747" />
  <sodipodi:namedview
     id="base"
     pagecolor="#ffffff"
     bordercolor="#666666"
     borderopacity="1.0"
     inkscape:pageopacity="0.0"
     inkscape:pageshadow="2"
     inkscape:zoom="1.4"
     inkscape:cx="114.05207"
     inkscape:cy="14.697692"
     inkscape:document-units="mm"
     inkscape:current-layer="layer1"
     showgrid="false"
     fit-margin-top="0"
     fit-margin-left="0"
     fit-margin-right="0"
     fit-margin-bottom="0"
     inkscape:window-width="1861"
     inkscape:window-height="1025"
     inkscape:window-x="59"
     inkscape:window-y="27"
     inkscape:window-maximized="1" />
  <metadata
     id="metadata3750">
    <rdf:RDF>
      <cc:Work
         rdf:about="">
        <dc:format>image/svg+xml</dc:format>
        <dc:type
           rdf:resource="http://purl.org/dc/dcmitype/StillImage" />
        <dc:title></dc:title>
      </cc:Work>
    </rdf:RDF>
  </metadata>
  <g
     inkscape:label="Layer 1"
     inkscape:groupmode="layer"
     id="layer1"
     transform="translate(-57.563504,-95.53757)">
    <g
       id="g5192"
       transform="translate(2.3685095,-0.02919292)">
      <polygon
         style="fill:#f06253;fill-opacity:1"
         id="polygon4"
         points="17.25,65.47 12.01,75.25 24.08,87.32 57.75,87.32 69.32,75.62 63,65.47 "
         class="st0"
         transform="matrix(0.26458333,0,0,0.26458333,57.118251,95.138225)" />
      <path
         style="stroke-width:0.26458332"
         id="path6"
         d="m 75.774022,114.96081 -1.518709,-2.95011 c 0,0 -0.0026,-0.003 -0.0026,-0.003 v 0 l -1.508125,-2.86279 c -0.08202,-0.1561 -0.246062,-0.254 -0.420687,-0.254 H 61.907209 l 1.119188,-1.9976 h 7.876645 c 0.161396,0 0.312209,-0.082 0.399521,-0.21696 0.08731,-0.13494 0.100542,-0.30692 0.0344,-0.45508 l -1.320275,-2.92899 c -0.07673,-0.17198 -0.246062,-0.28046 -0.433916,-0.28046 h -3.88673 v -2.3786 l -0.47625,-0.5715 -0.47625,0.5715 v 2.85485 c 0,0.26459 0.214313,0.47625 0.47625,0.47625 h 4.053417 l 0.891646,1.9738 h -7.421563 c -0.171979,0 -0.330729,0.0926 -0.415395,0.24341 l -1.651,2.95011 c -0.08202,0.14816 -0.07937,0.32808 0.0053,0.4736 0.08467,0.14552 0.243416,0.23548 0.41275,0.23548 h 10.943168 l 1.005417,1.90765 H 59.668834 c -0.174625,0 -0.333375,0.0953 -0.418042,0.24606 l -1.627187,2.95275 c -0.103188,0.18521 -0.07144,0.41539 0.07937,0.56621 l 2.862792,2.88396 c 0.08996,0.09 0.211666,0.14022 0.338666,0.14022 h 11.517313 c 0.124354,0 0.246062,-0.0503 0.333375,-0.13758 l 2.928937,-2.88396 c 0.148167,-0.14287 0.185209,-0.37041 0.08996,-0.55562 z m -15.822084,-2.2569 h 13.589 l 1.010709,1.96321 h -15.6845 z m 12.274021,4.88421 H 61.102876 l -1.949979,-1.96321 h 15.06802 z"
         class="st1"
         inkscape:connector-curvature="0" />
      <path
         style="stroke-width:0.26458332"
         id="path8"
         d="M 61.563251,112.4605"
         class="st2"
         inkscape:connector-curvature="0" />
      <circle
         style="fill:#f06253;fill-opacity:1;stroke-width:0.26458332"
         id="circle40"
         r="0.65616667"
         cy="100.02508"
         cx="68.101105"
         class="st0" />
      <circle
         style="fill:#f06253;fill-opacity:1;stroke-width:0.26458332"
         id="circle42"
         r="1.4578543"
         cy="97.05381"
         cx="65.264771"
         class="st0" />
    </g>
  </g>
</svg>
