<?xml version="1.0" encoding="utf-8"?>
<!-- Generator: Adobe Illustrator 23.0.1, SVG Export Plug-In . SVG Version: 6.00 Build 0)  -->
<svg version="1.1" id="Layer_1" xmlns="http://www.w3.org/2000/svg" xmlns:xlink="http://www.w3.org/1999/xlink" x="0px" y="0px"
	 viewBox="0 0 300 90.87" style="enable-background:new 0 0 300 90.87;" xml:space="preserve">
<style type="text/css">
	.st0{fill:#FFFFFF;}
	.st1{fill:#202E3A;}
	.st2{fill:none;stroke:#2C3E50;stroke-width:3.603;stroke-linejoin:round;stroke-miterlimit:10;}
</style>
<polygon class="st0" points="16.62,65.7 11.38,75.47 23.44,87.53 57.09,87.53 68.66,75.85 62.33,65.7 "/>
<path class="st1" d="M69.84,75.15L64.1,64c0,0-0.01-0.01-0.01-0.01l0,0L58.4,53.17c-0.31-0.59-0.92-0.96-1.59-0.96H17.47l4.22-7.54
	h29.75c0.61,0,1.18-0.31,1.51-0.82c0.33-0.51,0.38-1.16,0.13-1.72l-4.99-11.06C47.8,30.42,47.16,30,46.45,30H31.78v-8.98l-1.8-2.16
	l-1.8,2.16v10.78c0,1,0.81,1.8,1.8,1.8h15.3l3.36,7.46H20.63c-0.65,0-1.25,0.35-1.57,0.92l-6.24,11.15
	c-0.31,0.56-0.3,1.24,0.02,1.79c0.32,0.55,0.92,0.89,1.55,0.89h41.33l3.79,7.21H9.02c-0.66,0-1.26,0.36-1.58,0.93L1.29,75.1
	c-0.39,0.7-0.26,1.57,0.3,2.14l10.81,10.9c0.34,0.34,0.8,0.53,1.28,0.53h43.5c0.47,0,0.93-0.19,1.26-0.52l11.06-10.9
	C70.06,76.7,70.2,75.85,69.84,75.15z M10.08,66.63H61.4l3.82,7.42H5.99L10.08,66.63z M56.44,85.06H14.43l-7.36-7.42h56.9
	L56.44,85.06z"/>
<path class="st2" d="M16.17,65.7"/>
<path class="st1" d="M146.23,31.75l-14.76,33.64c-4.75,10.78-9.11,14.67-18.2,14.67h-4.15V69.64h3.33c4.64,0,6.04-1.21,7.68-5.59
	l-14.55-32.3h13.18l7.47,19.39l6.96-19.39H146.23z"/>
<path class="st1" d="M172.95,56.34v10.62h-8.34c-7.79,0-12.52-4.76-12.52-12.58V41.09h-6.44v-2.83l15.77-16.8h2.49v10.29h8.84v9.34
	h-8.54v11.2c0,2.52,1.52,4.04,4.08,4.04H172.95z"/>
<path class="st1" d="M213.41,45.76v21.2h-12.13V47.17c0-4.06-1.43-6.13-4.59-6.13c-3.67,0-5.96,2.6-5.96,7.12v18.8h-12.13V19.04
	h12.13v15.03c2.59-2.09,5.89-3.36,9.4-3.36C208.22,30.71,213.41,36.63,213.41,45.76z"/>
<path class="st1" d="M298.51,45.49v21.47h-12.13V47.17c0-4.1-1.54-6.13-4.59-6.13c-3.78,0-5.96,2.64-5.96,7.12v18.8H263.7V31.75
	h8.51l1.66,3.63c2.62-2.92,6.53-4.67,11.08-4.67C293.14,30.71,298.51,36.52,298.51,45.49z"/>
<g>
	<path class="st0" d="M148.29,59.63l0.47,0.23l0.58,0.19l0.35,0.27l0.47,0.31l0.39,0.47l0.27,0.47l0.12,0.43l0.27,0.54l-0.04,0.54
		l0.08,1.05l-0.08,0.58l-0.2,0.47l-0.78,0.47l-0.47,0.08l-0.7-0.08h-0.51l-0.35-0.47l-0.04-0.54v-1.05l-0.12-0.43l-0.39-0.47
		l-0.31-0.16l-1.05-0.04l-0.35,0.12l-0.39,0.35l-0.39,0.31l-0.19,0.39l-0.31,0.43l-0.58,0.97l-0.12,0.58l-0.23,0.47l-0.27,0.54
		l-0.16,0.5L143,67.7l-0.19,0.5l-0.16,0.54l-0.12,0.54l-0.19,0.58l-0.23,0.58l0.5,0.47l0.47,0.08h1.63l0.43-0.08l0.62,0.08
		l1.13-0.08l0.31,0.58l-0.27,0.5v0.54l-0.27,0.5l-0.7,0.54l-0.51-0.04l-0.43,0.04h-1.05l-0.58-0.04l-0.5,0.04l-0.54-0.04l-0.47,0.04
		l-0.62,0.54l-0.15,0.47l-0.2,0.5l-0.23,0.5l-0.15,0.54l-0.08,0.58l-0.15,0.47l-0.08,0.5l-0.27,0.58l-0.08,0.47l-0.27,1.13
		l-0.08,0.47l-0.16,0.5l-0.31,0.58v0.5l-0.27,0.5l-0.04,0.51l-0.23,0.54l-0.16,0.5l-0.12,0.54l-0.16,0.58l-0.15,0.5v0.54l-0.31,0.54
		l-0.08,0.43l-0.15,0.58l-0.62,0.54l-0.62-0.08l-0.39,0.12h-1.17l-0.39-0.62l0.23-0.47l0.08-0.58l0.12-0.54l0.27-0.43l0.08-0.58
		l0.12-0.47l0.19-0.54l0.19-0.51v-0.62l0.27-0.51l0.19-0.47l0.12-0.5v-0.54l0.23-0.58l0.16-0.54l0.19-0.5v-0.54l0.23-0.47l0.19-0.54
		l0.2-0.54v-0.47l0.19-0.51l0.12-0.62l0.16-0.47l0.15-0.58l0.12-0.43l-0.31-0.62l-0.39,0.04l-0.5,0.04l-0.66-0.08l-0.39,0.08
		l-0.35-0.5l0.19-0.54l0.16-0.58l0.19-0.43l0.62-0.58l0.62,0.04h0.62l0.62-0.04l0.62-0.19l0.19-0.62l0.16-0.47l0.12-0.58l0.04-0.5
		l0.27-0.54l0.04-0.43l0.31-0.54l0.12-0.47l0.15-0.5l0.23-0.58l0.2-0.43l0.12-0.54l0.27-0.47l0.31-0.5l0.12-0.47l0.43-0.5l0.15-0.43
		l0.43-0.43l0.27-0.43l0.51-0.43l0.27-0.31l0.54-0.27l0.43-0.23l0.54-0.19l0.43-0.19l0.47-0.04l0.62-0.08h1.01L148.29,59.63z"/>
	<path class="st0" d="M169.91,71.28l0.08,0.7l-0.19,0.5l-0.27,0.47l-0.31,0.54l-0.16,0.43l-0.43,0.5l-0.23,0.43l-0.39,0.5
		l-0.39,0.35l-0.27,0.43L167,76.6l-0.54,0.27l-0.27,0.35l-0.58,0.27l-0.43,0.35l-0.47,0.16l-0.7,0.12l-0.39,0.12l-0.97-0.04
		l-0.35,0.5l0.04,0.54l-0.16,0.62l-0.15,0.51v0.54l-0.23,0.43l-0.08,0.54l-0.31,0.54l-0.12,0.47l-0.27,0.47l-0.16,0.54l-0.43,0.43
		l-0.27,0.43l-0.27,0.47l-0.27,0.35l-0.35,0.47l-0.5,0.39l-0.31,0.31l-0.85,0.7l-0.47,0.27l-0.58,0.31l-0.93,0.35l-0.46,0.23
		l-0.43,0.08l-0.58,0.12h-0.54h-1.01h-0.58l-0.66-0.12l-0.5-0.19l-0.47-0.16l-0.43-0.27l-0.54-0.23l-0.31-0.39l-0.54-0.31
		l-0.31-0.35l-0.39-0.43l-0.23-0.47l-0.31-0.54l-0.04-0.43l-0.35-0.5v-0.58l-0.23-0.47v-0.62l-0.08-0.5l0.04-1.13l0.08-0.58
		l-0.08-0.43l0.12-0.62l0.08-0.5l0.27-0.58l0.15-0.43l0.2-0.58l0.19-0.5l0.19-0.43l0.16-0.54l0.31-0.47l0.16-0.43l0.39-0.5
		l0.35-0.39l0.23-0.43l0.39-0.47l0.5-0.35l0.27-0.35l0.47-0.39l0.54-0.31l0.47-0.23l0.43-0.31l0.39-0.19l0.62-0.19l0.43-0.23
		l0.62-0.12l0.47-0.04l0.58-0.04h1.05l0.62,0.08l0.93,0.23l0.58,0.19l0.54,0.23l0.47,0.31l0.35,0.35l0.31,0.35l0.51,0.43l0.23,0.54
		l0.19,0.47l0.35,0.47l0.12,0.47l0.19,0.62l0.78,0.7h0.97l0.62-0.08l0.47-0.19l0.93-0.58l0.35-0.31l0.35-0.31l0.35-0.43l0.27-0.39
		l0.39-0.47l0.31-0.39l0.31-0.47l0.35-0.47l0.2-0.54l0.74-0.23L169.91,71.28z M154.46,85.57l0.54-0.16l0.5-0.31l0.35-0.23l0.54-0.35
		l0.39-0.43l0.27-0.43l0.39-0.35l0.23-0.47l0.27-0.51l0.27-0.5l0.31-0.54l0.08-0.5l0.27-0.54v-0.58l0.15-0.5l0.08-0.58l0.04-1.13
		L159,76.98l-0.12-0.54l-0.04-0.5l-0.35-0.47l-0.27-0.43l-0.15-0.5l-0.35-0.35l-0.54-0.31l-0.47-0.16l-0.43-0.12l-1.09-0.04
		l-0.47,0.08l-0.66,0.23l-0.39,0.23l-0.62,0.27l-0.39,0.39l-0.47,0.31l-0.2,0.39l-0.35,0.43l-0.46,0.47l-0.27,0.5l-0.27,0.5
		l-0.15,0.58l-0.12,0.5l-0.16,0.47l-0.15,0.54v0.66l-0.16,0.5v1.13l0.08,0.54l0.16,0.5l0.04,0.47l0.19,0.47l0.35,0.47l0.31,0.47
		l0.35,0.43l0.5,0.27l0.43,0.16l0.43,0.19h1.09L154.46,85.57z"/>
	<path class="st0" d="M164.44,87.24l0.27-0.58v-0.47l0.16-0.58l0.16-0.43l0.12-0.62l0.27-0.47l0.19-0.58l0.04-0.47l0.12-0.58
		l0.23-0.47l0.19-0.5l0.12-0.5v-0.54l0.2-0.5l0.23-0.62l0.08-0.47l0.19-0.5l0.04-0.5l0.27-0.62v-0.5l0.23-0.5l0.04-0.5l0.19-0.58
		l0.23-0.5l0.04-0.54l0.23-0.5l0.15-0.54l0.08-0.43l0.12-0.62l0.19-0.43L169.6,71h1.01l0.58-0.08l0.47,0.62l-0.04,0.58l-0.15,0.58
		l-0.23,0.47v0.58L171,74.38l-0.12,0.58l-0.04,0.54l0.27-0.47l0.31-0.47l0.23-0.47l0.31-0.5l0.39-0.39l0.47-0.39l0.27-0.47
		l0.74-0.78l0.5-0.35l0.39-0.27l0.58-0.23l1.09-0.23l0.93-0.08l0.66,0.12l0.43,0.31l0.43,0.35l0.47,0.35l0.31,0.47l0.16,0.5
		l0.19,0.62l0.08,0.54v1.13l-0.08,0.58l-0.23,0.54l-0.58,0.5l-0.7,0.08l-1.05-0.08l-0.51-0.39l0.08-0.54l-0.2-1.05l-0.19-0.47
		l-0.39-0.35l-0.97-0.04l-0.47,0.16l-0.47,0.19l-0.31,0.31l-0.43,0.27l-0.19,0.43l-0.35,0.39l-0.35,0.35l-0.35,0.5l-0.31,0.43
		l-0.23,0.54l-0.35,0.43l-0.23,0.5L171,78.69l-0.35,0.43l-0.16,0.58l-0.31,0.54l-0.23,0.5l-0.19,0.5l-0.12,0.47l-0.31,0.58
		l-0.12,0.5l-0.12,0.58l-0.23,0.58l-0.27,0.5l-0.04,0.5l-0.15,0.58l-0.2,0.54l-0.19,0.54l-0.15,0.47l-0.16,0.62l-0.74,0.47
		l-0.46,0.08l-0.58-0.08h-0.51l-0.62,0.08l-0.47-0.5L164.44,87.24z"/>
	<path class="st0" d="M205.09,79.12l0.16,0.7l-0.23,0.5l-0.19,0.5l-0.23,0.39l-0.35,0.51l-0.39,0.43l-0.23,0.47l-0.27,0.5
		l-0.31,0.35l-0.23,0.47l-0.35,0.47l-0.39,0.39l-0.31,0.47l-0.43,0.35l-0.31,0.43l-0.27,0.43l-0.43,0.35l-0.39,0.35l-0.54,0.27
		l-0.43,0.27l-0.35,0.27l-0.51,0.31l-0.58,0.23l-0.89,0.23l-0.7,0.04l-1.05,0.08l-0.54-0.16l-0.58-0.19l-0.43-0.19l-0.54-0.27
		l-0.39-0.47l-0.31-0.35l-0.27-0.54l-0.23-0.51l-0.19-0.5l-0.08-0.58l0.04-1.09v-0.47l0.04-0.54l0.15-0.54v-0.43l0.2-0.58l0.04-0.47
		l0.12-0.5l0.04-0.54l0.15-0.58l0.2-0.47l0.08-0.5l0.08-0.54l0.31-0.58l0.04-0.47l0.08-0.58l0.15-0.54l0.31-0.47l0.12-0.54l0.04-0.5
		l-0.31-0.54l-0.54-0.04l-0.7-0.04l-0.58,0.04l-0.39-0.5l0.16-0.54l0.19-0.5l0.2-0.5l0.66-0.58L192.7,71l0.7-0.04h0.54l0.74-0.54
		l0.12-0.51l0.12-0.5l0.12-0.58l0.23-0.47l0.12-0.58l0.39-0.97l0.12-0.54l0.15-0.62l0.08-0.43l0.31-0.58l0.04-0.47l0.15-0.62
		l0.78-0.5l0.51-0.04l1.13-0.08l0.54-0.08l0.39,0.5l-0.04,0.47l-0.27,0.47l-0.15,0.54l-0.04,0.54l-0.31,0.54l-0.08,0.47l-0.2,0.47
		l-0.08,0.5l-0.27,0.5l-0.15,0.62l-0.08,0.47l-0.23,0.5l-0.23,1.01l0.43,0.47l0.66,0.08h0.5l0.58-0.08l0.47,0.04l0.58,0.04h1.79
		l0.31,0.54l-0.12,0.5l-0.12,0.5l-0.16,0.54l-0.82,0.47l-0.5-0.04l-0.58,0.08l-0.51-0.08l-0.7,0.08l-0.46-0.08h-1.09l-0.5,0.08
		l-0.7,0.54l-0.31,0.47l-0.12,0.5l-0.2,0.54l-0.04,0.54l-0.2,0.5l-0.15,0.62l-0.2,0.54l-0.08,0.47l-0.19,0.58l-0.04,0.5l-0.15,0.54
		l-0.04,0.58l-0.23,0.5v0.54l-0.12,0.54l-0.12,0.58l-0.04,0.54l0.16,1.05l0.23,0.62l0.31,0.43l0.47,0.27l1.17,0.04l0.54-0.12
		l0.54-0.16l0.35-0.19l0.62-0.23l0.31-0.35l0.43-0.31l0.43-0.35l0.47-0.47l0.23-0.35l0.51-0.54l0.23-0.39l0.31-0.5l0.31-0.47
		l0.43-0.47l0.2-0.39l0.27-0.54l0.43-0.47l0.31-0.5l0.74-0.12L205.09,79.12z"/>
	<path class="st0" d="M215.06,88.63l-0.62-0.19l-0.51-0.23l-0.27-0.47l-0.43-0.35l-0.23-0.62l-0.23-0.5l-0.08-0.5l0.12-1.13
		l-0.04-0.54l0.04-0.54l0.23-0.5l0.12-0.58l0.23-0.5l0.04-0.47l0.27-0.58l0.19-0.43l0.2-0.51l0.15-0.5l0.27-0.54l0.23-0.47
		l0.12-0.58l0.27-0.51l0.04-0.47l0.12-0.54l0.19-0.54l-0.04-1.01l-0.23-0.54l-0.39-0.35l-0.5-0.35l-0.93-0.04l-0.51,0.12l-0.35,0.19
		l-0.62,0.23l-0.43,0.27l-0.23,0.31L210.87,75l-0.74,0.7l-0.39,0.47l-0.31,0.35l-0.35,0.47l-0.27,0.43l-0.31,0.47l-0.19,0.5
		l-0.43,0.5l-0.08,0.5l-0.27,0.54l-0.31,0.43l-0.2,0.5l-0.35,0.5l-0.19,0.58l-0.08,0.54l-0.35,0.43l-0.16,0.58l-0.15,0.5l-0.16,0.5
		l-0.27,0.54l-0.23,0.54l-0.15,0.5l-0.04,0.58l-0.31,0.5l-0.04,0.58l-0.78,0.5l-0.58-0.08h-0.43l-0.58,0.12h-0.5l-0.47-0.62
		l0.08-0.5l0.16-0.54l0.19-0.5l0.23-0.54l0.04-0.43l0.31-0.54v-0.5l0.27-0.54l0.12-0.5l0.23-0.5l0.12-0.58l0.2-0.47l0.04-0.54
		l0.2-0.58l0.08-0.47l0.35-0.5l0.08-0.58l0.12-0.5l0.08-0.5l0.2-0.5l0.15-0.5l0.16-0.5l0.31-0.58l0.04-0.47l0.15-0.5l0.12-0.58
		l0.12-0.54l0.16-0.5l0.31-0.54l0.12-0.43l0.08-0.58l0.12-0.47l0.31-0.58v-0.54l0.27-0.47l0.12-0.54l0.12-0.47l0.23-0.5l0.23-0.62
		l0.08-0.47l0.23-0.54l0.08-0.5l0.19-0.5l0.08-0.54l0.16-0.54l0.23-0.54l0.19-0.43l0.12-0.5l0.08-0.54l0.2-0.58l0.08-0.5l0.23-0.5
		l0.7-0.54l0.43,0.04h1.17l0.39-0.04l0.31,0.54l-0.16,0.54v0.51l-0.23,0.54l-0.16,0.54l-0.19,0.5l-0.12,0.47l-0.08,0.54l-0.31,0.58
		l-0.16,0.47l-0.04,0.5l-0.19,0.54L210.48,67l-0.12,0.5l-0.12,0.58l-0.12,0.47l-0.31,0.54l-0.04,0.54l-0.12,0.47l-0.31,0.5
		l-0.16,1.13l-0.23,0.54l-0.16,0.43l-0.19,0.62l-0.15,0.5l-0.04,0.54l-0.23,0.47l0.35-0.43l0.35-0.43l0.35-0.43l0.31-0.39l0.54-0.5
		l0.27-0.35l0.43-0.27l0.5-0.43l0.51-0.31l0.35-0.19l0.5-0.23l0.54-0.27l0.62-0.04l0.54-0.12l1.01-0.04l0.51,0.08l0.5,0.23
		l0.62,0.19l0.47,0.27l0.31,0.39l0.51,0.39l0.27,0.43l0.08,0.51l0.31,0.5l0.04,0.58l-0.04,1.17l-0.04,0.54l-0.04,0.5l-0.19,0.54
		l-0.23,0.47l-0.15,0.62l-0.12,0.47l-0.08,0.54l-0.35,0.54l-0.12,0.5l-0.31,0.47l-0.15,0.5l-0.27,0.5l-0.19,0.47l-0.04,0.58
		l-0.27,0.5l-0.12,0.47l-0.08,0.62l-0.04,1.09l0.39,0.5l1.09,0.04l0.58-0.16l0.43-0.19l0.27-0.31l0.47-0.39l0.39-0.35l0.31-0.35
		l0.43-0.39l0.27-0.47l0.5-0.43l0.19-0.43l0.43-0.47l0.23-0.43l0.39-0.47l0.27-0.54l0.27-0.5l0.35-0.47l0.23-0.39l0.78-0.23
		l0.51,0.43l0.15,0.82l-0.23,0.39l-0.43,0.5l-0.15,0.43l-0.35,0.47l-0.23,0.54l-0.43,0.43l-0.16,0.43l-0.35,0.5l-0.31,0.39
		l-0.31,0.47l-0.47,0.43l-0.16,0.5l-0.5,0.43l-0.35,0.39l-0.35,0.39L219.96,87l-0.47,0.43l-0.39,0.31l-0.54,0.35l-0.31,0.23
		l-0.58,0.19l-0.58,0.19l-0.54,0.16l-1.09-0.04L215.06,88.63z"/>
	<path class="st0" d="M238.86,84.67l-0.27,0.47l-0.39,0.39l-0.35,0.39l-0.58,0.27l-0.43,0.35l-0.39,0.39l-0.5,0.27l-0.43,0.31
		l-0.39,0.19l-0.58,0.31l-0.58,0.19l-0.39,0.19l-0.62,0.12l-0.43,0.12l-0.66,0.16l-0.54-0.04l-0.47,0.08l-1.17-0.04l-0.43-0.04
		l-0.66-0.12l-0.51-0.08l-0.47-0.16l-0.5-0.31l-0.47-0.23l-0.62-0.35l-0.31-0.31l-0.35-0.31l-0.47-0.43l-0.39-0.47l-0.27-0.43
		l-0.15-0.5l-0.2-0.54l-0.23-0.5l-0.08-0.5l-0.19-0.66l-0.04-0.47l-0.04-0.58l-0.08-1.09l0.16-0.5l-0.12-0.54l0.12-0.54l0.19-0.62
		l0.08-0.43l0.16-0.58l0.16-0.5l0.31-0.54l0.08-0.43l0.27-0.47l0.39-0.54l0.2-0.47l0.39-0.43l0.19-0.39l0.35-0.47l0.39-0.39
		l0.39-0.43l0.54-0.35l0.43-0.31l0.31-0.27l0.54-0.27l0.47-0.19l0.58-0.16l0.39-0.19l0.66-0.08l0.5-0.12l0.43-0.04l1.24-0.08
		l0.39,0.12l0.58,0.08l0.58,0.16l0.47,0.27l0.35,0.23l0.46,0.31l0.31,0.39l0.31,0.39l0.31,0.47l0.23,0.5l0.16,0.47l-0.04,0.58
		l0.08,1.01l-0.15,0.58l-0.12,0.54l-0.19,0.5l-0.2,0.43l-0.23,0.43l-0.31,0.43l-0.31,0.43l-0.39,0.35l-0.39,0.39l-0.51,0.23
		l-0.35,0.39l-0.5,0.23l-0.51,0.27l-0.58,0.19l-0.39,0.19l-0.51,0.12l-0.54,0.23l-0.5,0.12l-0.54,0.04l-1.16,0.23l-0.47,0.12
		l-0.51,0.08l-0.58-0.04l-0.46,0.58l0.12,0.54l0.19,0.5l0.15,0.43l0.27,0.5l0.39,0.35l0.35,0.39l0.62,0.19l0.35,0.27l0.62,0.12h0.47
		h1.17l0.47,0.04l0.43-0.12l0.62-0.16l0.46-0.08l0.43-0.23l0.58-0.12l0.51-0.23l0.39-0.27l0.46-0.27l0.51-0.27l0.31-0.35l0.43-0.35
		l0.39-0.39h0.93l0.39,0.27l0.43,0.31l0.12,0.78L238.86,84.67z M227.84,79.74l0.54-0.08l0.58-0.08l0.5-0.19l0.47-0.08l1.13-0.35
		l0.47-0.27l0.47-0.23l0.5-0.35l0.54-0.39l0.23-0.35l0.39-0.47l0.31-0.54V75.9l0.08-1.09l-0.2-0.43l-0.31-0.43l-0.58-0.31
		l-0.54-0.08l-1.09-0.04l-0.47,0.12l-0.58,0.23l-0.47,0.19l-0.43,0.35l-0.35,0.39l-0.43,0.35l-0.39,0.43l-0.27,0.47l-0.23,0.54
		l-0.27,0.5l-0.35,0.47l-0.08,0.5l-0.12,0.58l-0.16,0.58l0.54,0.5H227.84z"/>
	<path class="st0" d="M252.57,88.75l-0.51-0.19l-0.39-0.23l-0.46-0.31l-0.54-0.39l-0.31-0.47l-0.15-0.47l-0.23-0.58l-0.27-0.47
		l-0.04-0.62l0.12-0.97l-0.15-0.5l0.08-0.43l0.08-0.43l0.16-0.54l0.08-0.5l0.04-0.47l0.08-0.47l0.12-0.54l0.16-0.54l0.08-0.47
		l0.08-0.62l0.27-0.43l0.12-0.58l0.19-0.5l0.12-0.54l0.08-0.58l0.12-0.5l0.12-0.51l0.27-0.62l0.19-0.51l0.12-0.54l0.16-0.54
		l0.12-0.47l0.19-0.58l0.04-0.58l0.27-0.58l0.23-0.5l0.12-0.58l0.12-0.5l0.2-0.54l0.12-0.5l0.12-0.62l0.19-0.54l0.27-0.47l0.12-0.54
		l0.16-0.62l0.19-0.54l0.08-0.54l0.31-0.5l0.12-0.5l0.19-0.58l0.12-0.58l0.16-0.54l0.19-0.5l0.66-0.58l0.54,0.04h0.58l0.54-0.08
		l0.51,0.04l0.39,0.5l-0.04,0.5l-0.27,0.54l-0.08,0.58l-0.27,0.47l-0.12,0.58l-0.04,0.43l-0.27,0.62l-0.12,0.47l-0.16,0.5l-0.08,0.5
		l-0.23,0.58l-0.23,0.54v0.43l-0.27,0.54l-0.08,0.54l-0.12,0.54l-0.19,0.5l-0.23,0.54l-0.12,0.5l-0.12,0.5l-0.23,0.5l-0.15,0.54
		l-0.12,0.54l-0.04,0.47l-0.31,0.58l-0.12,0.5l-0.12,0.47l-0.08,0.54l-0.23,0.5l-0.08,0.5l-0.19,0.62l-0.16,0.5l-0.08,0.51
		l-0.19,0.58l-0.04,0.47l-0.23,0.58l-0.15,0.47v0.54l-0.16,0.5l-0.12,0.54l-0.16,0.62l-0.04,0.5l-0.08,0.47l0.12,1.16l0.16,0.5
		l0.27,0.54l0.5,0.23l1.01,0.04l0.47-0.12l0.58-0.08l0.5-0.31l0.35-0.23l0.43-0.39l0.31-0.35l0.47-0.39l0.27-0.47l0.31-0.39
		l0.35-0.43l0.39-0.39l0.23-0.47l0.35-0.54l0.23-0.39l0.39-0.54l0.2-0.39l0.23-0.54l0.31-0.47l0.7-0.04l0.5,0.31l0.23,0.85
		l-0.27,0.5l-0.16,0.43l-0.31,0.43l-0.31,0.54l-0.27,0.47l-0.31,0.47l-0.23,0.39l-0.27,0.47l-0.35,0.47l-0.31,0.39l-0.31,0.47
		l-0.31,0.39l-0.35,0.43l-0.35,0.5l-0.39,0.35L258,86.96l-0.31,0.39l-0.47,0.31l-0.47,0.31l-0.46,0.23l-0.39,0.23l-0.51,0.23
		l-1.09,0.19l-1.05-0.04L252.57,88.75z"/>
	<path class="st0" d="M266.04,88.79l-0.54-0.19l-0.62-0.12l-0.54-0.27l-0.43-0.23l-0.39-0.31l-0.39-0.43l-0.47-0.31l-0.27-0.47
		l-0.23-0.47l-0.43-0.54l-0.08-0.54l-0.27-0.47l-0.04-0.5l-0.16-0.54l-0.08-0.62l-0.04-0.54l0.08-1.17l-0.12-0.54l0.12-0.54
		l0.04-0.47l0.16-0.54l0.16-0.62l0.04-0.54l0.16-0.47l0.19-0.54l0.35-0.47l0.16-0.58l0.31-0.5l0.23-0.47l0.19-0.39l0.43-0.5
		l0.35-0.39l0.31-0.5l0.43-0.35l0.31-0.39l0.58-0.31l0.39-0.35l0.43-0.23l0.54-0.23l0.5-0.19l0.54-0.23l0.58-0.16l0.39-0.12h0.7
		h0.97l0.54,0.08l0.51,0.12l1.05,0.47l0.39,0.35l0.27,0.31l0.35,0.35l0.35,0.43l0.27,0.54l0.27,0.43l0.27,0.5l0.08,0.5l0.12,0.5
		l0.27-0.5l0.23-0.5l0.2-0.47l0.39-0.58l0.16-0.47l0.31-0.47l0.12-0.5l0.7-0.54h0.54l0.58,0.04h0.58l0.23,0.5l-0.23,0.47l-0.2,0.5
		l-0.04,0.54l-0.23,0.58l-0.27,0.47l-0.08,0.47l-0.23,0.5l-0.12,0.62l-0.12,0.43l-0.27,0.58l-0.12,0.47l-0.27,0.54l-0.19,0.54
		l-0.12,0.43l-0.16,0.58l-0.16,0.47l-0.12,0.54l-0.19,0.54l-0.19,0.54l-0.19,0.5l-0.16,0.54l-0.12,0.47l-0.12,0.62l-0.08,0.47
		l0.23,1.17l0.35,0.47l1.13,0.12l0.39-0.19l0.54-0.16l0.31-0.39l0.46-0.27l0.31-0.43l0.47-0.43l0.31-0.35l0.43-0.43l0.19-0.43
		l0.47-0.43l0.23-0.47l0.23-0.51l0.35-0.43l0.23-0.5l0.47-0.43l0.15-0.58l0.39-0.47l0.7-0.12l0.5,0.31l0.12,0.89l-0.19,0.47
		l-0.27,0.43l-0.31,0.47l-0.27,0.47l-0.35,0.5l-0.23,0.43l-0.31,0.54l-0.19,0.39l-0.43,0.51l-0.23,0.39l-0.27,0.47l-0.35,0.39
		l-0.39,0.5l-0.39,0.35l-0.46,0.39L279.32,87l-0.74,0.74l-0.54,0.27l-0.47,0.31l-0.31,0.23l-0.62,0.19l-0.43,0.04l-1.05,0.04
		l-0.62-0.08l-0.5-0.19l-0.51-0.31l-0.31-0.27l-0.31-0.39l-0.2-0.47l-0.19-0.5l-0.08-0.62l-0.39,0.54l-0.5,0.35l-0.39,0.35
		l-0.47,0.43l-0.39,0.23l-0.54,0.35l-0.51,0.19l-0.51,0.19l-0.54,0.16h-0.62l-0.97,0.08L266.04,88.79z M268.84,85.64l0.39-0.27
		l0.51-0.16l0.54-0.35l0.35-0.27l0.47-0.35l0.31-0.43l0.23-0.47l0.39-0.39l0.31-0.47l0.23-0.5l0.08-0.5l0.27-0.47l0.12-0.5
		l0.12-0.58l0.15-0.54l-0.08-0.47l0.04-0.58l0.08-1.13l-0.16-0.5l-0.08-0.54l-0.12-0.58l-0.19-0.43l-0.39-0.5l-0.43-0.43l-0.35-0.27
		l-0.54-0.27l-0.58-0.08h-1.05l-0.5,0.04l-0.47,0.19l-0.58,0.31l-0.51,0.23l-0.31,0.39l-0.5,0.43l-0.31,0.31l-0.35,0.54l-0.23,0.39
		l-0.27,0.47l-0.16,0.5l-0.31,0.58l-0.12,0.58l-0.08,0.47l-0.23,0.54l-0.08,0.58l-0.04,0.5l0.08,1.13l0.04,0.62l0.08,0.54l0.23,0.5
		l0.23,0.58l0.35,0.43l0.31,0.47l0.39,0.31l0.5,0.27l0.62,0.19l1.17,0.04L268.84,85.64z"/>
	<path class="st0" d="M287.59,88.67l-0.58-0.19l-0.43-0.23l-0.66-0.23l-0.39-0.31l-0.35-0.27l-0.51-0.39l-0.31-0.47l-0.35-0.35
		l-0.27-0.5l-0.16-0.47l-0.35-0.5l-0.08-0.54l-0.16-0.51l-0.08-0.54l-0.19-0.62l-0.04-0.5v-0.97l0.12-0.39l0.04-0.43l-0.04-0.47
		l-0.04-0.43l0.08-0.35l0.19-0.5l0.12-0.35l-0.08-0.54l0.16-0.47l0.12-0.39l0.16-0.58l0.08-0.43l0.19-0.54l0.04-0.54l0.16-0.47
		l0.12-0.62l0.19-0.47l0.15-0.58l0.23-0.54l0.04-0.54l0.23-0.54l0.16-0.62l0.12-0.54l0.15-0.54l0.23-0.54l0.16-0.54l0.23-0.62
		l0.04-0.54l0.27-0.54l0.08-0.62l0.16-0.54l0.31-0.62l0.19-0.54l0.16-0.58l0.04-0.47l0.31-0.58l0.08-0.54l0.23-0.58v-0.58l0.78-0.58
		h0.43l0.54-0.04l0.58,0.08l0.5-0.04l0.47,0.54l-0.31,0.5l-0.16,0.54v0.5l-0.23,0.54l-0.23,0.54l-0.04,0.54l-0.12,0.54l-0.27,0.5
		l-0.19,0.58l-0.16,0.54l-0.04,0.47l-0.19,0.58l-0.08,0.54l-0.19,0.43l-0.08,0.58l-0.31,1.05l-0.23,0.5l-0.19,0.58l-0.08,0.54
		l-0.23,0.47l-0.08,0.62l-0.08,0.51l0.39-0.39l0.35-0.47l0.47-0.31l0.35-0.35l0.54-0.35l0.43-0.19l0.43-0.16l0.58-0.16l0.58-0.08
		h1.01l0.58,0.04l0.47,0.16l0.66,0.19l0.43,0.19l0.54,0.27l0.39,0.39l0.47,0.31l0.35,0.39l0.31,0.51l0.2,0.47l0.43,0.47l0.04,0.5
		l0.23,0.5l0.23,0.58l0.12,0.58l-0.04,0.54l0.08,0.58l-0.04,1.09l0.12,0.54l-0.04,0.58l-0.23,0.54v0.5l-0.12,0.5l-0.31,0.54
		l-0.08,0.54l-0.27,0.47l-0.12,0.58l-0.31,0.5l-0.31,0.5l-0.23,0.47l-0.27,0.39l-0.27,0.43l-0.39,0.5l-0.39,0.43l-0.35,0.35
		l-0.39,0.35l-0.5,0.31l-0.47,0.39l-0.97,0.47l-0.39,0.19l-0.62,0.16l-0.58,0.16l-0.47,0.12l-0.58,0.08l-1.63-0.08L287.59,88.67z
		 M290.62,85.57l0.43-0.16l0.58-0.31l0.43-0.23l0.39-0.39l0.27-0.35l0.47-0.47l0.39-0.39l0.27-0.5l0.16-0.54l0.19-0.47l0.35-0.5
		l0.16-0.54l0.08-0.5l0.12-0.62l0.16-0.54l-0.04-0.54v-1.13l-0.12-0.54l-0.08-0.58l-0.12-0.54l-0.31-0.5l-0.27-0.43l-0.43-0.5
		l-0.51-0.31l-0.43-0.19l-0.54-0.19h-1.17l-0.47,0.16l-0.5,0.16l-0.39,0.31l-0.5,0.27l-0.47,0.31l-0.39,0.39l-0.39,0.39l-0.35,0.43
		l-0.16,0.47l-0.35,0.47l-0.23,0.58l-0.19,0.47l-0.19,0.47l-0.08,0.62l-0.08,0.5l-0.08,0.5l-0.04,0.58l-0.08,1.09l0.04,0.58
		l0.12,0.5l0.23,0.54l0.12,0.39l0.19,0.47l0.31,0.47l0.35,0.35l0.46,0.31l0.47,0.23l0.58,0.12l1.09,0.04L290.62,85.57z"/>
</g>
<circle class="st0" cx="40.86" cy="18.74" r="2.48"/>
<circle class="st0" cx="30.16" cy="7.51" r="5.51"/>
<path class="st1" d="M87.39,21.32H67.96v37.12l4.47,8.51h8.13v-12.6h6.83c9.7,0,16.91-6.97,16.91-16.54
	C104.3,28.24,97.09,21.32,87.39,21.32z M85.89,43.38h-5.32V32.3h5.32c3.31,0,5.49,2.29,5.49,5.54
	C91.38,41.08,89.2,43.38,85.89,43.38z"/>
<g>
	<path class="st1" d="M238.21,25.81c-11.07,0-10.38,4.8-10.38,4.8l0.01,4.97h10.57v1.49h-14.76c0,0-7.09-0.8-7.09,10.37
		c0,11.17,6.18,10.78,6.18,10.78h3.69v-5.18c0,0-0.2-6.18,6.09-6.18H243c0,0,5.89,0.1,5.89-5.69V31.6
		C248.89,31.6,249.78,25.81,238.21,25.81z M232.39,29.16c1.05,0,1.9,0.85,1.9,1.9c0,0,0,0,0,0c0,1.05-0.85,1.9-1.9,1.9c0,0,0,0,0,0
		c-1.05,0-1.9-0.85-1.9-1.9c0,0,0,0,0,0C230.49,30.01,231.34,29.16,232.39,29.16C232.39,29.16,232.39,29.16,232.39,29.16z"/>
	<path class="st1" d="M238.53,69.2c11.07,0,10.38-4.8,10.38-4.8l-0.01-4.97h-10.57v-1.49h14.76c0,0,7.09,0.8,7.09-10.37
		c0-11.17-6.18-10.78-6.18-10.78h-3.69v5.18c0,0,0.2,6.18-6.09,6.18h-10.48c0,0-5.89-0.1-5.89,5.69v9.57
		C227.85,63.41,226.96,69.2,238.53,69.2L238.53,69.2z M244.35,65.86c-1.05,0-1.9-0.85-1.9-1.9c0,0,0,0,0,0c0-1.05,0.85-1.9,1.9-1.9
		c0,0,0,0,0,0c1.05,0,1.9,0.85,1.9,1.9c0,0,0,0,0,0C246.26,65,245.41,65.86,244.35,65.86C244.36,65.86,244.35,65.86,244.35,65.86
		L244.35,65.86z"/>
</g>
</svg>
