<?xml version="1.0" encoding="utf-8"?>
<!-- Generator: Adobe Illustrator 23.0.1, SVG Export Plug-In . SVG Version: 6.00 Build 0)  -->
<svg version="1.1" id="Capa_1" xmlns="http://www.w3.org/2000/svg" xmlns:xlink="http://www.w3.org/1999/xlink" x="0px" y="0px"
	 viewBox="-49 202 512 390" style="enable-background:new -49 202 512 390;" xml:space="preserve">
<style type="text/css">
	.st0{fill:#18BC9C;}
</style>
<path class="st0" d="M463,247c0-24.72-20.13-45-45-45H-4c-24.78,0-45,20.2-45,45v300c0,24.72,20.13,45,45,45h422
	c24.72,0,45-20.13,45-45V247z M-19,253.07l144.48,143.24L-19,540.79V253.07z M207.95,435.83L2.36,232h409.43L207.95,435.83z
	 M146.78,417.43l50.66,50.22c5.86,5.81,15.33,5.8,21.17-0.05L268,418.21L411.79,562H2.21L146.78,417.43z M289.21,397L433,253.21
	v287.57L289.21,397z"/>
</svg>
