<svg id="search" xmlns="http://www.w3.org/2000/svg" width="520.475" height="520.475" viewBox="0 0 520.475 520.475">
  <g id="Group_1" data-name="Group 1">
    <path id="Path_1" data-name="Path 1" d="M514.1,483.51,388.97,358.38a218.612,218.612,0,0,0,49.71-139.04C438.68,98.25,340.43,0,219.34,0,98.15,0,0,98.25,0,219.34S98.15,438.68,219.34,438.68a218.245,218.245,0,0,0,138.94-49.6L483.4,514.1a21.669,21.669,0,0,0,30.7-30.59ZM219.34,395.03c-96.98,0-175.79-78.81-175.79-175.69S122.36,43.55,219.34,43.55c96.87,0,175.8,78.92,175.8,175.79s-78.93,175.69-175.8,175.69Zm0,0" fill="#2c3e50"/>
  </g>
</svg>
