<?xml version="1.0" encoding="utf-8"?>
<!-- Generator: Adobe Illustrator 23.0.1, SVG Export Plug-In . SVG Version: 6.00 Build 0)  -->
<svg version="1.1" id="Layer_1" xmlns="http://www.w3.org/2000/svg" xmlns:xlink="http://www.w3.org/1999/xlink" x="0px" y="0px"
	 viewBox="0 0 520.47 520.47" style="enable-background:new 0 0 520.47 520.47;" xml:space="preserve">
<style type="text/css">
	.st0{fill:#E5E5E5;}
</style>
<g>
	<g>
		<path class="st0" d="M514.1,483.51L388.97,358.38c31.01-37.82,49.71-86.25,49.71-139.04C438.68,98.25,340.43,0,219.34,0
			C98.15,0,0,98.25,0,219.34s98.15,219.34,219.34,219.34c52.79,0,101.12-18.59,138.94-49.6L483.4,514.1c8.5,8.5,22.2,8.5,30.7,0
			C522.6,505.71,522.6,491.9,514.1,483.51L514.1,483.51z M219.34,395.03c-96.98,0-175.79-78.81-175.79-175.69
			S122.36,43.55,219.34,43.55c96.87,0,175.8,78.92,175.8,175.79S316.21,395.03,219.34,395.03L219.34,395.03z M219.34,395.03"/>
	</g>
</g>
</svg>
