<?xml version="1.0" encoding="utf-8"?>
<!-- Generator: Adobe Illustrator 23.0.1, SVG Export Plug-In . SVG Version: 6.00 Build 0)  -->
<svg version="1.1" id="Layer_1" xmlns="http://www.w3.org/2000/svg" xmlns:xlink="http://www.w3.org/1999/xlink" x="0px" y="0px"
	 viewBox="-49 141 512 491.13" style="enable-background:new -49 141 512 491.13;" xml:space="preserve">
<style type="text/css">
	.st0{fill:#FE6150;}
</style>
<path class="st0" d="M379.42,475.31h66.86c9.19,0,16.72-7.49,16.72-16.72V157.71c0-9.22-7.49-16.71-16.72-16.71h-66.86
	c-9.22,0-16.72,7.49-16.72,16.71v300.88C362.71,467.82,370.23,475.31,379.42,475.31z"/>
<path class="st0" d="M121.47,475.31l-17.61,48.03c-12.15,33.17-4.28,83.83,29.42,101.83c10.98,5.86,26.31,8.81,38.67,5.7
	c7.09-1.78,13.32-6.48,17.04-12.77c4.27-7.23,3.83-15.68,5.35-23.7c3.86-20.34,13.47-39.68,28.35-54.2
	c25.95-25.31,106.57-98.33,106.57-98.33V174.43H50.68c-37.59-0.02-62.23,41.96-43.69,74.75c-22.1,14.15-29.66,43.97-16.72,66.86
	c-22.1,14.15-29.66,43.97-16.72,66.86c-38.14,24.42-25.39,84.87,19.17,92.41C-4.57,475.77,121.47,475.31,121.47,475.31z"/>
</svg>
