<?xml version="1.0" encoding="utf-8"?>
<!-- Generator: Adobe Illustrator 23.0.1, SVG Export Plug-In . SVG Version: 6.00 Build 0)  -->
<svg version="1.1" id="Capa_1" xmlns="http://www.w3.org/2000/svg" xmlns:xlink="http://www.w3.org/1999/xlink" x="0px" y="0px"
	 viewBox="-49 200 512 426" style="enable-background:new -49 200 512 426;" xml:space="preserve">
<style type="text/css">
	.st0{fill:#2C3E50;}
</style>
<path class="st0" d="M463,254.25c-19.04,8.35-39.33,13.89-60.48,16.58c21.76-12.99,38.37-33.41,46.18-58.02
	c-20.29,12.1-42.69,20.64-66.56,25.41C362.87,217.7,335.42,205,305.46,205c-58.11,0-104.9,47.17-104.9,104.99
	c0,8.32,0.7,16.32,2.43,23.94c-87.26-4.26-164.48-46.08-216.35-109.79c-9.06,15.71-14.37,33.7-14.37,53.06
	c0,36.35,18.72,68.58,46.62,87.23c-16.86-0.32-33.41-5.22-47.42-12.93c0,0.32,0,0.74,0,1.15c0,51.01,36.38,93.38,84.1,103.14
	c-8.54,2.34-17.86,3.46-27.52,3.46c-6.72,0-13.5-0.38-19.87-1.79c13.6,41.57,52.19,72.13,98.08,73.12
	c-35.71,27.94-81.06,44.77-130.14,44.77c-8.61,0-16.86-0.38-25.12-1.44C-2.5,603.88,52.6,621,112.02,621
	c193.15,0,298.75-160,298.75-298.69c0-4.64-0.16-9.12-0.38-13.57C431.22,293.96,448.73,275.5,463,254.25z"/>
</svg>
