<?xml version="1.0" encoding="utf-8"?>
<!-- Generator: Adobe Illustrator 23.0.1, SVG Export Plug-In . SVG Version: 6.00 Build 0)  -->
<svg version="1.1" id="Layer_1" xmlns="http://www.w3.org/2000/svg" xmlns:xlink="http://www.w3.org/1999/xlink" x="0px" y="0px"
	 viewBox="-49 141 512 512" style="enable-background:new -49 141 512 512;" xml:space="preserve">
<style type="text/css">
	.st0{fill:#2C3E50;}
</style>
<path class="st0" d="M348.73,424.93c-6.82,0-12.36,5.53-12.36,12.36v188.68c0,1.27-1.03,2.31-2.3,2.31H-15.06
	c-1.27,0-2.31-1.04-2.31-2.31V268.09h75.36c14.9,0,27.02-12.12,27.02-27.02v-75.36h249.08c1.27,0,2.3,1.04,2.3,2.31v38.99
	c0,6.83,5.53,12.36,12.36,12.36s12.36-5.53,12.36-12.36v-38.99c0-14.9-12.12-27.03-27.01-27.03H72.64c-3.28,0-6.42,1.3-8.74,3.62
	L-38.47,246.99c-2.32,2.32-3.62,5.46-3.62,8.74v370.24c0,14.9,12.12,27.03,27.03,27.03h349.14c14.9,0,27.01-12.12,27.01-27.03
	V437.29C361.09,430.46,355.56,424.93,348.73,424.93z M60.28,241.08c0,1.27-1.03,2.3-2.3,2.3H0.11l60.18-60.18V241.08z"/>
<path class="st0" d="M443.86,241.4l-14.54-14.54c-16.3-16.3-42.83-16.3-59.14,0L254.76,342.28H54.56c-6.83,0-12.36,5.53-12.36,12.36
	c0,6.83,5.53,12.36,12.36,12.36h175.49l-74.38,74.38H54.56c-6.83,0-12.36,5.53-12.36,12.36c0,6.83,5.53,12.36,12.36,12.36h76.39
	l-0.2,0.2c-1.51,1.51-2.6,3.38-3.17,5.43l-19.09,68.75H54.56c-6.83,0-12.36,5.53-12.36,12.36s5.53,12.36,12.36,12.36h63.33
	c0,0,2.71-0.31,3.11-0.41c0.07-0.02,78-21.64,78-21.64c2.05-0.57,3.93-1.66,5.43-3.17l239.44-239.44
	C460.17,284.23,460.17,257.7,443.86,241.4z M195.69,513.75l-38.72-38.72l197.65-197.65l38.72,38.72L195.69,513.75z M145.73,498.75
	l26.24,26.24l-36.33,10.09L145.73,498.75z M426.39,283.05l-15.57,15.57l-38.72-38.72l15.57-15.57c6.67-6.67,17.52-6.67,24.18,0
	l14.54,14.54C433.05,265.54,433.05,276.39,426.39,283.05z"/>
</svg>
