<?xml version="1.0" encoding="utf-8"?>
<!-- Generator: Adobe Illustrator 23.0.1, SVG Export Plug-In . SVG Version: 6.00 Build 0)  -->
<svg version="1.1" id="Layer_1" xmlns="http://www.w3.org/2000/svg" xmlns:xlink="http://www.w3.org/1999/xlink" x="0px" y="0px"
	 viewBox="0 0 317.8 396.54" style="enable-background:new 0 0 317.8 396.54;" xml:space="preserve">
<style type="text/css">
	.st0{fill:#2C3E50;stroke:#2C3E50;stroke-width:2;stroke-miterlimit:10;}
</style>
<path class="st0" d="M300.68,106.11H64.12c-21.92,0-39.84-17.84-39.84-39.84c0-21.92,17.84-39.84,39.84-39.84h236.64
	c5.92,0,10.64-4.8,10.64-10.64c0-5.92-4.8-10.64-10.64-10.64H64.12C30.44,5.15,3,32.59,3,66.27v266.16
	c0,33.68,27.44,61.12,61.12,61.12h236.64c5.92,0,10.64-4.8,10.64-10.64V116.75C311.32,110.91,306.6,106.11,300.68,106.11
	L300.68,106.11z M290.04,372.27H64.12c-21.92,0-39.84-17.84-39.84-39.84V112.67c10.72,9.2,24.64,14.8,39.84,14.8h225.92V372.27z
	 M290.04,372.27"/>
<path class="st0" d="M67.48,56.59c-5.92,0-10.64,4.8-10.64,10.64c0,5.84,4.8,10.64,10.64,10.64h199.84c5.92,0,10.64-4.8,10.64-10.64
	c0-5.84-4.8-10.64-10.64-10.64H67.48z M67.48,56.59"/>
<path class="st0" d="M80.26,192.59L80.26,192.59c0-6.31,5.17-11.48,11.48-11.48h130.92c6.31,0,11.48,5.17,11.48,11.48v0
	c0,6.31-5.17,11.48-11.48,11.48H91.74C85.42,204.07,80.26,198.91,80.26,192.59z"/>
<path class="st0" d="M134,318.8L134,318.8c0-6.31,5.17-11.48,11.48-11.48h23.43c6.31,0,11.48,5.17,11.48,11.48l0,0
	c0,6.31-5.17,11.48-11.48,11.48h-23.43C139.17,330.28,134,325.12,134,318.8z"/>
</svg>
