<?xml version="1.0" encoding="utf-8"?>
<!-- Generator: Adobe Illustrator 23.0.1, SVG Export Plug-In . SVG Version: 6.00 Build 0)  -->
<svg version="1.1" id="Capa_1" xmlns="http://www.w3.org/2000/svg" xmlns:xlink="http://www.w3.org/1999/xlink" x="0px" y="0px"
	 viewBox="-13 154 422 499" style="enable-background:new -13 154 422 499;" xml:space="preserve">
<style type="text/css">
	.st0{fill:#6C8DAF;stroke:#6C8DAF;stroke-width:6;stroke-miterlimit:10;}
</style>
<g>
	<g>
		<path class="st0" d="M197.7,421.3h3.14c28.74-0.49,51.99-10.59,69.16-29.92c37.76-42.58,31.49-115.56,30.8-122.53
			c-2.45-52.29-27.17-77.3-47.57-88.97c-15.21-8.73-32.96-13.44-52.78-13.83h-1.67c-10.89,0-32.27,1.77-52.78,13.44
			c-20.6,11.67-45.72,36.69-48.17,89.37c-0.69,6.97-6.96,79.95,30.8,122.53C145.71,410.7,168.96,420.81,197.7,421.3L197.7,421.3z
			 M124.03,271.31c0-0.29,0.1-0.59,0.1-0.79c3.24-70.34,53.17-77.89,74.56-77.89h1.17c26.49,0.59,71.51,11.38,74.56,77.89
			c0,0.3,0,0.59,0.1,0.79c0.1,0.68,6.96,67.39-24.23,102.51c-12.36,13.93-28.84,20.79-50.52,20.99h-0.98
			c-21.58-0.2-38.16-7.06-50.42-20.99C117.26,338.9,123.93,271.9,124.03,271.31L124.03,271.31z M124.03,271.31"/>
		<path class="st0" d="M400.86,542.35v-0.29c0-0.79-0.1-1.57-0.1-2.45c-0.58-19.42-1.86-64.84-44.44-79.36
			c-0.29-0.1-0.69-0.2-0.98-0.3c-44.24-11.28-76.75-33.48-77.14-33.77c-5.98-4.22-14.23-2.75-18.44,3.23
			c-4.22,5.99-2.75,14.23,3.23,18.45c1.67,1.17,36.44,25.04,85.29,37.6c22.85,8.14,25.41,32.57,26.09,54.94c0,0.88,0,1.67,0.1,2.45
			c0.1,8.83-0.49,22.47-2.06,30.31c-15.89,9.02-78.19,40.22-172.95,40.22c-94.37,0-157.05-31.29-173.04-40.32
			c-1.57-7.85-2.26-21.49-2.06-30.32c0-0.78,0.1-1.57,0.1-2.45c0.69-22.36,3.24-46.79,26.1-54.94
			c48.85-12.55,82.81-36.49,84.48-37.57c5.98-4.21,7.46-12.46,3.24-18.44c-4.22-5.98-12.46-7.45-18.44-3.24
			c-0.39,0.3-31.9,22.47-76.34,33.75c-0.39,0.1-0.69,0.2-0.98,0.29c-42.57,14.62-43.85,60.04-44.44,79.36c0,0.89,0,1.67-0.1,2.45
			v0.3c-0.1,5.1-0.2,31.29,5,44.44c0.98,2.55,2.74,4.71,5.1,6.18c2.94,1.96,73.48,46.89,191.49,46.89s188.55-45.02,191.49-46.89
			c2.26-1.47,4.12-3.63,5.1-6.18C401.06,573.64,400.96,547.45,400.86,542.35L400.86,542.35z M400.86,542.35"/>
	</g>
</g>
</svg>
