<?xml version="1.0" encoding="utf-8"?>
<!-- Generator: Adobe Illustrator 23.0.1, SVG Export Plug-In . SVG Version: 6.00 Build 0)  -->
<svg version="1.1" id="Capa_1" xmlns="http://www.w3.org/2000/svg" xmlns:xlink="http://www.w3.org/1999/xlink" x="0px" y="0px"
	 viewBox="-49 231 407 422" style="enable-background:new -49 231 407 422;" xml:space="preserve">
<style type="text/css">
	.st0{fill:#6C8DAF;stroke:#6C8DAF;stroke-width:6;stroke-miterlimit:10;}
</style>
<path class="st0" d="M349.29,246.39c-4.55-4.55-11.93-4.55-16.48,0l-33.94,33.94c-2.09-0.99-4.29-1.8-6.59-2.37L186.83,251.9
	c-11.84-2.96-24.56,0.56-33.19,9.19l-188.4,188.09c-13.63,13.63-13.63,35.8,0,49.43L97.06,630.44c13.63,13.63,35.8,13.63,49.43,0
	l188.09-188.4c8.63-8.63,12.15-21.35,9.19-33.19l-26.05-105.46c-0.57-2.3-1.37-4.5-2.37-6.59l33.94-33.94
	C353.84,258.31,353.84,250.94,349.29,246.39z M321.17,414.49c0.99,3.95-0.19,8.19-3.06,11.06l-188.09,188.4
	c-4.54,4.54-11.93,4.54-16.48,0L-18.29,482.14c-4.54-4.54-4.54-11.93,0-16.48l188.4-188.09c2.2-2.2,5.21-3.41,8.27-3.41
	c0.94,0,1.88,0.11,2.8,0.34l99.06,24.45l-28.06,28.06c-12.99-6.19-29.04-3.92-39.78,6.82c-13.63,13.63-13.63,35.8,0,49.43
	c6.81,6.81,15.77,10.22,24.72,10.22c8.95,0,17.9-3.41,24.72-10.22c10.74-10.74,13.01-26.79,6.82-39.78l28.06-28.06L321.17,414.49z
	 M245.36,366.8c-4.54,4.54-11.93,4.54-16.48,0c-4.54-4.54-4.54-11.93,0-16.48c2.27-2.27,5.25-3.41,8.24-3.41
	c2.98,0,5.97,1.14,8.24,3.41l0,0l0,0C249.9,354.86,249.9,362.25,245.36,366.8z"/>
</svg>
