<?xml version="1.0" encoding="utf-8"?>
<!-- Generator: Adobe Illustrator 23.0.1, SVG Export Plug-In . SVG Version: 6.00 Build 0)  -->
<svg version="1.1" id="Layer_1" xmlns="http://www.w3.org/2000/svg" xmlns:xlink="http://www.w3.org/1999/xlink" x="0px" y="0px"
	 viewBox="-49 141 512 491.13" style="enable-background:new -49 141 512 491.13;" xml:space="preserve">
<style type="text/css">
	.st0{fill:#18BC9C;}
</style>
<path class="st0" d="M34.58,297.82h-66.86c-9.19,0-16.72,7.49-16.72,16.72v300.88c0,9.22,7.49,16.71,16.72,16.71h66.86
	c9.22,0,16.72-7.49,16.72-16.71V314.54C51.29,305.31,43.77,297.82,34.58,297.82z"/>
<path class="st0" d="M292.53,297.82l17.61-48.03c12.15-33.17,4.28-83.83-29.42-101.83c-10.98-5.86-26.31-8.81-38.67-5.7
	c-7.09,1.78-13.32,6.48-17.04,12.77c-4.27,7.23-3.83,15.68-5.35,23.7c-3.86,20.34-13.47,39.68-28.35,54.2
	c-25.95,25.31-106.57,98.33-106.57,98.33V598.7h278.59c37.59,0.02,62.23-41.96,43.69-74.75c22.1-14.15,29.66-43.97,16.72-66.86
	c22.1-14.15,29.66-43.97,16.72-66.86c38.14-24.42,25.39-84.87-19.17-92.41C418.57,297.37,292.53,297.82,292.53,297.82z"/>
</svg>
