<?xml version="1.0" encoding="utf-8"?>
<!-- Generator: Adobe Illustrator 23.0.1, SVG Export Plug-In . SVG Version: 6.00 Build 0)  -->
<svg version="1.1" id="Layer_1" xmlns="http://www.w3.org/2000/svg" xmlns:xlink="http://www.w3.org/1999/xlink" x="0px" y="0px"
	 viewBox="0 0 1800 1800" style="enable-background:new 0 0 1800 1800;" xml:space="preserve">
<style type="text/css">
	.st0{clip-path:url(#SVGID_2_);fill:#13B3CA;}
	.st1{clip-path:url(#SVGID_2_);fill:#10ABB6;}
	.st2{fill:#0EA2A4;}
	.st3{fill:#FFFFFF;}
</style>
<g>
	<g>
		<defs>
			<rect id="SVGID_1_" x="2.67" y="0.88" width="1794.59" height="1799.12"/>
		</defs>
		<clipPath id="SVGID_2_">
			<use xlink:href="#SVGID_1_"  style="overflow:visible;"/>
		</clipPath>
		<path class="st0" d="M1793.87,899.86c0,494.63-400.97,895.6-895.6,895.6c-494.63,0-895.6-400.97-895.6-895.6
			S403.64,4.26,898.27,4.26C1392.89,4.26,1793.87,405.23,1793.87,899.86L1793.87,899.86z M1793.87,899.86"/>
		<path class="st1" d="M1531.47,266.58c349.73,349.71,349.75,916.73,0,1266.48c-349.73,349.73-916.76,349.73-1266.47,0.01
			L1531.47,266.58z M1531.47,266.58"/>
	</g>
	<path class="st2" d="M1785.62,1019.13L1543.59,777.1l-19.95,19.95l-304.91-304.89l-15.79,15.8l-36.59-36.59l-44.7,44.71
		l-36.24-36.2l-58.27,58.25l71.11,71.09L825.2,882.29L559.09,616.2l-58.25,58.25l76.68,76.66l-53.97,53.97l88.05,88.05l-38.82,38.8
		l107.28,107.28l-17.51,17.53l98.46,98.45l-115.65,115.68l-86.15-86.15l-83.22,83.22l-103.23-103.26l-20.76,20.78l607.59,607.59
		C1385.7,1764.18,1729.88,1437.37,1785.62,1019.13L1785.62,1019.13z M1785.62,1019.13"/>
	<path class="st3" d="M1402.7,861.28c71.57-5.89,120.1-38.45,138.79-82.59c-25.83,15.87-105.98,33.16-150.23,16.66
		c-2.16-10.37-4.58-20.26-6.96-29.15c-33.73-123.85-149.2-223.6-270.17-211.56c9.78-3.95,19.74-7.64,29.61-10.93
		c13.31-4.78,91.45-17.51,79.16-45.08c-10.37-24.24-105.84,18.34-123.81,23.92c23.73-8.93,62.96-24.28,67.15-51.55
		c-36.35,4.98-72.02,22.18-99.58,47.18c9.94-10.74,17.49-23.78,19.12-37.85c-97,61.95-153.63,186.8-199.44,307.94
		c-36-34.87-67.88-62.35-96.52-77.59c-80.28-43.06-176.25-88-326.92-143.9c-4.63,49.84,24.65,116.13,108.99,160.21
		c-18.27-2.45-51.67,3.03-78.42,9.41c10.89,57.11,46.42,104.16,142.74,126.91c-44,2.9-66.74,12.92-87.35,34.49
		c20,39.73,68.92,86.47,156.84,76.87c-97.75,42.14-39.84,120.21,39.73,108.57c-135.73,140.2-349.75,129.92-472.63,12.66
		c320.85,437.21,1018.34,258.54,1122.24-162.58c77.88,0.66,123.66-26.98,152.04-57.42C1502.18,883.51,1437.16,875.63,1402.7,861.28
		L1402.7,861.28z M1402.7,861.28"/>
</g>
</svg>
